<ttFont>
    <TTGlyph name=".notdef" xMin="100" yMin="0" xMax="658" yMax="531">
      <contour>
        <pt x="100" y="0" on="1"/>
        <pt x="100" y="531" on="1"/>
        <pt x="658" y="531" on="1"/>
        <pt x="658" y="0" on="1"/>
      </contour>
      <contour>
        <pt x="114" y="22" on="1"/>
        <pt x="370" y="266" on="1"/>
        <pt x="114" y="507" on="1"/>
      </contour>
      <contour>
        <pt x="124" y="518" on="1"/>
        <pt x="381" y="276" on="1"/>
        <pt x="635" y="518" on="1"/>
      </contour>
      <contour>
        <pt x="127" y="13" on="1"/>
        <pt x="634" y="13" on="1"/>
        <pt x="381" y="256" on="1"/>
      </contour>
      <contour>
        <pt x="392" y="266" on="1"/>
        <pt x="644" y="25" on="1"/>
        <pt x="644" y="506" on="1"/>
      </contour>
    </TTGlyph>
    <TTGlyph name="A" xMin="25" yMin="0" xMax="705" yMax="732">
      <contour>
        <pt x="25" y="0" on="1"/>
        <pt x="370" y="732" on="1"/>
        <pt x="599" y="732" on="1"/>
        <pt x="705" y="0" on="1"/>
        <pt x="506" y="0" on="1"/>
        <pt x="485" y="128" on="1"/>
        <pt x="297" y="128" on="1"/>
        <pt x="240" y="0" on="1"/>
      </contour>
      <contour>
        <pt x="367" y="293" on="1"/>
        <pt x="472" y="293" on="1"/>
        <pt x="449" y="489" on="1"/>
      </contour>
    </TTGlyph>
    <TTGlyph name="AE" xMin="17" yMin="-4" xMax="1069" yMax="734">
      <contour>
        <pt x="560" y="706" on="1"/>
        <pt x="612" y="724" on="0"/>
        <pt x="690" y="733" on="0"/>
        <pt x="745" y="733" on="0"/>
        <pt x="765" y="732" on="1"/>
        <pt x="955" y="732" on="0"/>
        <pt x="1069" y="716" on="1"/>
        <pt x="1044" y="553" on="1"/>
        <pt x="797" y="553" on="1"/>
        <pt x="749" y="553" on="0"/>
        <pt x="740" y="518" on="1"/>
        <pt x="738" y="510" on="0"/>
        <pt x="736" y="497" on="1"/>
        <pt x="729" y="453" on="1"/>
        <pt x="976" y="442" on="1"/>
        <pt x="951" y="281" on="1"/>
        <pt x="700" y="272" on="1"/>
        <pt x="693" y="228" on="1"/>
        <pt x="687" y="189" on="0"/>
        <pt x="706" y="182" on="1"/>
        <pt x="722" y="176" on="0"/>
        <pt x="747" y="176" on="1"/>
        <pt x="984" y="176" on="1"/>
        <pt x="958" y="14" on="1"/>
        <pt x="855" y="1" on="0"/>
        <pt x="712" y="-2" on="1"/>
        <pt x="662" y="-3" on="1"/>
        <pt x="654" y="-3" on="0"/>
        <pt x="646" y="-3" on="1"/>
        <pt x="614" y="-2" on="1"/>
        <pt x="514" y="6" on="0"/>
        <pt x="488" y="68" on="1"/>
        <pt x="480" y="84" on="0"/>
        <pt x="480" y="114" on="0"/>
        <pt x="482" y="124" on="1"/>
        <pt x="489" y="167" on="1"/>
        <pt x="342" y="167" on="1"/>
        <pt x="232" y="0" on="1"/>
        <pt x="17" y="0" on="1"/>
        <pt x="375" y="552" on="1"/>
        <pt x="454" y="671" on="0"/>
      </contour>
      <contour>
        <pt x="446" y="331" on="1"/>
        <pt x="515" y="331" on="1"/>
        <pt x="539" y="482" on="1"/>
      </contour>
    </TTGlyph>
    <TTGlyph name="Aacute" xMin="25" yMin="0" xMax="705" yMax="940">
      <contour>
        <pt x="440" y="797" on="1"/>
        <pt x="540" y="940" on="1"/>
        <pt x="685" y="940" on="1"/>
        <pt x="549" y="797" on="1"/>
      </contour>
      <contour>
        <pt x="25" y="0" on="1"/>
        <pt x="370" y="732" on="1"/>
        <pt x="599" y="732" on="1"/>
        <pt x="705" y="0" on="1"/>
        <pt x="506" y="0" on="1"/>
        <pt x="485" y="128" on="1"/>
        <pt x="297" y="128" on="1"/>
        <pt x="240" y="0" on="1"/>
      </contour>
      <contour>
        <pt x="367" y="293" on="1"/>
        <pt x="472" y="293" on="1"/>
        <pt x="449" y="489" on="1"/>
      </contour>
    </TTGlyph>
    <TTGlyph name="Abreve" xMin="25" yMin="0" xMax="705" yMax="909">
      <contour>
        <pt x="465" y="900" on="1"/>
        <pt x="465" y="862" on="0"/>
        <pt x="558" y="862" on="0"/>
        <pt x="561" y="909" on="1"/>
        <pt x="628" y="909" on="1"/>
        <pt x="623" y="857" on="0"/>
        <pt x="559" y="797" on="0"/>
        <pt x="454" y="797" on="0"/>
        <pt x="398" y="854" on="0"/>
        <pt x="398" y="897" on="1"/>
        <pt x="398" y="903" on="0"/>
        <pt x="398" y="909" on="1"/>
        <pt x="465" y="909" on="1"/>
        <pt x="465" y="904" on="0"/>
      </contour>
      <contour>
        <pt x="25" y="0" on="1"/>
        <pt x="370" y="732" on="1"/>
        <pt x="599" y="732" on="1"/>
        <pt x="705" y="0" on="1"/>
        <pt x="506" y="0" on="1"/>
        <pt x="485" y="128" on="1"/>
        <pt x="297" y="128" on="1"/>
        <pt x="240" y="0" on="1"/>
      </contour>
      <contour>
        <pt x="367" y="293" on="1"/>
        <pt x="472" y="293" on="1"/>
        <pt x="449" y="489" on="1"/>
      </contour>
    </TTGlyph>
    <TTGlyph name="Acircumflex" xMin="25" yMin="0" xMax="705" yMax="937">
      <contour>
        <pt x="334" y="797" on="1"/>
        <pt x="456" y="937" on="1"/>
        <pt x="587" y="937" on="1"/>
        <pt x="656" y="797" on="1"/>
        <pt x="545" y="797" on="1"/>
        <pt x="514" y="848" on="1"/>
        <pt x="456" y="797" on="1"/>
      </contour>
      <contour>
        <pt x="25" y="0" on="1"/>
        <pt x="370" y="732" on="1"/>
        <pt x="599" y="732" on="1"/>
        <pt x="705" y="0" on="1"/>
        <pt x="506" y="0" on="1"/>
        <pt x="485" y="128" on="1"/>
        <pt x="297" y="128" on="1"/>
        <pt x="240" y="0" on="1"/>
      </contour>
      <contour>
        <pt x="367" y="293" on="1"/>
        <pt x="472" y="293" on="1"/>
        <pt x="449" y="489" on="1"/>
      </contour>
    </TTGlyph>
    <TTGlyph name="Adieresis" xMin="25" yMin="0" xMax="705" yMax="928">
      <contour>
        <pt x="362" y="928" on="0"/>
        <pt x="416" y="928" on="0"/>
        <pt x="445" y="894" on="0"/>
        <pt x="445" y="881" on="1"/>
        <pt x="445" y="841" on="0"/>
        <pt x="395" y="797" on="0"/>
        <pt x="341" y="797" on="0"/>
        <pt x="312" y="831" on="0"/>
        <pt x="312" y="844" on="1"/>
        <pt x="312" y="886" on="0"/>
      </contour>
      <contour>
        <pt x="617" y="928" on="0"/>
        <pt x="671" y="928" on="0"/>
        <pt x="700" y="894" on="0"/>
        <pt x="700" y="881" on="1"/>
        <pt x="700" y="841" on="0"/>
        <pt x="650" y="797" on="0"/>
        <pt x="596" y="797" on="0"/>
        <pt x="567" y="832" on="0"/>
        <pt x="567" y="845" on="1"/>
        <pt x="567" y="886" on="0"/>
      </contour>
      <contour>
        <pt x="25" y="0" on="1"/>
        <pt x="370" y="732" on="1"/>
        <pt x="599" y="732" on="1"/>
        <pt x="705" y="0" on="1"/>
        <pt x="506" y="0" on="1"/>
        <pt x="485" y="128" on="1"/>
        <pt x="297" y="128" on="1"/>
        <pt x="240" y="0" on="1"/>
      </contour>
      <contour>
        <pt x="367" y="293" on="1"/>
        <pt x="472" y="293" on="1"/>
        <pt x="449" y="489" on="1"/>
      </contour>
    </TTGlyph>
    <TTGlyph name="Agrave" xMin="25" yMin="0" xMax="705" yMax="940">
      <contour>
        <pt x="350" y="940" on="1"/>
        <pt x="495" y="940" on="1"/>
        <pt x="549" y="797" on="1"/>
        <pt x="440" y="797" on="1"/>
      </contour>
      <contour>
        <pt x="25" y="0" on="1"/>
        <pt x="370" y="732" on="1"/>
        <pt x="599" y="732" on="1"/>
        <pt x="705" y="0" on="1"/>
        <pt x="506" y="0" on="1"/>
        <pt x="485" y="128" on="1"/>
        <pt x="297" y="128" on="1"/>
        <pt x="240" y="0" on="1"/>
      </contour>
      <contour>
        <pt x="367" y="293" on="1"/>
        <pt x="472" y="293" on="1"/>
        <pt x="449" y="489" on="1"/>
      </contour>
    </TTGlyph>
    <TTGlyph name="Amacron" xMin="25" yMin="0" xMax="705" yMax="890">
      <contour>
        <pt x="349" y="797" on="1"/>
        <pt x="364" y="890" on="1"/>
        <pt x="656" y="890" on="1"/>
        <pt x="641" y="797" on="1"/>
      </contour>
      <contour>
        <pt x="25" y="0" on="1"/>
        <pt x="370" y="732" on="1"/>
        <pt x="599" y="732" on="1"/>
        <pt x="705" y="0" on="1"/>
        <pt x="506" y="0" on="1"/>
        <pt x="485" y="128" on="1"/>
        <pt x="297" y="128" on="1"/>
        <pt x="240" y="0" on="1"/>
      </contour>
      <contour>
        <pt x="367" y="293" on="1"/>
        <pt x="472" y="293" on="1"/>
        <pt x="449" y="489" on="1"/>
      </contour>
    </TTGlyph>
    <TTGlyph name="Aogonek" xMin="25" yMin="-196" xMax="705" yMax="732">
      <contour>
        <pt x="500" y="-103" on="1"/>
        <pt x="500" y="-39" on="0"/>
        <pt x="576" y="1" on="1"/>
        <pt x="645" y="1" on="1"/>
        <pt x="596" y="-29" on="0"/>
        <pt x="596" y="-60" on="1"/>
        <pt x="596" y="-67" on="0"/>
        <pt x="599" y="-74" on="1"/>
        <pt x="607" y="-98" on="0"/>
        <pt x="633" y="-100" on="1"/>
        <pt x="638" y="-101" on="0"/>
        <pt x="642" y="-100" on="1"/>
        <pt x="628" y="-190" on="1"/>
        <pt x="610" y="-196" on="0"/>
        <pt x="563" y="-196" on="0"/>
        <pt x="500" y="-147" on="0"/>
      </contour>
      <contour>
        <pt x="25" y="0" on="1"/>
        <pt x="370" y="732" on="1"/>
        <pt x="599" y="732" on="1"/>
        <pt x="705" y="0" on="1"/>
        <pt x="506" y="0" on="1"/>
        <pt x="485" y="128" on="1"/>
        <pt x="297" y="128" on="1"/>
        <pt x="240" y="0" on="1"/>
      </contour>
      <contour>
        <pt x="367" y="293" on="1"/>
        <pt x="472" y="293" on="1"/>
        <pt x="449" y="489" on="1"/>
      </contour>
    </TTGlyph>
    <TTGlyph name="Aring" xMin="25" yMin="0" xMax="705" yMax="930">
      <contour>
        <pt x="542" y="930" on="0"/>
        <pt x="458" y="930" on="0"/>
        <pt x="391" y="869" on="0"/>
        <pt x="391" y="820" on="1"/>
        <pt x="391" y="784" on="0"/>
        <pt x="444" y="730" on="0"/>
        <pt x="529" y="730" on="0"/>
        <pt x="594" y="791" on="0"/>
        <pt x="594" y="840" on="1"/>
        <pt x="594" y="876" on="0"/>
      </contour>
      <contour>
        <pt x="504" y="797" on="0"/>
        <pt x="476" y="797" on="0"/>
        <pt x="458" y="816" on="0"/>
        <pt x="461" y="844" on="0"/>
        <pt x="482" y="864" on="0"/>
        <pt x="510" y="864" on="0"/>
        <pt x="528" y="844" on="0"/>
        <pt x="524" y="816" on="0"/>
      </contour>
      <contour>
        <pt x="25" y="0" on="1"/>
        <pt x="370" y="732" on="1"/>
        <pt x="599" y="732" on="1"/>
        <pt x="705" y="0" on="1"/>
        <pt x="506" y="0" on="1"/>
        <pt x="485" y="128" on="1"/>
        <pt x="297" y="128" on="1"/>
        <pt x="240" y="0" on="1"/>
      </contour>
      <contour>
        <pt x="367" y="293" on="1"/>
        <pt x="472" y="293" on="1"/>
        <pt x="449" y="489" on="1"/>
      </contour>
    </TTGlyph>
    <TTGlyph name="Atilde" xMin="25" yMin="0" xMax="705" yMax="943">
      <contour>
        <pt x="467" y="938" on="1"/>
        <pt x="489" y="938" on="0"/>
        <pt x="548" y="903" on="0"/>
        <pt x="567" y="903" on="1"/>
        <pt x="570" y="903" on="0"/>
        <pt x="574" y="903" on="1"/>
        <pt x="622" y="903" on="0"/>
        <pt x="667" y="943" on="1"/>
        <pt x="681" y="869" on="1"/>
        <pt x="622" y="797" on="0"/>
        <pt x="557" y="797" on="1"/>
        <pt x="535" y="797" on="0"/>
        <pt x="466" y="832" on="0"/>
        <pt x="447" y="832" on="1"/>
        <pt x="399" y="832" on="0"/>
        <pt x="348" y="797" on="1"/>
        <pt x="332" y="864" on="1"/>
        <pt x="396" y="938" on="0"/>
      </contour>
      <contour>
        <pt x="25" y="0" on="1"/>
        <pt x="370" y="732" on="1"/>
        <pt x="599" y="732" on="1"/>
        <pt x="705" y="0" on="1"/>
        <pt x="506" y="0" on="1"/>
        <pt x="485" y="128" on="1"/>
        <pt x="297" y="128" on="1"/>
        <pt x="240" y="0" on="1"/>
      </contour>
      <contour>
        <pt x="367" y="293" on="1"/>
        <pt x="472" y="293" on="1"/>
        <pt x="449" y="489" on="1"/>
      </contour>
    </TTGlyph>
    <TTGlyph name="B" xMin="45" yMin="0" xMax="662" yMax="732">
      <contour>
        <pt x="469" y="732" on="1"/>
        <pt x="581" y="732" on="0"/>
        <pt x="627" y="672" on="1"/>
        <pt x="661" y="627" on="0"/>
        <pt x="661" y="561" on="1"/>
        <pt x="661" y="475" on="0"/>
        <pt x="614" y="423" on="1"/>
        <pt x="578" y="384" on="0"/>
        <pt x="526" y="380" on="1"/>
        <pt x="580" y="371" on="0"/>
        <pt x="608" y="320" on="1"/>
        <pt x="629" y="282" on="0"/>
        <pt x="629" y="232" on="1"/>
        <pt x="629" y="178" on="0"/>
        <pt x="597" y="82" on="0"/>
        <pt x="559" y="39" on="0"/>
        <pt x="522" y="14" on="0"/>
        <pt x="489" y="8" on="1"/>
        <pt x="438" y="0" on="0"/>
        <pt x="358" y="0" on="1"/>
        <pt x="45" y="0" on="1"/>
        <pt x="161" y="732" on="1"/>
      </contour>
      <contour>
        <pt x="374" y="164" on="1"/>
        <pt x="401" y="164" on="0"/>
        <pt x="414" y="182" on="1"/>
        <pt x="436" y="210" on="0"/>
        <pt x="436" y="306" on="0"/>
        <pt x="396" y="306" on="1"/>
        <pt x="287" y="306" on="1"/>
        <pt x="265" y="164" on="1"/>
      </contour>
      <contour>
        <pt x="411" y="460" on="1"/>
        <pt x="433" y="460" on="0"/>
        <pt x="447" y="474" on="1"/>
        <pt x="466" y="494" on="0"/>
        <pt x="466" y="528" on="1"/>
        <pt x="466" y="568" on="0"/>
        <pt x="428" y="568" on="1"/>
        <pt x="329" y="568" on="1"/>
        <pt x="312" y="460" on="1"/>
      </contour>
    </TTGlyph>
    <TTGlyph name="C" xMin="75" yMin="-7" xMax="658" yMax="740">
      <contour>
        <pt x="400" y="740" on="1"/>
        <pt x="504" y="740" on="0"/>
        <pt x="594" y="725" on="0"/>
        <pt x="658" y="700" on="1"/>
        <pt x="634" y="549" on="1"/>
        <pt x="622" y="551" on="0"/>
        <pt x="612" y="552" on="1"/>
        <pt x="587" y="556" on="1"/>
        <pt x="517" y="566" on="0"/>
        <pt x="464" y="566" on="1"/>
        <pt x="404" y="566" on="1"/>
        <pt x="369" y="566" on="0"/>
        <pt x="350" y="552" on="0"/>
        <pt x="327" y="533" on="0"/>
        <pt x="316" y="505" on="0"/>
        <pt x="308" y="484" on="1"/>
        <pt x="295" y="449" on="0"/>
        <pt x="271" y="299" on="0"/>
        <pt x="271" y="222" on="0"/>
        <pt x="278" y="206" on="1"/>
        <pt x="295" y="168" on="0"/>
        <pt x="370" y="168" on="1"/>
        <pt x="474" y="168" on="0"/>
        <pt x="547" y="174" on="1"/>
        <pt x="575" y="177" on="1"/>
        <pt x="551" y="26" on="1"/>
        <pt x="500" y="6" on="0"/>
        <pt x="402" y="-6" on="0"/>
        <pt x="306" y="-6" on="0"/>
        <pt x="282" y="-6" on="1"/>
        <pt x="76" y="-3" on="0"/>
        <pt x="76" y="258" on="1"/>
        <pt x="76" y="321" on="0"/>
        <pt x="88" y="399" on="1"/>
        <pt x="116" y="580" on="0"/>
        <pt x="255" y="740" on="0"/>
      </contour>
    </TTGlyph>
    <TTGlyph name="Cacute" xMin="75" yMin="-7" xMax="658" yMax="943">
      <contour>
        <pt x="405" y="800" on="1"/>
        <pt x="505" y="943" on="1"/>
        <pt x="650" y="943" on="1"/>
        <pt x="514" y="800" on="1"/>
      </contour>
      <contour>
        <pt x="400" y="740" on="1"/>
        <pt x="504" y="740" on="0"/>
        <pt x="594" y="725" on="0"/>
        <pt x="658" y="700" on="1"/>
        <pt x="634" y="549" on="1"/>
        <pt x="622" y="551" on="0"/>
        <pt x="612" y="552" on="1"/>
        <pt x="587" y="556" on="1"/>
        <pt x="517" y="566" on="0"/>
        <pt x="464" y="566" on="1"/>
        <pt x="404" y="566" on="1"/>
        <pt x="369" y="566" on="0"/>
        <pt x="350" y="552" on="0"/>
        <pt x="327" y="533" on="0"/>
        <pt x="316" y="505" on="0"/>
        <pt x="308" y="484" on="1"/>
        <pt x="295" y="449" on="0"/>
        <pt x="271" y="299" on="0"/>
        <pt x="271" y="222" on="0"/>
        <pt x="278" y="206" on="1"/>
        <pt x="295" y="168" on="0"/>
        <pt x="370" y="168" on="1"/>
        <pt x="474" y="168" on="0"/>
        <pt x="547" y="174" on="1"/>
        <pt x="575" y="177" on="1"/>
        <pt x="551" y="26" on="1"/>
        <pt x="500" y="6" on="0"/>
        <pt x="402" y="-6" on="0"/>
        <pt x="306" y="-6" on="0"/>
        <pt x="282" y="-6" on="1"/>
        <pt x="76" y="-3" on="0"/>
        <pt x="76" y="258" on="1"/>
        <pt x="76" y="321" on="0"/>
        <pt x="88" y="399" on="1"/>
        <pt x="116" y="580" on="0"/>
        <pt x="255" y="740" on="0"/>
      </contour>
    </TTGlyph>
    <TTGlyph name="Ccaron" xMin="75" yMin="-7" xMax="658" yMax="940">
      <contour>
        <pt x="326" y="940" on="1"/>
        <pt x="437" y="940" on="1"/>
        <pt x="472" y="889" on="1"/>
        <pt x="526" y="940" on="1"/>
        <pt x="648" y="940" on="1"/>
        <pt x="526" y="800" on="1"/>
        <pt x="400" y="800" on="1"/>
      </contour>
      <contour>
        <pt x="400" y="740" on="1"/>
        <pt x="504" y="740" on="0"/>
        <pt x="594" y="725" on="0"/>
        <pt x="658" y="700" on="1"/>
        <pt x="634" y="549" on="1"/>
        <pt x="622" y="551" on="0"/>
        <pt x="612" y="552" on="1"/>
        <pt x="587" y="556" on="1"/>
        <pt x="517" y="566" on="0"/>
        <pt x="464" y="566" on="1"/>
        <pt x="404" y="566" on="1"/>
        <pt x="369" y="566" on="0"/>
        <pt x="350" y="552" on="0"/>
        <pt x="327" y="533" on="0"/>
        <pt x="316" y="505" on="0"/>
        <pt x="308" y="484" on="1"/>
        <pt x="295" y="449" on="0"/>
        <pt x="271" y="299" on="0"/>
        <pt x="271" y="222" on="0"/>
        <pt x="278" y="206" on="1"/>
        <pt x="295" y="168" on="0"/>
        <pt x="370" y="168" on="1"/>
        <pt x="474" y="168" on="0"/>
        <pt x="547" y="174" on="1"/>
        <pt x="575" y="177" on="1"/>
        <pt x="551" y="26" on="1"/>
        <pt x="500" y="6" on="0"/>
        <pt x="402" y="-6" on="0"/>
        <pt x="306" y="-6" on="0"/>
        <pt x="282" y="-6" on="1"/>
        <pt x="76" y="-3" on="0"/>
        <pt x="76" y="258" on="1"/>
        <pt x="76" y="321" on="0"/>
        <pt x="88" y="399" on="1"/>
        <pt x="116" y="580" on="0"/>
        <pt x="255" y="740" on="0"/>
      </contour>
    </TTGlyph>
    <TTGlyph name="Ccedilla" xMin="75" yMin="-182" xMax="658" yMax="740">
      <contour>
        <pt x="400" y="740" on="1"/>
        <pt x="504" y="740" on="0"/>
        <pt x="594" y="725" on="0"/>
        <pt x="658" y="700" on="1"/>
        <pt x="634" y="549" on="1"/>
        <pt x="622" y="551" on="0"/>
        <pt x="612" y="552" on="1"/>
        <pt x="587" y="556" on="1"/>
        <pt x="517" y="566" on="0"/>
        <pt x="464" y="566" on="1"/>
        <pt x="404" y="566" on="1"/>
        <pt x="369" y="566" on="0"/>
        <pt x="350" y="552" on="0"/>
        <pt x="327" y="533" on="0"/>
        <pt x="316" y="505" on="0"/>
        <pt x="308" y="484" on="1"/>
        <pt x="295" y="449" on="0"/>
        <pt x="271" y="299" on="0"/>
        <pt x="271" y="222" on="0"/>
        <pt x="278" y="206" on="1"/>
        <pt x="295" y="168" on="0"/>
        <pt x="370" y="168" on="1"/>
        <pt x="474" y="168" on="0"/>
        <pt x="547" y="174" on="1"/>
        <pt x="575" y="177" on="1"/>
        <pt x="551" y="26" on="1"/>
        <pt x="500" y="6" on="0"/>
        <pt x="402" y="-6" on="0"/>
        <pt x="306" y="-6" on="0"/>
        <pt x="282" y="-6" on="1"/>
        <pt x="76" y="-3" on="0"/>
        <pt x="76" y="258" on="1"/>
        <pt x="76" y="321" on="0"/>
        <pt x="88" y="399" on="1"/>
        <pt x="116" y="580" on="0"/>
        <pt x="255" y="740" on="0"/>
      </contour>
      <contour>
        <pt x="226" y="-182" on="1"/>
        <pt x="165" y="-182" on="1"/>
        <pt x="178" y="-103" on="1"/>
        <pt x="217" y="-88" on="1"/>
        <pt x="239" y="-79" on="0"/>
        <pt x="249" y="-65" on="0"/>
        <pt x="254" y="-36" on="1"/>
        <pt x="371" y="-36" on="1"/>
        <pt x="359" y="-114" on="0"/>
        <pt x="294" y="-182" on="0"/>
      </contour>
    </TTGlyph>
    <TTGlyph name="Ccircumflex" xMin="75" yMin="-7" xMax="658" yMax="940">
      <contour>
        <pt x="279" y="800" on="1"/>
        <pt x="401" y="940" on="1"/>
        <pt x="532" y="940" on="1"/>
        <pt x="601" y="800" on="1"/>
        <pt x="490" y="800" on="1"/>
        <pt x="459" y="851" on="1"/>
        <pt x="401" y="800" on="1"/>
      </contour>
      <contour>
        <pt x="400" y="740" on="1"/>
        <pt x="504" y="740" on="0"/>
        <pt x="594" y="725" on="0"/>
        <pt x="658" y="700" on="1"/>
        <pt x="634" y="549" on="1"/>
        <pt x="622" y="551" on="0"/>
        <pt x="612" y="552" on="1"/>
        <pt x="587" y="556" on="1"/>
        <pt x="517" y="566" on="0"/>
        <pt x="464" y="566" on="1"/>
        <pt x="404" y="566" on="1"/>
        <pt x="369" y="566" on="0"/>
        <pt x="350" y="552" on="0"/>
        <pt x="327" y="533" on="0"/>
        <pt x="316" y="505" on="0"/>
        <pt x="308" y="484" on="1"/>
        <pt x="295" y="449" on="0"/>
        <pt x="271" y="299" on="0"/>
        <pt x="271" y="222" on="0"/>
        <pt x="278" y="206" on="1"/>
        <pt x="295" y="168" on="0"/>
        <pt x="370" y="168" on="1"/>
        <pt x="474" y="168" on="0"/>
        <pt x="547" y="174" on="1"/>
        <pt x="575" y="177" on="1"/>
        <pt x="551" y="26" on="1"/>
        <pt x="500" y="6" on="0"/>
        <pt x="402" y="-6" on="0"/>
        <pt x="306" y="-6" on="0"/>
        <pt x="282" y="-6" on="1"/>
        <pt x="76" y="-3" on="0"/>
        <pt x="76" y="258" on="1"/>
        <pt x="76" y="321" on="0"/>
        <pt x="88" y="399" on="1"/>
        <pt x="116" y="580" on="0"/>
        <pt x="255" y="740" on="0"/>
      </contour>
    </TTGlyph>
    <TTGlyph name="Cdotaccent" xMin="75" yMin="-7" xMax="658" yMax="942">
      <contour>
        <pt x="428" y="942" on="1"/>
        <pt x="518" y="942" on="1"/>
        <pt x="538" y="942" on="0"/>
        <pt x="538" y="924" on="1"/>
        <pt x="538" y="921" on="0"/>
        <pt x="537" y="917" on="1"/>
        <pt x="522" y="823" on="1"/>
        <pt x="519" y="800" on="0"/>
        <pt x="496" y="800" on="1"/>
        <pt x="406" y="800" on="1"/>
        <pt x="382" y="800" on="0"/>
        <pt x="385" y="823" on="1"/>
        <pt x="400" y="917" on="1"/>
        <pt x="403" y="942" on="0"/>
      </contour>
      <contour>
        <pt x="255" y="740" on="0"/>
        <pt x="400" y="740" on="1"/>
        <pt x="504" y="740" on="0"/>
        <pt x="594" y="725" on="0"/>
        <pt x="658" y="700" on="1"/>
        <pt x="634" y="549" on="1"/>
        <pt x="622" y="551" on="0"/>
        <pt x="612" y="552" on="1"/>
        <pt x="612" y="552" on="0"/>
        <pt x="587" y="556" on="1"/>
        <pt x="517" y="566" on="0"/>
        <pt x="464" y="566" on="1"/>
        <pt x="404" y="566" on="1"/>
        <pt x="369" y="566" on="0"/>
        <pt x="350" y="552" on="0"/>
        <pt x="327" y="533" on="0"/>
        <pt x="316" y="505" on="0"/>
        <pt x="308" y="484" on="1"/>
        <pt x="295" y="449" on="0"/>
        <pt x="271" y="299" on="0"/>
        <pt x="271" y="222" on="0"/>
        <pt x="278" y="206" on="1"/>
        <pt x="295" y="168" on="0"/>
        <pt x="370" y="168" on="1"/>
        <pt x="474" y="168" on="0"/>
        <pt x="547" y="174" on="1"/>
        <pt x="575" y="177" on="1"/>
        <pt x="551" y="26" on="1"/>
        <pt x="500" y="6" on="0"/>
        <pt x="402" y="-6" on="0"/>
        <pt x="306" y="-6" on="0"/>
        <pt x="282" y="-6" on="1"/>
        <pt x="76" y="-3" on="0"/>
        <pt x="76" y="258" on="1"/>
        <pt x="76" y="321" on="0"/>
        <pt x="88" y="399" on="1"/>
        <pt x="116" y="580" on="0"/>
      </contour>
    </TTGlyph>
    <TTGlyph name="D" xMin="45" yMin="0" xMax="686" yMax="732">
      <contour>
        <pt x="477" y="732" on="1"/>
        <pt x="685" y="732" on="0"/>
        <pt x="685" y="468" on="1"/>
        <pt x="685" y="408" on="0"/>
        <pt x="659" y="229" on="0"/>
        <pt x="611" y="97" on="0"/>
        <pt x="534" y="26" on="0"/>
        <pt x="445" y="0" on="0"/>
        <pt x="378" y="0" on="1"/>
        <pt x="45" y="0" on="1"/>
        <pt x="161" y="732" on="1"/>
      </contour>
      <contour>
        <pt x="369" y="164" on="1"/>
        <pt x="416" y="164" on="0"/>
        <pt x="464" y="255" on="0"/>
        <pt x="481" y="364" on="1"/>
        <pt x="493" y="428" on="0"/>
        <pt x="493" y="456" on="1"/>
        <pt x="493" y="536" on="0"/>
        <pt x="470" y="556" on="1"/>
        <pt x="455" y="568" on="0"/>
        <pt x="423" y="568" on="1"/>
        <pt x="329" y="568" on="1"/>
        <pt x="265" y="164" on="1"/>
      </contour>
    </TTGlyph>
    <TTGlyph name="Dcaron" xMin="45" yMin="0" xMax="686" yMax="937">
      <contour>
        <pt x="291" y="937" on="1"/>
        <pt x="402" y="937" on="1"/>
        <pt x="437" y="886" on="1"/>
        <pt x="491" y="937" on="1"/>
        <pt x="613" y="937" on="1"/>
        <pt x="491" y="797" on="1"/>
        <pt x="365" y="797" on="1"/>
      </contour>
      <contour>
        <pt x="477" y="732" on="1"/>
        <pt x="685" y="732" on="0"/>
        <pt x="685" y="468" on="1"/>
        <pt x="685" y="408" on="0"/>
        <pt x="659" y="229" on="0"/>
        <pt x="611" y="97" on="0"/>
        <pt x="534" y="26" on="0"/>
        <pt x="445" y="0" on="0"/>
        <pt x="378" y="0" on="1"/>
        <pt x="45" y="0" on="1"/>
        <pt x="161" y="732" on="1"/>
      </contour>
      <contour>
        <pt x="369" y="164" on="1"/>
        <pt x="416" y="164" on="0"/>
        <pt x="464" y="255" on="0"/>
        <pt x="481" y="364" on="1"/>
        <pt x="493" y="428" on="0"/>
        <pt x="493" y="456" on="1"/>
        <pt x="493" y="536" on="0"/>
        <pt x="470" y="556" on="1"/>
        <pt x="455" y="568" on="0"/>
        <pt x="423" y="568" on="1"/>
        <pt x="329" y="568" on="1"/>
        <pt x="265" y="164" on="1"/>
      </contour>
    </TTGlyph>
    <TTGlyph name="Dcroat" xMin="44" yMin="0" xMax="698" yMax="732">
      <contour>
        <pt x="495" y="732" on="1"/>
        <pt x="567" y="732" on="0"/>
        <pt x="660" y="666" on="0"/>
        <pt x="677" y="610" on="1"/>
        <pt x="698" y="544" on="0"/>
        <pt x="698" y="398" on="0"/>
        <pt x="685" y="333" on="1"/>
        <pt x="655" y="144" on="0"/>
        <pt x="527" y="0" on="0"/>
        <pt x="399" y="0" on="1"/>
        <pt x="56" y="0" on="1"/>
        <pt x="109" y="336" on="1"/>
        <pt x="44" y="336" on="1"/>
        <pt x="56" y="410" on="1"/>
        <pt x="121" y="410" on="1"/>
        <pt x="172" y="732" on="1"/>
      </contour>
      <contour>
        <pt x="385" y="164" on="1"/>
        <pt x="427" y="164" on="0"/>
        <pt x="474" y="256" on="0"/>
        <pt x="491" y="364" on="1"/>
        <pt x="504" y="434" on="0"/>
        <pt x="504" y="461" on="1"/>
        <pt x="504" y="537" on="0"/>
        <pt x="475" y="568" on="0"/>
        <pt x="449" y="568" on="1"/>
        <pt x="340" y="568" on="1"/>
        <pt x="315" y="410" on="1"/>
        <pt x="404" y="410" on="1"/>
        <pt x="392" y="336" on="1"/>
        <pt x="303" y="336" on="1"/>
        <pt x="276" y="164" on="1"/>
      </contour>
    </TTGlyph>
    <TTGlyph name="E" xMin="61" yMin="-4" xMax="644" yMax="732">
      <contour>
        <pt x="340" y="732" on="1"/>
        <pt x="529" y="732" on="0"/>
        <pt x="644" y="716" on="1"/>
        <pt x="618" y="553" on="1"/>
        <pt x="371" y="553" on="1"/>
        <pt x="325" y="553" on="0"/>
        <pt x="315" y="518" on="1"/>
        <pt x="313" y="511" on="0"/>
        <pt x="311" y="497" on="1"/>
        <pt x="305" y="457" on="1"/>
        <pt x="551" y="446" on="1"/>
        <pt x="525" y="285" on="1"/>
        <pt x="276" y="276" on="1"/>
        <pt x="268" y="228" on="1"/>
        <pt x="262" y="189" on="0"/>
        <pt x="282" y="182" on="1"/>
        <pt x="297" y="176" on="0"/>
        <pt x="322" y="176" on="1"/>
        <pt x="559" y="176" on="1"/>
        <pt x="533" y="14" on="1"/>
        <pt x="430" y="1" on="0"/>
        <pt x="284" y="-2" on="1"/>
        <pt x="233" y="-3" on="1"/>
        <pt x="229" y="-3" on="0"/>
        <pt x="197" y="-3" on="0"/>
        <pt x="170" y="3" on="1"/>
        <pt x="61" y="27" on="0"/>
        <pt x="61" y="135" on="1"/>
        <pt x="61" y="153" on="0"/>
        <pt x="64" y="173" on="1"/>
        <pt x="127" y="572" on="1"/>
        <pt x="143" y="674" on="0"/>
        <pt x="210" y="706" on="1"/>
        <pt x="263" y="732" on="0"/>
      </contour>
    </TTGlyph>
    <TTGlyph name="Eacute" xMin="61" yMin="-4" xMax="644" yMax="935">
      <contour>
        <pt x="368" y="792" on="1"/>
        <pt x="468" y="935" on="1"/>
        <pt x="613" y="935" on="1"/>
        <pt x="477" y="792" on="1"/>
      </contour>
      <contour>
        <pt x="340" y="732" on="1"/>
        <pt x="529" y="732" on="0"/>
        <pt x="644" y="716" on="1"/>
        <pt x="618" y="553" on="1"/>
        <pt x="371" y="553" on="1"/>
        <pt x="325" y="553" on="0"/>
        <pt x="315" y="518" on="1"/>
        <pt x="313" y="511" on="0"/>
        <pt x="311" y="497" on="1"/>
        <pt x="305" y="457" on="1"/>
        <pt x="551" y="446" on="1"/>
        <pt x="525" y="285" on="1"/>
        <pt x="276" y="276" on="1"/>
        <pt x="268" y="228" on="1"/>
        <pt x="262" y="189" on="0"/>
        <pt x="282" y="182" on="1"/>
        <pt x="297" y="176" on="0"/>
        <pt x="322" y="176" on="1"/>
        <pt x="559" y="176" on="1"/>
        <pt x="533" y="14" on="1"/>
        <pt x="430" y="1" on="0"/>
        <pt x="284" y="-2" on="1"/>
        <pt x="233" y="-3" on="1"/>
        <pt x="229" y="-3" on="0"/>
        <pt x="197" y="-3" on="0"/>
        <pt x="170" y="3" on="1"/>
        <pt x="61" y="27" on="0"/>
        <pt x="61" y="135" on="1"/>
        <pt x="61" y="153" on="0"/>
        <pt x="64" y="173" on="1"/>
        <pt x="127" y="572" on="1"/>
        <pt x="143" y="674" on="0"/>
        <pt x="210" y="706" on="1"/>
        <pt x="263" y="732" on="0"/>
      </contour>
    </TTGlyph>
    <TTGlyph name="Ecaron" xMin="61" yMin="-4" xMax="644" yMax="937">
      <contour>
        <pt x="280" y="937" on="1"/>
        <pt x="391" y="937" on="1"/>
        <pt x="426" y="886" on="1"/>
        <pt x="480" y="937" on="1"/>
        <pt x="602" y="937" on="1"/>
        <pt x="480" y="797" on="1"/>
        <pt x="354" y="797" on="1"/>
      </contour>
      <contour>
        <pt x="340" y="732" on="1"/>
        <pt x="529" y="732" on="0"/>
        <pt x="644" y="716" on="1"/>
        <pt x="618" y="553" on="1"/>
        <pt x="371" y="553" on="1"/>
        <pt x="325" y="553" on="0"/>
        <pt x="315" y="518" on="1"/>
        <pt x="313" y="511" on="0"/>
        <pt x="311" y="497" on="1"/>
        <pt x="305" y="457" on="1"/>
        <pt x="551" y="446" on="1"/>
        <pt x="525" y="285" on="1"/>
        <pt x="276" y="276" on="1"/>
        <pt x="268" y="228" on="1"/>
        <pt x="262" y="189" on="0"/>
        <pt x="282" y="182" on="1"/>
        <pt x="297" y="176" on="0"/>
        <pt x="322" y="176" on="1"/>
        <pt x="559" y="176" on="1"/>
        <pt x="533" y="14" on="1"/>
        <pt x="430" y="1" on="0"/>
        <pt x="284" y="-2" on="1"/>
        <pt x="233" y="-3" on="1"/>
        <pt x="229" y="-3" on="0"/>
        <pt x="197" y="-3" on="0"/>
        <pt x="170" y="3" on="1"/>
        <pt x="61" y="27" on="0"/>
        <pt x="61" y="135" on="1"/>
        <pt x="61" y="153" on="0"/>
        <pt x="64" y="173" on="1"/>
        <pt x="127" y="572" on="1"/>
        <pt x="143" y="674" on="0"/>
        <pt x="210" y="706" on="1"/>
        <pt x="263" y="732" on="0"/>
      </contour>
    </TTGlyph>
    <TTGlyph name="Ecircumflex" xMin="61" yMin="-4" xMax="644" yMax="932">
      <contour>
        <pt x="267" y="792" on="1"/>
        <pt x="389" y="932" on="1"/>
        <pt x="520" y="932" on="1"/>
        <pt x="589" y="792" on="1"/>
        <pt x="478" y="792" on="1"/>
        <pt x="447" y="843" on="1"/>
        <pt x="399" y="792" on="1"/>
      </contour>
      <contour>
        <pt x="340" y="732" on="1"/>
        <pt x="529" y="732" on="0"/>
        <pt x="644" y="716" on="1"/>
        <pt x="618" y="553" on="1"/>
        <pt x="371" y="553" on="1"/>
        <pt x="325" y="553" on="0"/>
        <pt x="315" y="518" on="1"/>
        <pt x="313" y="511" on="0"/>
        <pt x="311" y="497" on="1"/>
        <pt x="305" y="457" on="1"/>
        <pt x="551" y="446" on="1"/>
        <pt x="525" y="285" on="1"/>
        <pt x="276" y="276" on="1"/>
        <pt x="268" y="228" on="1"/>
        <pt x="262" y="189" on="0"/>
        <pt x="282" y="182" on="1"/>
        <pt x="297" y="176" on="0"/>
        <pt x="322" y="176" on="1"/>
        <pt x="559" y="176" on="1"/>
        <pt x="533" y="14" on="1"/>
        <pt x="430" y="1" on="0"/>
        <pt x="284" y="-2" on="1"/>
        <pt x="233" y="-3" on="1"/>
        <pt x="229" y="-3" on="0"/>
        <pt x="197" y="-3" on="0"/>
        <pt x="170" y="3" on="1"/>
        <pt x="61" y="27" on="0"/>
        <pt x="61" y="135" on="1"/>
        <pt x="61" y="153" on="0"/>
        <pt x="64" y="173" on="1"/>
        <pt x="127" y="572" on="1"/>
        <pt x="143" y="674" on="0"/>
        <pt x="210" y="706" on="1"/>
        <pt x="263" y="732" on="0"/>
      </contour>
    </TTGlyph>
    <TTGlyph name="Edieresis" xMin="61" yMin="-4" xMax="644" yMax="908">
      <contour>
        <pt x="280" y="908" on="0"/>
        <pt x="334" y="908" on="0"/>
        <pt x="363" y="874" on="0"/>
        <pt x="363" y="861" on="1"/>
        <pt x="363" y="821" on="0"/>
        <pt x="313" y="777" on="0"/>
        <pt x="259" y="777" on="0"/>
        <pt x="230" y="811" on="0"/>
        <pt x="230" y="824" on="1"/>
        <pt x="230" y="866" on="0"/>
      </contour>
      <contour>
        <pt x="535" y="908" on="0"/>
        <pt x="589" y="908" on="0"/>
        <pt x="618" y="874" on="0"/>
        <pt x="618" y="861" on="1"/>
        <pt x="618" y="821" on="0"/>
        <pt x="568" y="777" on="0"/>
        <pt x="514" y="777" on="0"/>
        <pt x="485" y="812" on="0"/>
        <pt x="485" y="825" on="1"/>
        <pt x="485" y="866" on="0"/>
      </contour>
      <contour>
        <pt x="340" y="732" on="1"/>
        <pt x="529" y="732" on="0"/>
        <pt x="644" y="716" on="1"/>
        <pt x="618" y="553" on="1"/>
        <pt x="371" y="553" on="1"/>
        <pt x="325" y="553" on="0"/>
        <pt x="315" y="518" on="1"/>
        <pt x="313" y="511" on="0"/>
        <pt x="311" y="497" on="1"/>
        <pt x="305" y="457" on="1"/>
        <pt x="551" y="446" on="1"/>
        <pt x="525" y="285" on="1"/>
        <pt x="276" y="276" on="1"/>
        <pt x="268" y="228" on="1"/>
        <pt x="262" y="189" on="0"/>
        <pt x="282" y="182" on="1"/>
        <pt x="297" y="176" on="0"/>
        <pt x="322" y="176" on="1"/>
        <pt x="559" y="176" on="1"/>
        <pt x="533" y="14" on="1"/>
        <pt x="430" y="1" on="0"/>
        <pt x="284" y="-2" on="1"/>
        <pt x="233" y="-3" on="1"/>
        <pt x="229" y="-3" on="0"/>
        <pt x="197" y="-3" on="0"/>
        <pt x="170" y="3" on="1"/>
        <pt x="61" y="27" on="0"/>
        <pt x="61" y="135" on="1"/>
        <pt x="61" y="153" on="0"/>
        <pt x="64" y="173" on="1"/>
        <pt x="127" y="572" on="1"/>
        <pt x="143" y="674" on="0"/>
        <pt x="210" y="706" on="1"/>
        <pt x="263" y="732" on="0"/>
      </contour>
    </TTGlyph>
    <TTGlyph name="Edotaccent" xMin="61" yMin="-4" xMax="644" yMax="939">
      <contour>
        <pt x="406" y="939" on="1"/>
        <pt x="496" y="939" on="1"/>
        <pt x="516" y="939" on="0"/>
        <pt x="516" y="921" on="1"/>
        <pt x="516" y="918" on="0"/>
        <pt x="515" y="914" on="1"/>
        <pt x="500" y="820" on="1"/>
        <pt x="497" y="797" on="0"/>
        <pt x="474" y="797" on="1"/>
        <pt x="384" y="797" on="1"/>
        <pt x="360" y="797" on="0"/>
        <pt x="363" y="820" on="1"/>
        <pt x="378" y="914" on="1"/>
        <pt x="381" y="939" on="0"/>
      </contour>
      <contour>
        <pt x="340" y="732" on="1"/>
        <pt x="529" y="732" on="0"/>
        <pt x="644" y="716" on="1"/>
        <pt x="618" y="553" on="1"/>
        <pt x="371" y="553" on="1"/>
        <pt x="325" y="553" on="0"/>
        <pt x="315" y="518" on="1"/>
        <pt x="313" y="511" on="0"/>
        <pt x="311" y="497" on="1"/>
        <pt x="305" y="457" on="1"/>
        <pt x="551" y="446" on="1"/>
        <pt x="525" y="285" on="1"/>
        <pt x="276" y="276" on="1"/>
        <pt x="268" y="228" on="1"/>
        <pt x="262" y="189" on="0"/>
        <pt x="282" y="182" on="1"/>
        <pt x="297" y="176" on="0"/>
        <pt x="322" y="176" on="1"/>
        <pt x="559" y="176" on="1"/>
        <pt x="533" y="14" on="1"/>
        <pt x="430" y="1" on="0"/>
        <pt x="284" y="-2" on="1"/>
        <pt x="233" y="-3" on="1"/>
        <pt x="229" y="-3" on="0"/>
        <pt x="197" y="-3" on="0"/>
        <pt x="170" y="3" on="1"/>
        <pt x="61" y="27" on="0"/>
        <pt x="61" y="135" on="1"/>
        <pt x="61" y="153" on="0"/>
        <pt x="64" y="173" on="1"/>
        <pt x="127" y="572" on="1"/>
        <pt x="143" y="674" on="0"/>
        <pt x="210" y="706" on="1"/>
        <pt x="263" y="732" on="0"/>
      </contour>
    </TTGlyph>
    <TTGlyph name="Egrave" xMin="61" yMin="-4" xMax="644" yMax="935">
      <contour>
        <pt x="271" y="935" on="1"/>
        <pt x="416" y="935" on="1"/>
        <pt x="470" y="792" on="1"/>
        <pt x="361" y="792" on="1"/>
      </contour>
      <contour>
        <pt x="340" y="732" on="1"/>
        <pt x="529" y="732" on="0"/>
        <pt x="644" y="716" on="1"/>
        <pt x="618" y="553" on="1"/>
        <pt x="371" y="553" on="1"/>
        <pt x="325" y="553" on="0"/>
        <pt x="315" y="518" on="1"/>
        <pt x="313" y="511" on="0"/>
        <pt x="311" y="497" on="1"/>
        <pt x="305" y="457" on="1"/>
        <pt x="551" y="446" on="1"/>
        <pt x="525" y="285" on="1"/>
        <pt x="276" y="276" on="1"/>
        <pt x="268" y="228" on="1"/>
        <pt x="262" y="189" on="0"/>
        <pt x="282" y="182" on="1"/>
        <pt x="297" y="176" on="0"/>
        <pt x="322" y="176" on="1"/>
        <pt x="559" y="176" on="1"/>
        <pt x="533" y="14" on="1"/>
        <pt x="430" y="1" on="0"/>
        <pt x="284" y="-2" on="1"/>
        <pt x="233" y="-3" on="1"/>
        <pt x="229" y="-3" on="0"/>
        <pt x="197" y="-3" on="0"/>
        <pt x="170" y="3" on="1"/>
        <pt x="61" y="27" on="0"/>
        <pt x="61" y="135" on="1"/>
        <pt x="61" y="153" on="0"/>
        <pt x="64" y="173" on="1"/>
        <pt x="127" y="572" on="1"/>
        <pt x="143" y="674" on="0"/>
        <pt x="210" y="706" on="1"/>
        <pt x="263" y="732" on="0"/>
      </contour>
    </TTGlyph>
    <TTGlyph name="Emacron" xMin="61" yMin="-4" xMax="644" yMax="885">
      <contour>
        <pt x="275" y="792" on="1"/>
        <pt x="290" y="885" on="1"/>
        <pt x="582" y="885" on="1"/>
        <pt x="567" y="792" on="1"/>
      </contour>
      <contour>
        <pt x="340" y="732" on="1"/>
        <pt x="529" y="732" on="0"/>
        <pt x="644" y="716" on="1"/>
        <pt x="618" y="553" on="1"/>
        <pt x="371" y="553" on="1"/>
        <pt x="325" y="553" on="0"/>
        <pt x="315" y="518" on="1"/>
        <pt x="313" y="511" on="0"/>
        <pt x="311" y="497" on="1"/>
        <pt x="305" y="457" on="1"/>
        <pt x="551" y="446" on="1"/>
        <pt x="525" y="285" on="1"/>
        <pt x="276" y="276" on="1"/>
        <pt x="268" y="228" on="1"/>
        <pt x="262" y="189" on="0"/>
        <pt x="282" y="182" on="1"/>
        <pt x="297" y="176" on="0"/>
        <pt x="322" y="176" on="1"/>
        <pt x="559" y="176" on="1"/>
        <pt x="533" y="14" on="1"/>
        <pt x="430" y="1" on="0"/>
        <pt x="284" y="-2" on="1"/>
        <pt x="233" y="-3" on="1"/>
        <pt x="229" y="-3" on="0"/>
        <pt x="197" y="-3" on="0"/>
        <pt x="170" y="3" on="1"/>
        <pt x="61" y="27" on="0"/>
        <pt x="61" y="135" on="1"/>
        <pt x="61" y="153" on="0"/>
        <pt x="64" y="173" on="1"/>
        <pt x="127" y="572" on="1"/>
        <pt x="143" y="674" on="0"/>
        <pt x="210" y="706" on="1"/>
        <pt x="263" y="732" on="0"/>
      </contour>
    </TTGlyph>
    <TTGlyph name="Eng" xMin="45" yMin="-261" xMax="760" yMax="732">
      <contour>
        <pt x="383" y="-261" on="1"/>
        <pt x="353" y="-261" on="0"/>
        <pt x="319" y="-257" on="1"/>
        <pt x="341" y="-120" on="1"/>
        <pt x="412" y="-120" on="0"/>
        <pt x="429" y="-94" on="1"/>
        <pt x="437" y="-81" on="0"/>
        <pt x="440" y="-60" on="1"/>
        <pt x="450" y="0" on="1"/>
        <pt x="298" y="364" on="1"/>
        <pt x="240" y="0" on="1"/>
        <pt x="45" y="0" on="1"/>
        <pt x="161" y="732" on="1"/>
        <pt x="357" y="732" on="1"/>
        <pt x="507" y="358" on="1"/>
        <pt x="566" y="732" on="1"/>
        <pt x="760" y="732" on="1"/>
        <pt x="634" y="-64" on="1"/>
        <pt x="602" y="-261" on="0"/>
      </contour>
    </TTGlyph>
    <TTGlyph name="Eogonek" xMin="61" yMin="-183" xMax="644" yMax="732">
      <contour>
        <pt x="387" y="-90" on="1"/>
        <pt x="387" y="-26" on="0"/>
        <pt x="463" y="14" on="1"/>
        <pt x="532" y="14" on="1"/>
        <pt x="483" y="-16" on="0"/>
        <pt x="483" y="-47" on="1"/>
        <pt x="483" y="-54" on="0"/>
        <pt x="486" y="-61" on="1"/>
        <pt x="494" y="-85" on="0"/>
        <pt x="520" y="-87" on="1"/>
        <pt x="525" y="-88" on="0"/>
        <pt x="529" y="-87" on="1"/>
        <pt x="515" y="-177" on="1"/>
        <pt x="497" y="-183" on="0"/>
        <pt x="450" y="-183" on="0"/>
        <pt x="387" y="-134" on="0"/>
      </contour>
      <contour>
        <pt x="340" y="732" on="1"/>
        <pt x="529" y="732" on="0"/>
        <pt x="644" y="716" on="1"/>
        <pt x="618" y="553" on="1"/>
        <pt x="371" y="553" on="1"/>
        <pt x="325" y="553" on="0"/>
        <pt x="315" y="518" on="1"/>
        <pt x="313" y="511" on="0"/>
        <pt x="311" y="497" on="1"/>
        <pt x="305" y="457" on="1"/>
        <pt x="551" y="446" on="1"/>
        <pt x="525" y="285" on="1"/>
        <pt x="276" y="276" on="1"/>
        <pt x="268" y="228" on="1"/>
        <pt x="262" y="189" on="0"/>
        <pt x="282" y="182" on="1"/>
        <pt x="297" y="176" on="0"/>
        <pt x="322" y="176" on="1"/>
        <pt x="559" y="176" on="1"/>
        <pt x="533" y="14" on="1"/>
        <pt x="430" y="1" on="0"/>
        <pt x="284" y="-2" on="1"/>
        <pt x="233" y="-3" on="1"/>
        <pt x="229" y="-3" on="0"/>
        <pt x="197" y="-3" on="0"/>
        <pt x="170" y="3" on="1"/>
        <pt x="61" y="27" on="0"/>
        <pt x="61" y="135" on="1"/>
        <pt x="61" y="153" on="0"/>
        <pt x="64" y="173" on="1"/>
        <pt x="127" y="572" on="1"/>
        <pt x="143" y="674" on="0"/>
        <pt x="210" y="706" on="1"/>
        <pt x="263" y="732" on="0"/>
      </contour>
    </TTGlyph>
    <TTGlyph name="Eth" xMin="33" yMin="0" xMax="687" yMax="732">
      <contour>
        <pt x="484" y="732" on="1"/>
        <pt x="556" y="732" on="0"/>
        <pt x="649" y="666" on="0"/>
        <pt x="666" y="610" on="1"/>
        <pt x="686" y="544" on="0"/>
        <pt x="686" y="398" on="0"/>
        <pt x="674" y="333" on="1"/>
        <pt x="644" y="144" on="0"/>
        <pt x="516" y="0" on="0"/>
        <pt x="388" y="0" on="1"/>
        <pt x="45" y="0" on="1"/>
        <pt x="98" y="336" on="1"/>
        <pt x="33" y="336" on="1"/>
        <pt x="45" y="410" on="1"/>
        <pt x="110" y="410" on="1"/>
        <pt x="161" y="732" on="1"/>
      </contour>
      <contour>
        <pt x="374" y="164" on="1"/>
        <pt x="416" y="164" on="0"/>
        <pt x="463" y="256" on="0"/>
        <pt x="480" y="364" on="1"/>
        <pt x="493" y="434" on="0"/>
        <pt x="493" y="461" on="1"/>
        <pt x="493" y="537" on="0"/>
        <pt x="464" y="568" on="0"/>
        <pt x="438" y="568" on="1"/>
        <pt x="329" y="568" on="1"/>
        <pt x="304" y="410" on="1"/>
        <pt x="393" y="410" on="1"/>
        <pt x="381" y="336" on="1"/>
        <pt x="292" y="336" on="1"/>
        <pt x="265" y="164" on="1"/>
      </contour>
    </TTGlyph>
    <TTGlyph name="Euro" xMin="45" yMin="-6" xMax="714" yMax="740">
      <contour>
        <pt x="445" y="740" on="1"/>
        <pt x="501" y="740" on="0"/>
        <pt x="661" y="721" on="0"/>
        <pt x="714" y="700" on="1"/>
        <pt x="692" y="561" on="1"/>
        <pt x="561" y="576" on="0"/>
        <pt x="434" y="576" on="0"/>
        <pt x="383" y="567" on="0"/>
        <pt x="357" y="537" on="0"/>
        <pt x="349" y="512" on="0"/>
        <pt x="344" y="480" on="1"/>
        <pt x="577" y="473" on="1"/>
        <pt x="563" y="387" on="1"/>
        <pt x="328" y="380" on="1"/>
        <pt x="322" y="339" on="1"/>
        <pt x="555" y="332" on="1"/>
        <pt x="541" y="245" on="1"/>
        <pt x="509" y="245" on="0"/>
        <pt x="305" y="239" on="0"/>
        <pt x="306" y="238" on="1"/>
        <pt x="304" y="226" on="0"/>
        <pt x="304" y="204" on="0"/>
        <pt x="312" y="176" on="0"/>
        <pt x="328" y="158" on="0"/>
        <pt x="346" y="154" on="1"/>
        <pt x="369" y="148" on="0"/>
        <pt x="410" y="148" on="1"/>
        <pt x="483" y="148" on="0"/>
        <pt x="598" y="168" on="1"/>
        <pt x="635" y="175" on="1"/>
        <pt x="613" y="39" on="1"/>
        <pt x="561" y="12" on="0"/>
        <pt x="430" y="-6" on="0"/>
        <pt x="297" y="-6" on="0"/>
        <pt x="244" y="1" on="0"/>
        <pt x="172" y="30" on="0"/>
        <pt x="126" y="79" on="0"/>
        <pt x="107" y="152" on="0"/>
        <pt x="107" y="209" on="0"/>
        <pt x="112" y="238" on="1"/>
        <pt x="45" y="245" on="1"/>
        <pt x="59" y="332" on="1"/>
        <pt x="128" y="339" on="1"/>
        <pt x="134" y="380" on="1"/>
        <pt x="68" y="388" on="1"/>
        <pt x="81" y="471" on="1"/>
        <pt x="150" y="480" on="1"/>
        <pt x="190" y="740" on="0"/>
      </contour>
    </TTGlyph>
    <TTGlyph name="Euro.smcp" xMin="39" yMin="-5" xMax="588" yMax="577">
      <contour>
        <pt x="191" y="543" on="0"/>
        <pt x="289" y="577" on="0"/>
        <pt x="466" y="577" on="0"/>
        <pt x="588" y="554" on="1"/>
        <pt x="566" y="412" on="1"/>
        <pt x="450" y="423" on="0"/>
        <pt x="365" y="423" on="0"/>
        <pt x="350" y="422" on="0"/>
        <pt x="325" y="415" on="0"/>
        <pt x="315" y="398" on="0"/>
        <pt x="312" y="382" on="1"/>
        <pt x="476" y="376" on="1"/>
        <pt x="464" y="300" on="1"/>
        <pt x="298" y="295" on="1"/>
        <pt x="295" y="276" on="1"/>
        <pt x="459" y="271" on="1"/>
        <pt x="447" y="194" on="1"/>
        <pt x="436" y="194" on="0"/>
        <pt x="402" y="193" on="0"/>
        <pt x="365" y="192" on="1"/>
        <pt x="279" y="190" on="0"/>
        <pt x="281" y="188" on="1"/>
        <pt x="282" y="181" on="0"/>
        <pt x="279" y="171" on="0"/>
        <pt x="287" y="163" on="0"/>
        <pt x="289" y="158" on="0"/>
        <pt x="301" y="154" on="0"/>
        <pt x="306" y="153" on="0"/>
        <pt x="320" y="152" on="0"/>
        <pt x="323" y="152" on="1"/>
        <pt x="333" y="152" on="0"/>
        <pt x="354" y="152" on="1"/>
        <pt x="416" y="152" on="0"/>
        <pt x="498" y="162" on="1"/>
        <pt x="529" y="165" on="1"/>
        <pt x="507" y="23" on="1"/>
        <pt x="446" y="-5" on="0"/>
        <pt x="268" y="-5" on="1"/>
        <pt x="189" y="-5" on="0"/>
        <pt x="134" y="33" on="1"/>
        <pt x="84" y="68" on="0"/>
        <pt x="84" y="151" on="1"/>
        <pt x="84" y="169" on="0"/>
        <pt x="86" y="188" on="1"/>
        <pt x="39" y="194" on="1"/>
        <pt x="51" y="271" on="1"/>
        <pt x="100" y="276" on="1"/>
        <pt x="103" y="295" on="1"/>
        <pt x="56" y="301" on="1"/>
        <pt x="68" y="375" on="1"/>
        <pt x="117" y="382" on="1"/>
        <pt x="123" y="422" on="0"/>
        <pt x="142" y="479" on="0"/>
      </contour>
    </TTGlyph>
    <TTGlyph name="F" xMin="40" yMin="0" xMax="646" yMax="732">
      <contour>
        <pt x="342" y="732" on="1"/>
        <pt x="531" y="732" on="0"/>
        <pt x="646" y="716" on="1"/>
        <pt x="621" y="553" on="1"/>
        <pt x="374" y="553" on="1"/>
        <pt x="326" y="553" on="0"/>
        <pt x="317" y="518" on="1"/>
        <pt x="315" y="510" on="0"/>
        <pt x="313" y="497" on="1"/>
        <pt x="306" y="453" on="1"/>
        <pt x="553" y="442" on="1"/>
        <pt x="528" y="281" on="1"/>
        <pt x="277" y="272" on="1"/>
        <pt x="234" y="0" on="1"/>
        <pt x="40" y="0" on="1"/>
        <pt x="127" y="552" on="1"/>
        <pt x="143" y="655" on="0"/>
        <pt x="210" y="696" on="1"/>
        <pt x="269" y="732" on="0"/>
      </contour>
    </TTGlyph>
    <TTGlyph name="G" xMin="74" yMin="-6" xMax="693" yMax="740">
      <contour>
        <pt x="221" y="704" on="0"/>
        <pt x="321" y="740" on="0"/>
        <pt x="513" y="740" on="0"/>
        <pt x="595" y="729" on="0"/>
        <pt x="693" y="701" on="1"/>
        <pt x="669" y="554" on="1"/>
        <pt x="668" y="554" on="0"/>
        <pt x="641" y="559" on="0"/>
        <pt x="595" y="565" on="0"/>
        <pt x="567" y="568" on="1"/>
        <pt x="492" y="576" on="0"/>
        <pt x="361" y="576" on="0"/>
        <pt x="307" y="493" on="0"/>
        <pt x="287" y="368" on="1"/>
        <pt x="272" y="279" on="0"/>
        <pt x="272" y="233" on="0"/>
        <pt x="273" y="204" on="0"/>
        <pt x="292" y="184" on="0"/>
        <pt x="322" y="173" on="0"/>
        <pt x="378" y="173" on="0"/>
        <pt x="417" y="196" on="0"/>
        <pt x="423" y="208" on="1"/>
        <pt x="429" y="219" on="1"/>
        <pt x="441" y="294" on="1"/>
        <pt x="392" y="294" on="1"/>
        <pt x="411" y="414" on="1"/>
        <pt x="462" y="439" on="0"/>
        <pt x="590" y="439" on="1"/>
        <pt x="622" y="439" on="0"/>
        <pt x="658" y="436" on="1"/>
        <pt x="588" y="0" on="1"/>
        <pt x="451" y="0" on="1"/>
        <pt x="404" y="49" on="1"/>
        <pt x="377" y="20" on="0"/>
        <pt x="353" y="10" on="1"/>
        <pt x="318" y="-6" on="0"/>
        <pt x="191" y="-6" on="0"/>
        <pt x="148" y="26" on="1"/>
        <pt x="74" y="80" on="0"/>
        <pt x="74" y="243" on="1"/>
        <pt x="74" y="318" on="0"/>
        <pt x="111" y="503" on="0"/>
        <pt x="152" y="619" on="0"/>
      </contour>
    </TTGlyph>
    <TTGlyph name="Gbreve" xMin="74" yMin="-6" xMax="693" yMax="912">
      <contour>
        <pt x="412" y="903" on="1"/>
        <pt x="412" y="865" on="0"/>
        <pt x="505" y="865" on="0"/>
        <pt x="508" y="912" on="1"/>
        <pt x="575" y="912" on="1"/>
        <pt x="570" y="860" on="0"/>
        <pt x="506" y="800" on="0"/>
        <pt x="401" y="800" on="0"/>
        <pt x="345" y="857" on="0"/>
        <pt x="345" y="900" on="1"/>
        <pt x="345" y="906" on="0"/>
        <pt x="345" y="912" on="1"/>
        <pt x="412" y="912" on="1"/>
        <pt x="412" y="907" on="0"/>
      </contour>
      <contour>
        <pt x="221" y="704" on="0"/>
        <pt x="321" y="740" on="0"/>
        <pt x="513" y="740" on="0"/>
        <pt x="595" y="729" on="0"/>
        <pt x="693" y="701" on="1"/>
        <pt x="669" y="554" on="1"/>
        <pt x="668" y="554" on="0"/>
        <pt x="641" y="559" on="0"/>
        <pt x="595" y="565" on="0"/>
        <pt x="567" y="568" on="1"/>
        <pt x="492" y="576" on="0"/>
        <pt x="361" y="576" on="0"/>
        <pt x="307" y="493" on="0"/>
        <pt x="287" y="368" on="1"/>
        <pt x="272" y="279" on="0"/>
        <pt x="272" y="233" on="0"/>
        <pt x="273" y="204" on="0"/>
        <pt x="292" y="184" on="0"/>
        <pt x="322" y="173" on="0"/>
        <pt x="378" y="173" on="0"/>
        <pt x="417" y="196" on="0"/>
        <pt x="423" y="208" on="1"/>
        <pt x="429" y="219" on="1"/>
        <pt x="441" y="294" on="1"/>
        <pt x="392" y="294" on="1"/>
        <pt x="411" y="414" on="1"/>
        <pt x="462" y="439" on="0"/>
        <pt x="590" y="439" on="1"/>
        <pt x="622" y="439" on="0"/>
        <pt x="658" y="436" on="1"/>
        <pt x="588" y="0" on="1"/>
        <pt x="451" y="0" on="1"/>
        <pt x="404" y="49" on="1"/>
        <pt x="377" y="20" on="0"/>
        <pt x="353" y="10" on="1"/>
        <pt x="318" y="-6" on="0"/>
        <pt x="191" y="-6" on="0"/>
        <pt x="148" y="26" on="1"/>
        <pt x="74" y="80" on="0"/>
        <pt x="74" y="243" on="1"/>
        <pt x="74" y="318" on="0"/>
        <pt x="111" y="503" on="0"/>
        <pt x="152" y="619" on="0"/>
      </contour>
    </TTGlyph>
    <TTGlyph name="Gcircumflex" xMin="74" yMin="-6" xMax="693" yMax="940">
      <contour>
        <pt x="283" y="800" on="1"/>
        <pt x="405" y="940" on="1"/>
        <pt x="536" y="940" on="1"/>
        <pt x="605" y="800" on="1"/>
        <pt x="494" y="800" on="1"/>
        <pt x="463" y="851" on="1"/>
        <pt x="405" y="800" on="1"/>
      </contour>
      <contour>
        <pt x="221" y="704" on="0"/>
        <pt x="321" y="740" on="0"/>
        <pt x="513" y="740" on="0"/>
        <pt x="595" y="729" on="0"/>
        <pt x="693" y="701" on="1"/>
        <pt x="669" y="554" on="1"/>
        <pt x="668" y="554" on="0"/>
        <pt x="641" y="559" on="0"/>
        <pt x="595" y="565" on="0"/>
        <pt x="567" y="568" on="1"/>
        <pt x="492" y="576" on="0"/>
        <pt x="361" y="576" on="0"/>
        <pt x="307" y="493" on="0"/>
        <pt x="287" y="368" on="1"/>
        <pt x="272" y="279" on="0"/>
        <pt x="272" y="233" on="0"/>
        <pt x="273" y="204" on="0"/>
        <pt x="292" y="184" on="0"/>
        <pt x="322" y="173" on="0"/>
        <pt x="378" y="173" on="0"/>
        <pt x="417" y="196" on="0"/>
        <pt x="423" y="208" on="1"/>
        <pt x="429" y="219" on="1"/>
        <pt x="441" y="294" on="1"/>
        <pt x="392" y="294" on="1"/>
        <pt x="411" y="414" on="1"/>
        <pt x="462" y="439" on="0"/>
        <pt x="590" y="439" on="1"/>
        <pt x="622" y="439" on="0"/>
        <pt x="658" y="436" on="1"/>
        <pt x="588" y="0" on="1"/>
        <pt x="451" y="0" on="1"/>
        <pt x="404" y="49" on="1"/>
        <pt x="377" y="20" on="0"/>
        <pt x="353" y="10" on="1"/>
        <pt x="318" y="-6" on="0"/>
        <pt x="191" y="-6" on="0"/>
        <pt x="148" y="26" on="1"/>
        <pt x="74" y="80" on="0"/>
        <pt x="74" y="243" on="1"/>
        <pt x="74" y="318" on="0"/>
        <pt x="111" y="503" on="0"/>
        <pt x="152" y="619" on="0"/>
      </contour>
    </TTGlyph>
    <TTGlyph name="Gcommaaccent" xMin="74" yMin="-297" xMax="693" yMax="740">
      <contour>
        <pt x="260" y="-210" on="1"/>
        <pt x="250" y="-210" on="0"/>
        <pt x="239" y="-198" on="0"/>
        <pt x="241" y="-188" on="1"/>
        <pt x="257" y="-85" on="1"/>
        <pt x="261" y="-61" on="0"/>
        <pt x="283" y="-61" on="1"/>
        <pt x="383" y="-61" on="1"/>
        <pt x="401" y="-61" on="0"/>
        <pt x="401" y="-79" on="1"/>
        <pt x="401" y="-82" on="0"/>
        <pt x="401" y="-85" on="1"/>
        <pt x="379" y="-220" on="1"/>
        <pt x="374" y="-251" on="0"/>
        <pt x="340" y="-288" on="0"/>
        <pt x="298" y="-297" on="0"/>
        <pt x="288" y="-297" on="1"/>
        <pt x="257" y="-297" on="0"/>
        <pt x="243" y="-293" on="1"/>
        <pt x="229" y="-289" on="1"/>
        <pt x="238" y="-233" on="1"/>
        <pt x="263" y="-234" on="0"/>
        <pt x="267" y="-220" on="1"/>
        <pt x="268" y="-218" on="0"/>
        <pt x="270" y="-210" on="1"/>
      </contour>
      <contour>
        <pt x="221" y="704" on="0"/>
        <pt x="321" y="740" on="0"/>
        <pt x="513" y="740" on="0"/>
        <pt x="595" y="729" on="0"/>
        <pt x="693" y="701" on="1"/>
        <pt x="669" y="554" on="1"/>
        <pt x="668" y="554" on="0"/>
        <pt x="641" y="559" on="0"/>
        <pt x="595" y="565" on="0"/>
        <pt x="567" y="568" on="1"/>
        <pt x="492" y="576" on="0"/>
        <pt x="361" y="576" on="0"/>
        <pt x="307" y="493" on="0"/>
        <pt x="287" y="368" on="1"/>
        <pt x="272" y="279" on="0"/>
        <pt x="272" y="233" on="0"/>
        <pt x="273" y="204" on="0"/>
        <pt x="292" y="184" on="0"/>
        <pt x="322" y="173" on="0"/>
        <pt x="378" y="173" on="0"/>
        <pt x="417" y="196" on="0"/>
        <pt x="423" y="208" on="1"/>
        <pt x="429" y="219" on="1"/>
        <pt x="441" y="294" on="1"/>
        <pt x="392" y="294" on="1"/>
        <pt x="411" y="414" on="1"/>
        <pt x="462" y="439" on="0"/>
        <pt x="590" y="439" on="1"/>
        <pt x="622" y="439" on="0"/>
        <pt x="658" y="436" on="1"/>
        <pt x="588" y="0" on="1"/>
        <pt x="451" y="0" on="1"/>
        <pt x="404" y="49" on="1"/>
        <pt x="377" y="20" on="0"/>
        <pt x="353" y="10" on="1"/>
        <pt x="318" y="-6" on="0"/>
        <pt x="191" y="-6" on="0"/>
        <pt x="148" y="26" on="1"/>
        <pt x="74" y="80" on="0"/>
        <pt x="74" y="243" on="1"/>
        <pt x="74" y="318" on="0"/>
        <pt x="111" y="503" on="0"/>
        <pt x="152" y="619" on="0"/>
      </contour>
    </TTGlyph>
    <TTGlyph name="Gdotaccent" xMin="74" yMin="-6" xMax="693" yMax="942">
      <contour>
        <pt x="425" y="942" on="1"/>
        <pt x="515" y="942" on="1"/>
        <pt x="535" y="942" on="0"/>
        <pt x="535" y="924" on="1"/>
        <pt x="535" y="921" on="0"/>
        <pt x="534" y="917" on="1"/>
        <pt x="519" y="823" on="1"/>
        <pt x="516" y="800" on="0"/>
        <pt x="493" y="800" on="1"/>
        <pt x="403" y="800" on="1"/>
        <pt x="379" y="800" on="0"/>
        <pt x="382" y="823" on="1"/>
        <pt x="397" y="917" on="1"/>
        <pt x="400" y="942" on="0"/>
      </contour>
      <contour>
        <pt x="221" y="704" on="0"/>
        <pt x="321" y="740" on="0"/>
        <pt x="513" y="740" on="0"/>
        <pt x="595" y="729" on="0"/>
        <pt x="693" y="701" on="1"/>
        <pt x="669" y="554" on="1"/>
        <pt x="668" y="554" on="0"/>
        <pt x="641" y="559" on="0"/>
        <pt x="595" y="565" on="0"/>
        <pt x="567" y="568" on="1"/>
        <pt x="492" y="576" on="0"/>
        <pt x="361" y="576" on="0"/>
        <pt x="307" y="493" on="0"/>
        <pt x="287" y="368" on="1"/>
        <pt x="272" y="279" on="0"/>
        <pt x="272" y="233" on="0"/>
        <pt x="273" y="204" on="0"/>
        <pt x="292" y="184" on="0"/>
        <pt x="322" y="173" on="0"/>
        <pt x="378" y="173" on="0"/>
        <pt x="417" y="196" on="0"/>
        <pt x="423" y="208" on="1"/>
        <pt x="429" y="219" on="1"/>
        <pt x="441" y="294" on="1"/>
        <pt x="392" y="294" on="1"/>
        <pt x="411" y="414" on="1"/>
        <pt x="462" y="439" on="0"/>
        <pt x="590" y="439" on="1"/>
        <pt x="622" y="439" on="0"/>
        <pt x="658" y="436" on="1"/>
        <pt x="588" y="0" on="1"/>
        <pt x="451" y="0" on="1"/>
        <pt x="404" y="49" on="1"/>
        <pt x="377" y="20" on="0"/>
        <pt x="353" y="10" on="1"/>
        <pt x="318" y="-6" on="0"/>
        <pt x="191" y="-6" on="0"/>
        <pt x="148" y="26" on="1"/>
        <pt x="74" y="80" on="0"/>
        <pt x="74" y="243" on="1"/>
        <pt x="74" y="318" on="0"/>
        <pt x="111" y="503" on="0"/>
        <pt x="152" y="619" on="0"/>
      </contour>
    </TTGlyph>
    <TTGlyph name="H" xMin="45" yMin="0" xMax="719" yMax="732">
      <contour>
        <pt x="45" y="0" on="1"/>
        <pt x="161" y="732" on="1"/>
        <pt x="355" y="732" on="1"/>
        <pt x="309" y="441" on="1"/>
        <pt x="479" y="441" on="1"/>
        <pt x="525" y="732" on="1"/>
        <pt x="719" y="732" on="1"/>
        <pt x="603" y="0" on="1"/>
        <pt x="409" y="0" on="1"/>
        <pt x="451" y="267" on="1"/>
        <pt x="281" y="267" on="1"/>
        <pt x="239" y="0" on="1"/>
      </contour>
    </TTGlyph>
    <TTGlyph name="Hbar" xMin="46" yMin="0" xMax="762" yMax="732">
      <contour>
        <pt x="46" y="0" on="1"/>
        <pt x="128" y="516" on="1"/>
        <pt x="63" y="516" on="1"/>
        <pt x="74" y="590" on="1"/>
        <pt x="139" y="590" on="1"/>
        <pt x="162" y="732" on="1"/>
        <pt x="356" y="732" on="1"/>
        <pt x="333" y="590" on="1"/>
        <pt x="503" y="590" on="1"/>
        <pt x="526" y="732" on="1"/>
        <pt x="720" y="732" on="1"/>
        <pt x="697" y="590" on="1"/>
        <pt x="762" y="590" on="1"/>
        <pt x="751" y="516" on="1"/>
        <pt x="686" y="516" on="1"/>
        <pt x="604" y="0" on="1"/>
        <pt x="410" y="0" on="1"/>
        <pt x="452" y="267" on="1"/>
        <pt x="282" y="267" on="1"/>
        <pt x="240" y="0" on="1"/>
      </contour>
      <contour>
        <pt x="310" y="441" on="1"/>
        <pt x="480" y="441" on="1"/>
        <pt x="492" y="516" on="1"/>
        <pt x="322" y="516" on="1"/>
      </contour>
    </TTGlyph>
    <TTGlyph name="Hcircumflex" xMin="45" yMin="0" xMax="719" yMax="937">
      <contour>
        <pt x="289" y="797" on="1"/>
        <pt x="411" y="937" on="1"/>
        <pt x="542" y="937" on="1"/>
        <pt x="611" y="797" on="1"/>
        <pt x="500" y="797" on="1"/>
        <pt x="469" y="848" on="1"/>
        <pt x="411" y="797" on="1"/>
      </contour>
      <contour>
        <pt x="45" y="0" on="1"/>
        <pt x="161" y="732" on="1"/>
        <pt x="355" y="732" on="1"/>
        <pt x="309" y="441" on="1"/>
        <pt x="479" y="441" on="1"/>
        <pt x="525" y="732" on="1"/>
        <pt x="719" y="732" on="1"/>
        <pt x="603" y="0" on="1"/>
        <pt x="409" y="0" on="1"/>
        <pt x="451" y="267" on="1"/>
        <pt x="281" y="267" on="1"/>
        <pt x="239" y="0" on="1"/>
      </contour>
    </TTGlyph>
    <TTGlyph name="I" xMin="45" yMin="0" xMax="355" yMax="732">
      <contour>
        <pt x="45" y="0" on="1"/>
        <pt x="161" y="732" on="1"/>
        <pt x="355" y="732" on="1"/>
        <pt x="239" y="0" on="1"/>
      </contour>
    </TTGlyph>
    <TTGlyph name="Iacute" xMin="45" yMin="0" xMax="459" yMax="940">
      <contour>
        <pt x="214" y="797" on="1"/>
        <pt x="314" y="940" on="1"/>
        <pt x="459" y="940" on="1"/>
        <pt x="323" y="797" on="1"/>
      </contour>
      <contour>
        <pt x="45" y="0" on="1"/>
        <pt x="161" y="732" on="1"/>
        <pt x="355" y="732" on="1"/>
        <pt x="239" y="0" on="1"/>
      </contour>
    </TTGlyph>
    <TTGlyph name="Icircumflex" xMin="45" yMin="0" xMax="429" yMax="937">
      <contour>
        <pt x="107" y="797" on="1"/>
        <pt x="229" y="937" on="1"/>
        <pt x="360" y="937" on="1"/>
        <pt x="429" y="797" on="1"/>
        <pt x="318" y="797" on="1"/>
        <pt x="287" y="848" on="1"/>
        <pt x="229" y="797" on="1"/>
      </contour>
      <contour>
        <pt x="45" y="0" on="1"/>
        <pt x="161" y="732" on="1"/>
        <pt x="355" y="732" on="1"/>
        <pt x="239" y="0" on="1"/>
      </contour>
    </TTGlyph>
    <TTGlyph name="Idieresis" xMin="45" yMin="0" xMax="473" yMax="928">
      <contour>
        <pt x="135" y="928" on="0"/>
        <pt x="189" y="928" on="0"/>
        <pt x="218" y="894" on="0"/>
        <pt x="218" y="881" on="1"/>
        <pt x="218" y="841" on="0"/>
        <pt x="168" y="797" on="0"/>
        <pt x="114" y="797" on="0"/>
        <pt x="85" y="831" on="0"/>
        <pt x="85" y="844" on="1"/>
        <pt x="85" y="886" on="0"/>
      </contour>
      <contour>
        <pt x="390" y="928" on="0"/>
        <pt x="444" y="928" on="0"/>
        <pt x="473" y="894" on="0"/>
        <pt x="473" y="881" on="1"/>
        <pt x="473" y="841" on="0"/>
        <pt x="423" y="797" on="0"/>
        <pt x="369" y="797" on="0"/>
        <pt x="340" y="831" on="0"/>
        <pt x="340" y="844" on="1"/>
        <pt x="340" y="886" on="0"/>
      </contour>
      <contour>
        <pt x="45" y="0" on="1"/>
        <pt x="161" y="732" on="1"/>
        <pt x="355" y="732" on="1"/>
        <pt x="239" y="0" on="1"/>
      </contour>
    </TTGlyph>
    <TTGlyph name="Idotaccent" xMin="45" yMin="0" xMax="356" yMax="939">
      <contour>
        <pt x="246" y="939" on="1"/>
        <pt x="336" y="939" on="1"/>
        <pt x="356" y="939" on="0"/>
        <pt x="356" y="921" on="1"/>
        <pt x="356" y="918" on="0"/>
        <pt x="355" y="914" on="1"/>
        <pt x="340" y="820" on="1"/>
        <pt x="337" y="797" on="0"/>
        <pt x="314" y="797" on="1"/>
        <pt x="224" y="797" on="1"/>
        <pt x="200" y="797" on="0"/>
        <pt x="203" y="820" on="1"/>
        <pt x="218" y="914" on="1"/>
        <pt x="221" y="939" on="0"/>
      </contour>
      <contour>
        <pt x="45" y="0" on="1"/>
        <pt x="161" y="732" on="1"/>
        <pt x="355" y="732" on="1"/>
        <pt x="239" y="0" on="1"/>
      </contour>
    </TTGlyph>
    <TTGlyph name="Idotaccent.smcp" xMin="29" yMin="0" xMax="313" yMax="754">
      <contour>
        <pt x="29" y="0" on="1"/>
        <pt x="119" y="570" on="1"/>
        <pt x="313" y="570" on="1"/>
        <pt x="223" y="0" on="1"/>
      </contour>
      <contour>
        <pt x="202" y="754" on="1"/>
        <pt x="292" y="754" on="1"/>
        <pt x="312" y="754" on="0"/>
        <pt x="312" y="736" on="1"/>
        <pt x="312" y="733" on="0"/>
        <pt x="311" y="729" on="1"/>
        <pt x="296" y="635" on="1"/>
        <pt x="293" y="612" on="0"/>
        <pt x="270" y="612" on="1"/>
        <pt x="180" y="612" on="1"/>
        <pt x="156" y="612" on="0"/>
        <pt x="159" y="635" on="1"/>
        <pt x="174" y="729" on="1"/>
        <pt x="177" y="754" on="0"/>
      </contour>
    </TTGlyph>
    <TTGlyph name="Igrave" xMin="45" yMin="0" xMax="355" yMax="940">
      <contour>
        <pt x="124" y="940" on="1"/>
        <pt x="269" y="940" on="1"/>
        <pt x="323" y="797" on="1"/>
        <pt x="214" y="797" on="1"/>
      </contour>
      <contour>
        <pt x="45" y="0" on="1"/>
        <pt x="161" y="732" on="1"/>
        <pt x="355" y="732" on="1"/>
        <pt x="239" y="0" on="1"/>
      </contour>
    </TTGlyph>
    <TTGlyph name="Imacron" xMin="45" yMin="0" xMax="429" yMax="890">
      <contour>
        <pt x="122" y="797" on="1"/>
        <pt x="137" y="890" on="1"/>
        <pt x="429" y="890" on="1"/>
        <pt x="414" y="797" on="1"/>
      </contour>
      <contour>
        <pt x="45" y="0" on="1"/>
        <pt x="161" y="732" on="1"/>
        <pt x="355" y="732" on="1"/>
        <pt x="239" y="0" on="1"/>
      </contour>
    </TTGlyph>
    <TTGlyph name="Iogonek" xMin="39" yMin="-195" xMax="355" yMax="732">
      <contour>
        <pt x="136" y="-60" on="1"/>
        <pt x="136" y="-67" on="0"/>
        <pt x="138" y="-74" on="1"/>
        <pt x="147" y="-98" on="0"/>
        <pt x="173" y="-100" on="1"/>
        <pt x="177" y="-101" on="0"/>
        <pt x="181" y="-100" on="1"/>
        <pt x="167" y="-190" on="1"/>
        <pt x="152" y="-194" on="0"/>
        <pt x="122" y="-194" on="0"/>
        <pt x="79" y="-183" on="0"/>
        <pt x="62" y="-160" on="1"/>
        <pt x="39" y="-128" on="0"/>
        <pt x="39" y="-76" on="0"/>
        <pt x="74" y="-21" on="0"/>
        <pt x="116" y="1" on="1"/>
        <pt x="184" y="1" on="1"/>
        <pt x="136" y="-29" on="0"/>
      </contour>
      <contour>
        <pt x="45" y="0" on="1"/>
        <pt x="161" y="732" on="1"/>
        <pt x="355" y="732" on="1"/>
        <pt x="239" y="0" on="1"/>
      </contour>
    </TTGlyph>
    <TTGlyph name="Itilde" xMin="45" yMin="0" xMax="454" yMax="943">
      <contour>
        <pt x="240" y="938" on="1"/>
        <pt x="262" y="938" on="0"/>
        <pt x="320" y="903" on="0"/>
        <pt x="340" y="903" on="1"/>
        <pt x="343" y="903" on="0"/>
        <pt x="347" y="903" on="1"/>
        <pt x="395" y="903" on="0"/>
        <pt x="440" y="943" on="1"/>
        <pt x="454" y="869" on="1"/>
        <pt x="395" y="797" on="0"/>
        <pt x="330" y="797" on="1"/>
        <pt x="308" y="797" on="0"/>
        <pt x="239" y="832" on="0"/>
        <pt x="220" y="832" on="1"/>
        <pt x="172" y="832" on="0"/>
        <pt x="121" y="797" on="1"/>
        <pt x="105" y="864" on="1"/>
        <pt x="169" y="938" on="0"/>
      </contour>
      <contour>
        <pt x="45" y="0" on="1"/>
        <pt x="161" y="732" on="1"/>
        <pt x="355" y="732" on="1"/>
        <pt x="239" y="0" on="1"/>
      </contour>
    </TTGlyph>
    <TTGlyph name="J" xMin="23" yMin="-5" xMax="437" yMax="732">
      <contour>
        <pt x="23" y="25" on="1"/>
        <pt x="47" y="179" on="1"/>
        <pt x="139" y="179" on="0"/>
        <pt x="156" y="215" on="1"/>
        <pt x="164" y="232" on="0"/>
        <pt x="171" y="276" on="1"/>
        <pt x="243" y="732" on="1"/>
        <pt x="437" y="732" on="1"/>
        <pt x="347" y="165" on="1"/>
        <pt x="330" y="53" on="0"/>
        <pt x="270" y="18" on="1"/>
        <pt x="231" y="-4" on="0"/>
        <pt x="64" y="-4" on="0"/>
      </contour>
    </TTGlyph>
    <TTGlyph name="Jcircumflex" xMin="23" yMin="-5" xMax="511" yMax="937">
      <contour>
        <pt x="189" y="797" on="1"/>
        <pt x="311" y="937" on="1"/>
        <pt x="442" y="937" on="1"/>
        <pt x="511" y="797" on="1"/>
        <pt x="400" y="797" on="1"/>
        <pt x="369" y="848" on="1"/>
        <pt x="311" y="797" on="1"/>
      </contour>
      <contour>
        <pt x="23" y="25" on="1"/>
        <pt x="47" y="179" on="1"/>
        <pt x="139" y="179" on="0"/>
        <pt x="156" y="215" on="1"/>
        <pt x="164" y="232" on="0"/>
        <pt x="171" y="276" on="1"/>
        <pt x="243" y="732" on="1"/>
        <pt x="437" y="732" on="1"/>
        <pt x="347" y="165" on="1"/>
        <pt x="330" y="53" on="0"/>
        <pt x="270" y="18" on="1"/>
        <pt x="231" y="-4" on="0"/>
        <pt x="64" y="-4" on="0"/>
      </contour>
    </TTGlyph>
    <TTGlyph name="K" xMin="45" yMin="0" xMax="757" yMax="732">
      <contour>
        <pt x="45" y="0" on="1"/>
        <pt x="161" y="732" on="1"/>
        <pt x="345" y="732" on="1"/>
        <pt x="299" y="444" on="1"/>
        <pt x="329" y="444" on="1"/>
        <pt x="524" y="732" on="1"/>
        <pt x="757" y="732" on="1"/>
        <pt x="498" y="349" on="1"/>
        <pt x="641" y="0" on="1"/>
        <pt x="423" y="0" on="1"/>
        <pt x="323" y="280" on="1"/>
        <pt x="274" y="280" on="1"/>
        <pt x="230" y="0" on="1"/>
      </contour>
    </TTGlyph>
    <TTGlyph name="Kcommaaccent" xMin="45" yMin="-292" xMax="757" yMax="732">
      <contour>
        <pt x="247" y="-205" on="1"/>
        <pt x="237" y="-205" on="0"/>
        <pt x="226" y="-193" on="0"/>
        <pt x="228" y="-182" on="1"/>
        <pt x="244" y="-80" on="1"/>
        <pt x="248" y="-56" on="0"/>
        <pt x="270" y="-56" on="1"/>
        <pt x="370" y="-56" on="1"/>
        <pt x="388" y="-56" on="0"/>
        <pt x="388" y="-74" on="1"/>
        <pt x="388" y="-77" on="0"/>
        <pt x="388" y="-80" on="1"/>
        <pt x="366" y="-215" on="1"/>
        <pt x="361" y="-246" on="0"/>
        <pt x="327" y="-283" on="0"/>
        <pt x="285" y="-292" on="0"/>
        <pt x="275" y="-292" on="1"/>
        <pt x="244" y="-292" on="0"/>
        <pt x="230" y="-288" on="1"/>
        <pt x="216" y="-284" on="1"/>
        <pt x="225" y="-228" on="1"/>
        <pt x="244" y="-229" on="0"/>
        <pt x="249" y="-224" on="1"/>
        <pt x="254" y="-218" on="0"/>
        <pt x="257" y="-205" on="1"/>
      </contour>
      <contour>
        <pt x="45" y="0" on="1"/>
        <pt x="161" y="732" on="1"/>
        <pt x="345" y="732" on="1"/>
        <pt x="299" y="444" on="1"/>
        <pt x="329" y="444" on="1"/>
        <pt x="524" y="732" on="1"/>
        <pt x="757" y="732" on="1"/>
        <pt x="498" y="349" on="1"/>
        <pt x="641" y="0" on="1"/>
        <pt x="423" y="0" on="1"/>
        <pt x="323" y="280" on="1"/>
        <pt x="274" y="280" on="1"/>
        <pt x="230" y="0" on="1"/>
      </contour>
    </TTGlyph>
    <TTGlyph name="L" xMin="65" yMin="0" xMax="534" yMax="732">
      <contour>
        <pt x="328" y="174" on="1"/>
        <pt x="534" y="174" on="1"/>
        <pt x="506" y="0" on="1"/>
        <pt x="210" y="0" on="1"/>
        <pt x="136" y="0" on="0"/>
        <pt x="96" y="38" on="1"/>
        <pt x="66" y="67" on="0"/>
        <pt x="66" y="119" on="1"/>
        <pt x="66" y="136" on="0"/>
        <pt x="69" y="156" on="1"/>
        <pt x="160" y="732" on="1"/>
        <pt x="354" y="732" on="1"/>
        <pt x="274" y="226" on="1"/>
        <pt x="268" y="187" on="0"/>
        <pt x="288" y="180" on="1"/>
        <pt x="303" y="174" on="0"/>
      </contour>
    </TTGlyph>
    <TTGlyph name="Lacute" xMin="24" yMin="0" xMax="493" yMax="935">
      <contour>
        <pt x="163" y="792" on="1"/>
        <pt x="263" y="935" on="1"/>
        <pt x="408" y="935" on="1"/>
        <pt x="272" y="792" on="1"/>
      </contour>
      <contour>
        <pt x="287" y="174" on="1"/>
        <pt x="493" y="174" on="1"/>
        <pt x="465" y="0" on="1"/>
        <pt x="169" y="0" on="1"/>
        <pt x="95" y="0" on="0"/>
        <pt x="55" y="38" on="1"/>
        <pt x="25" y="67" on="0"/>
        <pt x="25" y="119" on="1"/>
        <pt x="25" y="136" on="0"/>
        <pt x="28" y="156" on="1"/>
        <pt x="119" y="732" on="1"/>
        <pt x="313" y="732" on="1"/>
        <pt x="233" y="226" on="1"/>
        <pt x="227" y="187" on="0"/>
        <pt x="246" y="180" on="1"/>
        <pt x="262" y="174" on="0"/>
      </contour>
    </TTGlyph>
    <TTGlyph name="Lcaron" xMin="65" yMin="0" xMax="534" yMax="772">
      <contour>
        <pt x="328" y="174" on="1"/>
        <pt x="534" y="174" on="1"/>
        <pt x="506" y="0" on="1"/>
        <pt x="210" y="0" on="1"/>
        <pt x="136" y="0" on="0"/>
        <pt x="96" y="38" on="1"/>
        <pt x="66" y="67" on="0"/>
        <pt x="66" y="119" on="1"/>
        <pt x="66" y="136" on="0"/>
        <pt x="69" y="156" on="1"/>
        <pt x="160" y="732" on="1"/>
        <pt x="354" y="732" on="1"/>
        <pt x="274" y="226" on="1"/>
        <pt x="268" y="187" on="0"/>
        <pt x="288" y="180" on="1"/>
        <pt x="303" y="174" on="0"/>
      </contour>
      <contour>
        <pt x="390" y="571" on="1"/>
        <pt x="400" y="705" on="1"/>
        <pt x="410" y="772" on="1"/>
        <pt x="524" y="772" on="1"/>
        <pt x="514" y="705" on="1"/>
        <pt x="483" y="571" on="1"/>
      </contour>
    </TTGlyph>
    <TTGlyph name="Lcommaaccent" xMin="65" yMin="-292" xMax="534" yMax="732">
      <contour>
        <pt x="208" y="-205" on="1"/>
        <pt x="198" y="-205" on="0"/>
        <pt x="187" y="-193" on="0"/>
        <pt x="189" y="-182" on="1"/>
        <pt x="205" y="-80" on="1"/>
        <pt x="209" y="-56" on="0"/>
        <pt x="231" y="-56" on="1"/>
        <pt x="331" y="-56" on="1"/>
        <pt x="349" y="-56" on="0"/>
        <pt x="349" y="-74" on="1"/>
        <pt x="349" y="-77" on="0"/>
        <pt x="349" y="-80" on="1"/>
        <pt x="327" y="-215" on="1"/>
        <pt x="322" y="-246" on="0"/>
        <pt x="288" y="-283" on="0"/>
        <pt x="246" y="-292" on="0"/>
        <pt x="236" y="-292" on="1"/>
        <pt x="205" y="-292" on="0"/>
        <pt x="191" y="-288" on="1"/>
        <pt x="177" y="-284" on="1"/>
        <pt x="186" y="-228" on="1"/>
        <pt x="205" y="-229" on="0"/>
        <pt x="210" y="-224" on="1"/>
        <pt x="215" y="-218" on="0"/>
        <pt x="218" y="-205" on="1"/>
      </contour>
      <contour>
        <pt x="328" y="174" on="1"/>
        <pt x="534" y="174" on="1"/>
        <pt x="506" y="0" on="1"/>
        <pt x="210" y="0" on="1"/>
        <pt x="136" y="0" on="0"/>
        <pt x="96" y="38" on="1"/>
        <pt x="66" y="67" on="0"/>
        <pt x="66" y="119" on="1"/>
        <pt x="66" y="136" on="0"/>
        <pt x="69" y="156" on="1"/>
        <pt x="160" y="732" on="1"/>
        <pt x="354" y="732" on="1"/>
        <pt x="274" y="226" on="1"/>
        <pt x="268" y="187" on="0"/>
        <pt x="288" y="180" on="1"/>
        <pt x="303" y="174" on="0"/>
      </contour>
    </TTGlyph>
    <TTGlyph name="Lslash" xMin="18" yMin="0" xMax="535" yMax="732">
      <contour>
        <pt x="329" y="174" on="1"/>
        <pt x="535" y="174" on="1"/>
        <pt x="508" y="0" on="1"/>
        <pt x="212" y="0" on="1"/>
        <pt x="138" y="0" on="0"/>
        <pt x="98" y="38" on="1"/>
        <pt x="67" y="67" on="0"/>
        <pt x="67" y="120" on="1"/>
        <pt x="67" y="137" on="0"/>
        <pt x="70" y="156" on="1"/>
        <pt x="97" y="324" on="1"/>
        <pt x="18" y="293" on="1"/>
        <pt x="31" y="374" on="1"/>
        <pt x="110" y="405" on="1"/>
        <pt x="161" y="732" on="1"/>
        <pt x="355" y="732" on="1"/>
        <pt x="317" y="488" on="1"/>
        <pt x="413" y="526" on="1"/>
        <pt x="400" y="445" on="1"/>
        <pt x="304" y="407" on="1"/>
        <pt x="275" y="226" on="1"/>
        <pt x="269" y="187" on="0"/>
        <pt x="288" y="180" on="1"/>
        <pt x="304" y="174" on="0"/>
      </contour>
    </TTGlyph>
    <TTGlyph name="M" xMin="31" yMin="0" xMax="893" yMax="732">
      <contour>
        <pt x="31" y="0" on="1"/>
        <pt x="225" y="732" on="1"/>
        <pt x="495" y="732" on="1"/>
        <pt x="492" y="321" on="1"/>
        <pt x="618" y="732" on="1"/>
        <pt x="893" y="732" on="1"/>
        <pt x="856" y="0" on="1"/>
        <pt x="665" y="0" on="1"/>
        <pt x="685" y="399" on="1"/>
        <pt x="559" y="0" on="1"/>
        <pt x="332" y="0" on="1"/>
        <pt x="331" y="399" on="1"/>
        <pt x="227" y="0" on="1"/>
      </contour>
    </TTGlyph>
    <TTGlyph name="M.salt" xMin="31" yMin="0" xMax="939" yMax="737">
      <contour>
        <pt x="271" y="721" on="1"/>
        <pt x="316" y="737" on="0"/>
        <pt x="408" y="737" on="0"/>
        <pt x="454" y="714" on="1"/>
        <pt x="525" y="680" on="0"/>
        <pt x="525" y="606" on="1"/>
        <pt x="525" y="592" on="0"/>
        <pt x="523" y="578" on="1"/>
        <pt x="485" y="340" on="1"/>
        <pt x="483" y="326" on="0"/>
        <pt x="498" y="326" on="1"/>
        <pt x="514" y="327" on="0"/>
        <pt x="516" y="340" on="1"/>
        <pt x="554" y="582" on="1"/>
        <pt x="568" y="672" on="0"/>
        <pt x="665" y="713" on="1"/>
        <pt x="718" y="736" on="0"/>
        <pt x="805" y="736" on="0"/>
        <pt x="838" y="728" on="1"/>
        <pt x="920" y="707" on="0"/>
        <pt x="936" y="647" on="1"/>
        <pt x="939" y="636" on="0"/>
        <pt x="939" y="618" on="0"/>
        <pt x="938" y="612" on="1"/>
        <pt x="876" y="0" on="1"/>
        <pt x="680" y="0" on="1"/>
        <pt x="740" y="498" on="1"/>
        <pt x="741" y="508" on="0"/>
        <pt x="732" y="508" on="1"/>
        <pt x="716" y="508" on="0"/>
        <pt x="713" y="492" on="1"/>
        <pt x="675" y="270" on="1"/>
        <pt x="658" y="198" on="0"/>
        <pt x="565" y="167" on="1"/>
        <pt x="518" y="151" on="0"/>
        <pt x="429" y="151" on="0"/>
        <pt x="388" y="166" on="1"/>
        <pt x="310" y="194" on="0"/>
        <pt x="310" y="261" on="1"/>
        <pt x="310" y="267" on="0"/>
        <pt x="311" y="273" on="1"/>
        <pt x="344" y="503" on="1"/>
        <pt x="345" y="513" on="0"/>
        <pt x="336" y="513" on="1"/>
        <pt x="320" y="512" on="0"/>
        <pt x="317" y="496" on="1"/>
        <pt x="224" y="0" on="1"/>
        <pt x="31" y="0" on="1"/>
        <pt x="155" y="600" on="1"/>
        <pt x="173" y="687" on="0"/>
      </contour>
    </TTGlyph>
    <TTGlyph name="N" xMin="45" yMin="0" xMax="760" yMax="732">
      <contour>
        <pt x="45" y="0" on="1"/>
        <pt x="161" y="732" on="1"/>
        <pt x="357" y="732" on="1"/>
        <pt x="507" y="353" on="1"/>
        <pt x="566" y="732" on="1"/>
        <pt x="760" y="732" on="1"/>
        <pt x="644" y="0" on="1"/>
        <pt x="450" y="0" on="1"/>
        <pt x="298" y="369" on="1"/>
        <pt x="240" y="0" on="1"/>
      </contour>
    </TTGlyph>
    <TTGlyph name="N.salt" xMin="45" yMin="-4" xMax="826" yMax="745">
      <contour>
        <pt x="256" y="726" on="1"/>
        <pt x="305" y="744" on="0"/>
        <pt x="404" y="744" on="0"/>
        <pt x="454" y="722" on="1"/>
        <pt x="543" y="681" on="0"/>
        <pt x="543" y="593" on="1"/>
        <pt x="543" y="588" on="0"/>
        <pt x="543" y="583" on="1"/>
        <pt x="521" y="182" on="1"/>
        <pt x="520" y="169" on="0"/>
        <pt x="530" y="170" on="1"/>
        <pt x="542" y="173" on="0"/>
        <pt x="545" y="185" on="1"/>
        <pt x="632" y="732" on="1"/>
        <pt x="826" y="732" on="1"/>
        <pt x="736" y="155" on="1"/>
        <pt x="726" y="94" on="0"/>
        <pt x="680" y="52" on="1"/>
        <pt x="618" y="-4" on="0"/>
        <pt x="519" y="-4" on="1"/>
        <pt x="417" y="-4" on="0"/>
        <pt x="366" y="56" on="1"/>
        <pt x="333" y="95" on="0"/>
        <pt x="333" y="151" on="1"/>
        <pt x="333" y="157" on="0"/>
        <pt x="333" y="163" on="1"/>
        <pt x="355" y="569" on="1"/>
        <pt x="356" y="581" on="0"/>
        <pt x="331" y="575" on="0"/>
        <pt x="329" y="562" on="1"/>
        <pt x="240" y="0" on="1"/>
        <pt x="45" y="0" on="1"/>
        <pt x="135" y="579" on="1"/>
        <pt x="152" y="686" on="0"/>
      </contour>
    </TTGlyph>
    <TTGlyph name="Nacute" xMin="45" yMin="0" xMax="760" yMax="940">
      <contour>
        <pt x="416" y="797" on="1"/>
        <pt x="516" y="940" on="1"/>
        <pt x="661" y="940" on="1"/>
        <pt x="525" y="797" on="1"/>
      </contour>
      <contour>
        <pt x="45" y="0" on="1"/>
        <pt x="161" y="732" on="1"/>
        <pt x="357" y="732" on="1"/>
        <pt x="507" y="353" on="1"/>
        <pt x="566" y="732" on="1"/>
        <pt x="760" y="732" on="1"/>
        <pt x="644" y="0" on="1"/>
        <pt x="450" y="0" on="1"/>
        <pt x="298" y="369" on="1"/>
        <pt x="240" y="0" on="1"/>
      </contour>
    </TTGlyph>
    <TTGlyph name="Nacute.salt" xMin="45" yMin="-4" xMax="826" yMax="944">
      <contour>
        <pt x="485" y="801" on="1"/>
        <pt x="585" y="944" on="1"/>
        <pt x="730" y="944" on="1"/>
        <pt x="594" y="801" on="1"/>
      </contour>
      <contour>
        <pt x="256" y="726" on="1"/>
        <pt x="305" y="744" on="0"/>
        <pt x="404" y="744" on="0"/>
        <pt x="454" y="722" on="1"/>
        <pt x="543" y="681" on="0"/>
        <pt x="543" y="593" on="1"/>
        <pt x="543" y="588" on="0"/>
        <pt x="543" y="583" on="1"/>
        <pt x="521" y="182" on="1"/>
        <pt x="520" y="169" on="0"/>
        <pt x="530" y="170" on="1"/>
        <pt x="542" y="173" on="0"/>
        <pt x="545" y="185" on="1"/>
        <pt x="632" y="732" on="1"/>
        <pt x="826" y="732" on="1"/>
        <pt x="736" y="155" on="1"/>
        <pt x="726" y="94" on="0"/>
        <pt x="680" y="52" on="1"/>
        <pt x="618" y="-4" on="0"/>
        <pt x="519" y="-4" on="1"/>
        <pt x="417" y="-4" on="0"/>
        <pt x="366" y="56" on="1"/>
        <pt x="333" y="95" on="0"/>
        <pt x="333" y="151" on="1"/>
        <pt x="333" y="157" on="0"/>
        <pt x="333" y="163" on="1"/>
        <pt x="355" y="569" on="1"/>
        <pt x="356" y="581" on="0"/>
        <pt x="331" y="575" on="0"/>
        <pt x="329" y="562" on="1"/>
        <pt x="240" y="0" on="1"/>
        <pt x="45" y="0" on="1"/>
        <pt x="135" y="579" on="1"/>
        <pt x="152" y="686" on="0"/>
      </contour>
    </TTGlyph>
    <TTGlyph name="Ncaron" xMin="45" yMin="0" xMax="760" yMax="937">
      <contour>
        <pt x="332" y="937" on="1"/>
        <pt x="443" y="937" on="1"/>
        <pt x="478" y="886" on="1"/>
        <pt x="532" y="937" on="1"/>
        <pt x="654" y="937" on="1"/>
        <pt x="532" y="797" on="1"/>
        <pt x="406" y="797" on="1"/>
      </contour>
      <contour>
        <pt x="45" y="0" on="1"/>
        <pt x="161" y="732" on="1"/>
        <pt x="357" y="732" on="1"/>
        <pt x="507" y="353" on="1"/>
        <pt x="566" y="732" on="1"/>
        <pt x="760" y="732" on="1"/>
        <pt x="644" y="0" on="1"/>
        <pt x="450" y="0" on="1"/>
        <pt x="298" y="369" on="1"/>
        <pt x="240" y="0" on="1"/>
      </contour>
    </TTGlyph>
    <TTGlyph name="Ncaron.salt" xMin="45" yMin="-4" xMax="826" yMax="941">
      <contour>
        <pt x="361" y="941" on="1"/>
        <pt x="472" y="941" on="1"/>
        <pt x="507" y="890" on="1"/>
        <pt x="561" y="941" on="1"/>
        <pt x="683" y="941" on="1"/>
        <pt x="561" y="801" on="1"/>
        <pt x="435" y="801" on="1"/>
      </contour>
      <contour>
        <pt x="256" y="726" on="1"/>
        <pt x="305" y="744" on="0"/>
        <pt x="404" y="744" on="0"/>
        <pt x="454" y="722" on="1"/>
        <pt x="543" y="681" on="0"/>
        <pt x="543" y="593" on="1"/>
        <pt x="543" y="588" on="0"/>
        <pt x="543" y="583" on="1"/>
        <pt x="521" y="182" on="1"/>
        <pt x="520" y="169" on="0"/>
        <pt x="530" y="170" on="1"/>
        <pt x="542" y="173" on="0"/>
        <pt x="545" y="185" on="1"/>
        <pt x="632" y="732" on="1"/>
        <pt x="826" y="732" on="1"/>
        <pt x="736" y="155" on="1"/>
        <pt x="726" y="94" on="0"/>
        <pt x="680" y="52" on="1"/>
        <pt x="618" y="-4" on="0"/>
        <pt x="519" y="-4" on="1"/>
        <pt x="417" y="-4" on="0"/>
        <pt x="366" y="56" on="1"/>
        <pt x="333" y="95" on="0"/>
        <pt x="333" y="151" on="1"/>
        <pt x="333" y="157" on="0"/>
        <pt x="333" y="163" on="1"/>
        <pt x="355" y="569" on="1"/>
        <pt x="356" y="581" on="0"/>
        <pt x="331" y="575" on="0"/>
        <pt x="329" y="562" on="1"/>
        <pt x="240" y="0" on="1"/>
        <pt x="45" y="0" on="1"/>
        <pt x="135" y="579" on="1"/>
        <pt x="152" y="686" on="0"/>
      </contour>
    </TTGlyph>
    <TTGlyph name="Ncommaaccent" xMin="45" yMin="-292" xMax="760" yMax="732">
      <contour>
        <pt x="272" y="-205" on="1"/>
        <pt x="262" y="-205" on="0"/>
        <pt x="251" y="-193" on="0"/>
        <pt x="253" y="-182" on="1"/>
        <pt x="269" y="-80" on="1"/>
        <pt x="273" y="-56" on="0"/>
        <pt x="295" y="-56" on="1"/>
        <pt x="395" y="-56" on="1"/>
        <pt x="413" y="-56" on="0"/>
        <pt x="413" y="-74" on="1"/>
        <pt x="413" y="-77" on="0"/>
        <pt x="413" y="-80" on="1"/>
        <pt x="391" y="-215" on="1"/>
        <pt x="386" y="-246" on="0"/>
        <pt x="352" y="-283" on="0"/>
        <pt x="310" y="-292" on="0"/>
        <pt x="300" y="-292" on="1"/>
        <pt x="269" y="-292" on="0"/>
        <pt x="255" y="-288" on="1"/>
        <pt x="241" y="-284" on="1"/>
        <pt x="250" y="-228" on="1"/>
        <pt x="269" y="-229" on="0"/>
        <pt x="274" y="-224" on="1"/>
        <pt x="279" y="-218" on="0"/>
        <pt x="282" y="-205" on="1"/>
      </contour>
      <contour>
        <pt x="45" y="0" on="1"/>
        <pt x="161" y="732" on="1"/>
        <pt x="357" y="732" on="1"/>
        <pt x="507" y="353" on="1"/>
        <pt x="566" y="732" on="1"/>
        <pt x="760" y="732" on="1"/>
        <pt x="644" y="0" on="1"/>
        <pt x="450" y="0" on="1"/>
        <pt x="298" y="369" on="1"/>
        <pt x="240" y="0" on="1"/>
      </contour>
    </TTGlyph>
    <TTGlyph name="Ncommaaccent.salt" xMin="45" yMin="-328" xMax="826" yMax="745">
      <contour>
        <pt x="318" y="-231" on="1"/>
        <pt x="296" y="-231" on="0"/>
        <pt x="296" y="-212" on="1"/>
        <pt x="296" y="-209" on="0"/>
        <pt x="297" y="-206" on="1"/>
        <pt x="315" y="-92" on="1"/>
        <pt x="320" y="-65" on="0"/>
        <pt x="344" y="-65" on="1"/>
        <pt x="455" y="-65" on="1"/>
        <pt x="476" y="-65" on="0"/>
        <pt x="476" y="-85" on="1"/>
        <pt x="476" y="-88" on="0"/>
        <pt x="475" y="-92" on="1"/>
        <pt x="451" y="-242" on="1"/>
        <pt x="445" y="-277" on="0"/>
        <pt x="407" y="-318" on="0"/>
        <pt x="362" y="-328" on="0"/>
        <pt x="351" y="-328" on="1"/>
        <pt x="317" y="-328" on="0"/>
        <pt x="300" y="-323" on="1"/>
        <pt x="284" y="-319" on="1"/>
        <pt x="294" y="-257" on="1"/>
        <pt x="319" y="-257" on="0"/>
        <pt x="325" y="-246" on="1"/>
        <pt x="326" y="-244" on="0"/>
        <pt x="329" y="-231" on="1"/>
      </contour>
      <contour>
        <pt x="256" y="726" on="1"/>
        <pt x="305" y="744" on="0"/>
        <pt x="404" y="744" on="0"/>
        <pt x="454" y="722" on="1"/>
        <pt x="543" y="681" on="0"/>
        <pt x="543" y="593" on="1"/>
        <pt x="543" y="588" on="0"/>
        <pt x="543" y="583" on="1"/>
        <pt x="521" y="182" on="1"/>
        <pt x="520" y="169" on="0"/>
        <pt x="530" y="170" on="1"/>
        <pt x="542" y="173" on="0"/>
        <pt x="545" y="185" on="1"/>
        <pt x="632" y="732" on="1"/>
        <pt x="826" y="732" on="1"/>
        <pt x="736" y="155" on="1"/>
        <pt x="726" y="94" on="0"/>
        <pt x="680" y="52" on="1"/>
        <pt x="618" y="-4" on="0"/>
        <pt x="519" y="-4" on="1"/>
        <pt x="417" y="-4" on="0"/>
        <pt x="366" y="56" on="1"/>
        <pt x="333" y="95" on="0"/>
        <pt x="333" y="151" on="1"/>
        <pt x="333" y="157" on="0"/>
        <pt x="333" y="163" on="1"/>
        <pt x="355" y="569" on="1"/>
        <pt x="356" y="581" on="0"/>
        <pt x="331" y="575" on="0"/>
        <pt x="329" y="562" on="1"/>
        <pt x="240" y="0" on="1"/>
        <pt x="45" y="0" on="1"/>
        <pt x="135" y="579" on="1"/>
        <pt x="152" y="686" on="0"/>
      </contour>
    </TTGlyph>
    <TTGlyph name="Ntilde" xMin="45" yMin="0" xMax="760" yMax="943">
      <contour>
        <pt x="443" y="938" on="1"/>
        <pt x="466" y="938" on="0"/>
        <pt x="524" y="903" on="0"/>
        <pt x="543" y="903" on="1"/>
        <pt x="546" y="903" on="0"/>
        <pt x="550" y="903" on="1"/>
        <pt x="598" y="903" on="0"/>
        <pt x="643" y="943" on="1"/>
        <pt x="657" y="869" on="1"/>
        <pt x="598" y="797" on="0"/>
        <pt x="533" y="797" on="1"/>
        <pt x="511" y="797" on="0"/>
        <pt x="442" y="832" on="0"/>
        <pt x="423" y="832" on="1"/>
        <pt x="375" y="832" on="0"/>
        <pt x="324" y="797" on="1"/>
        <pt x="308" y="864" on="1"/>
        <pt x="372" y="938" on="0"/>
      </contour>
      <contour>
        <pt x="45" y="0" on="1"/>
        <pt x="161" y="732" on="1"/>
        <pt x="357" y="732" on="1"/>
        <pt x="507" y="353" on="1"/>
        <pt x="566" y="732" on="1"/>
        <pt x="760" y="732" on="1"/>
        <pt x="644" y="0" on="1"/>
        <pt x="450" y="0" on="1"/>
        <pt x="298" y="369" on="1"/>
        <pt x="240" y="0" on="1"/>
      </contour>
    </TTGlyph>
    <TTGlyph name="Ntilde.salt" xMin="45" yMin="-4" xMax="826" yMax="943">
      <contour>
        <pt x="456" y="938" on="1"/>
        <pt x="478" y="938" on="0"/>
        <pt x="536" y="903" on="0"/>
        <pt x="556" y="903" on="1"/>
        <pt x="559" y="903" on="0"/>
        <pt x="563" y="903" on="1"/>
        <pt x="611" y="903" on="0"/>
        <pt x="656" y="943" on="1"/>
        <pt x="670" y="869" on="1"/>
        <pt x="611" y="797" on="0"/>
        <pt x="546" y="797" on="1"/>
        <pt x="524" y="797" on="0"/>
        <pt x="455" y="832" on="0"/>
        <pt x="436" y="832" on="1"/>
        <pt x="388" y="832" on="0"/>
        <pt x="337" y="797" on="1"/>
        <pt x="321" y="864" on="1"/>
        <pt x="385" y="938" on="0"/>
      </contour>
      <contour>
        <pt x="256" y="726" on="1"/>
        <pt x="305" y="744" on="0"/>
        <pt x="404" y="744" on="0"/>
        <pt x="454" y="722" on="1"/>
        <pt x="543" y="681" on="0"/>
        <pt x="543" y="593" on="1"/>
        <pt x="543" y="588" on="0"/>
        <pt x="543" y="583" on="1"/>
        <pt x="521" y="182" on="1"/>
        <pt x="520" y="169" on="0"/>
        <pt x="530" y="170" on="1"/>
        <pt x="542" y="173" on="0"/>
        <pt x="545" y="185" on="1"/>
        <pt x="632" y="732" on="1"/>
        <pt x="826" y="732" on="1"/>
        <pt x="736" y="155" on="1"/>
        <pt x="726" y="94" on="0"/>
        <pt x="680" y="52" on="1"/>
        <pt x="618" y="-4" on="0"/>
        <pt x="519" y="-4" on="1"/>
        <pt x="417" y="-4" on="0"/>
        <pt x="366" y="56" on="1"/>
        <pt x="333" y="95" on="0"/>
        <pt x="333" y="151" on="1"/>
        <pt x="333" y="157" on="0"/>
        <pt x="333" y="163" on="1"/>
        <pt x="355" y="569" on="1"/>
        <pt x="356" y="581" on="0"/>
        <pt x="331" y="575" on="0"/>
        <pt x="329" y="562" on="1"/>
        <pt x="240" y="0" on="1"/>
        <pt x="45" y="0" on="1"/>
        <pt x="135" y="579" on="1"/>
        <pt x="152" y="686" on="0"/>
      </contour>
    </TTGlyph>
    <TTGlyph name="O" xMin="81" yMin="-4" xMax="713" yMax="737">
      <contour>
        <pt x="359" y="734" on="0"/>
        <pt x="411" y="737" on="0"/>
        <pt x="496" y="737" on="0"/>
        <pt x="558" y="729" on="0"/>
        <pt x="620" y="706" on="0"/>
        <pt x="642" y="687" on="1"/>
        <pt x="712" y="626" on="0"/>
        <pt x="712" y="479" on="1"/>
        <pt x="712" y="415" on="0"/>
        <pt x="689" y="268" on="0"/>
        <pt x="656" y="163" on="0"/>
        <pt x="620" y="91" on="0"/>
        <pt x="566" y="42" on="0"/>
        <pt x="517" y="14" on="0"/>
        <pt x="480" y="7" on="1"/>
        <pt x="422" y="-4" on="0"/>
        <pt x="298" y="-4" on="0"/>
        <pt x="234" y="4" on="0"/>
        <pt x="172" y="26" on="0"/>
        <pt x="150" y="44" on="1"/>
        <pt x="81" y="104" on="0"/>
        <pt x="81" y="241" on="1"/>
        <pt x="81" y="305" on="0"/>
        <pt x="105" y="458" on="0"/>
        <pt x="141" y="569" on="0"/>
        <pt x="178" y="643" on="0"/>
        <pt x="236" y="694" on="0"/>
        <pt x="283" y="720" on="0"/>
      </contour>
      <contour>
        <pt x="335" y="536" on="0"/>
        <pt x="302" y="452" on="0"/>
        <pt x="276" y="292" on="0"/>
        <pt x="276" y="223" on="0"/>
        <pt x="282" y="208" on="1"/>
        <pt x="295" y="170" on="0"/>
        <pt x="431" y="170" on="0"/>
        <pt x="487" y="246" on="0"/>
        <pt x="506" y="361" on="1"/>
        <pt x="519" y="427" on="0"/>
        <pt x="519" y="454" on="1"/>
        <pt x="519" y="530" on="0"/>
        <pt x="476" y="563" on="0"/>
        <pt x="382" y="563" on="0"/>
      </contour>
    </TTGlyph>
    <TTGlyph name="OE" xMin="60" yMin="-4" xMax="1045" yMax="737">
      <contour>
        <pt x="600" y="702" on="1"/>
        <pt x="645" y="733" on="0"/>
        <pt x="716" y="733" on="1"/>
        <pt x="727" y="733" on="0"/>
        <pt x="740" y="732" on="1"/>
        <pt x="930" y="732" on="0"/>
        <pt x="1045" y="716" on="1"/>
        <pt x="1019" y="553" on="1"/>
        <pt x="772" y="553" on="1"/>
        <pt x="724" y="553" on="0"/>
        <pt x="715" y="518" on="1"/>
        <pt x="713" y="510" on="0"/>
        <pt x="711" y="497" on="1"/>
        <pt x="705" y="457" on="1"/>
        <pt x="951" y="446" on="1"/>
        <pt x="926" y="285" on="1"/>
        <pt x="677" y="276" on="1"/>
        <pt x="669" y="228" on="1"/>
        <pt x="663" y="190" on="0"/>
        <pt x="682" y="182" on="1"/>
        <pt x="697" y="176" on="0"/>
        <pt x="722" y="176" on="1"/>
        <pt x="959" y="176" on="1"/>
        <pt x="934" y="14" on="1"/>
        <pt x="831" y="1" on="0"/>
        <pt x="686" y="-2" on="1"/>
        <pt x="634" y="-3" on="1"/>
        <pt x="626" y="-3" on="0"/>
        <pt x="619" y="-3" on="1"/>
        <pt x="559" y="-3" on="0"/>
        <pt x="515" y="26" on="1"/>
        <pt x="453" y="-4" on="0"/>
        <pt x="318" y="-4" on="1"/>
        <pt x="186" y="-4" on="0"/>
        <pt x="130" y="44" on="1"/>
        <pt x="60" y="104" on="0"/>
        <pt x="60" y="241" on="1"/>
        <pt x="60" y="305" on="0"/>
        <pt x="84" y="458" on="0"/>
        <pt x="120" y="569" on="0"/>
        <pt x="157" y="643" on="0"/>
        <pt x="215" y="694" on="0"/>
        <pt x="262" y="720" on="0"/>
        <pt x="300" y="727" on="1"/>
        <pt x="354" y="737" on="0"/>
        <pt x="543" y="737" on="0"/>
      </contour>
      <contour>
        <pt x="314" y="536" on="0"/>
        <pt x="281" y="452" on="0"/>
        <pt x="255" y="292" on="0"/>
        <pt x="255" y="223" on="0"/>
        <pt x="260" y="208" on="1"/>
        <pt x="274" y="170" on="0"/>
        <pt x="410" y="170" on="0"/>
        <pt x="466" y="246" on="0"/>
        <pt x="485" y="361" on="1"/>
        <pt x="498" y="427" on="0"/>
        <pt x="498" y="454" on="1"/>
        <pt x="498" y="530" on="0"/>
        <pt x="455" y="563" on="0"/>
        <pt x="361" y="563" on="0"/>
      </contour>
    </TTGlyph>
    <TTGlyph name="Oacute" xMin="81" yMin="-4" xMax="713" yMax="940">
      <contour>
        <pt x="411" y="797" on="1"/>
        <pt x="511" y="940" on="1"/>
        <pt x="656" y="940" on="1"/>
        <pt x="520" y="797" on="1"/>
      </contour>
      <contour>
        <pt x="359" y="734" on="0"/>
        <pt x="411" y="737" on="0"/>
        <pt x="496" y="737" on="0"/>
        <pt x="558" y="729" on="0"/>
        <pt x="620" y="706" on="0"/>
        <pt x="642" y="687" on="1"/>
        <pt x="712" y="626" on="0"/>
        <pt x="712" y="479" on="1"/>
        <pt x="712" y="415" on="0"/>
        <pt x="689" y="268" on="0"/>
        <pt x="656" y="163" on="0"/>
        <pt x="620" y="91" on="0"/>
        <pt x="566" y="42" on="0"/>
        <pt x="517" y="14" on="0"/>
        <pt x="480" y="7" on="1"/>
        <pt x="422" y="-4" on="0"/>
        <pt x="298" y="-4" on="0"/>
        <pt x="234" y="4" on="0"/>
        <pt x="172" y="26" on="0"/>
        <pt x="150" y="44" on="1"/>
        <pt x="81" y="104" on="0"/>
        <pt x="81" y="241" on="1"/>
        <pt x="81" y="305" on="0"/>
        <pt x="105" y="458" on="0"/>
        <pt x="141" y="569" on="0"/>
        <pt x="178" y="643" on="0"/>
        <pt x="236" y="694" on="0"/>
        <pt x="283" y="720" on="0"/>
      </contour>
      <contour>
        <pt x="335" y="536" on="0"/>
        <pt x="302" y="452" on="0"/>
        <pt x="276" y="292" on="0"/>
        <pt x="276" y="223" on="0"/>
        <pt x="282" y="208" on="1"/>
        <pt x="295" y="170" on="0"/>
        <pt x="431" y="170" on="0"/>
        <pt x="487" y="246" on="0"/>
        <pt x="506" y="361" on="1"/>
        <pt x="519" y="427" on="0"/>
        <pt x="519" y="454" on="1"/>
        <pt x="519" y="530" on="0"/>
        <pt x="476" y="563" on="0"/>
        <pt x="382" y="563" on="0"/>
      </contour>
    </TTGlyph>
    <TTGlyph name="Ocircumflex" xMin="81" yMin="-4" xMax="713" yMax="937">
      <contour>
        <pt x="305" y="797" on="1"/>
        <pt x="427" y="937" on="1"/>
        <pt x="558" y="937" on="1"/>
        <pt x="627" y="797" on="1"/>
        <pt x="516" y="797" on="1"/>
        <pt x="485" y="848" on="1"/>
        <pt x="427" y="797" on="1"/>
      </contour>
      <contour>
        <pt x="359" y="734" on="0"/>
        <pt x="411" y="737" on="0"/>
        <pt x="496" y="737" on="0"/>
        <pt x="558" y="729" on="0"/>
        <pt x="620" y="706" on="0"/>
        <pt x="642" y="687" on="1"/>
        <pt x="712" y="626" on="0"/>
        <pt x="712" y="479" on="1"/>
        <pt x="712" y="415" on="0"/>
        <pt x="689" y="268" on="0"/>
        <pt x="656" y="163" on="0"/>
        <pt x="620" y="91" on="0"/>
        <pt x="566" y="42" on="0"/>
        <pt x="517" y="14" on="0"/>
        <pt x="480" y="7" on="1"/>
        <pt x="422" y="-4" on="0"/>
        <pt x="298" y="-4" on="0"/>
        <pt x="234" y="4" on="0"/>
        <pt x="172" y="26" on="0"/>
        <pt x="150" y="44" on="1"/>
        <pt x="81" y="104" on="0"/>
        <pt x="81" y="241" on="1"/>
        <pt x="81" y="305" on="0"/>
        <pt x="105" y="458" on="0"/>
        <pt x="141" y="569" on="0"/>
        <pt x="178" y="643" on="0"/>
        <pt x="236" y="694" on="0"/>
        <pt x="283" y="720" on="0"/>
      </contour>
      <contour>
        <pt x="335" y="536" on="0"/>
        <pt x="302" y="452" on="0"/>
        <pt x="276" y="292" on="0"/>
        <pt x="276" y="223" on="0"/>
        <pt x="282" y="208" on="1"/>
        <pt x="295" y="170" on="0"/>
        <pt x="431" y="170" on="0"/>
        <pt x="487" y="246" on="0"/>
        <pt x="506" y="361" on="1"/>
        <pt x="519" y="427" on="0"/>
        <pt x="519" y="454" on="1"/>
        <pt x="519" y="530" on="0"/>
        <pt x="476" y="563" on="0"/>
        <pt x="382" y="563" on="0"/>
      </contour>
    </TTGlyph>
    <TTGlyph name="Odieresis" xMin="81" yMin="-4" xMax="713" yMax="928">
      <contour>
        <pt x="333" y="928" on="0"/>
        <pt x="387" y="928" on="0"/>
        <pt x="416" y="894" on="0"/>
        <pt x="416" y="881" on="1"/>
        <pt x="416" y="841" on="0"/>
        <pt x="366" y="797" on="0"/>
        <pt x="312" y="797" on="0"/>
        <pt x="283" y="832" on="0"/>
        <pt x="283" y="845" on="1"/>
        <pt x="283" y="886" on="0"/>
      </contour>
      <contour>
        <pt x="588" y="928" on="0"/>
        <pt x="642" y="928" on="0"/>
        <pt x="671" y="894" on="0"/>
        <pt x="671" y="881" on="1"/>
        <pt x="671" y="841" on="0"/>
        <pt x="621" y="797" on="0"/>
        <pt x="567" y="797" on="0"/>
        <pt x="538" y="831" on="0"/>
        <pt x="538" y="844" on="1"/>
        <pt x="538" y="886" on="0"/>
      </contour>
      <contour>
        <pt x="359" y="734" on="0"/>
        <pt x="411" y="737" on="0"/>
        <pt x="496" y="737" on="0"/>
        <pt x="558" y="729" on="0"/>
        <pt x="620" y="706" on="0"/>
        <pt x="642" y="687" on="1"/>
        <pt x="712" y="626" on="0"/>
        <pt x="712" y="479" on="1"/>
        <pt x="712" y="415" on="0"/>
        <pt x="689" y="268" on="0"/>
        <pt x="656" y="163" on="0"/>
        <pt x="620" y="91" on="0"/>
        <pt x="566" y="42" on="0"/>
        <pt x="517" y="14" on="0"/>
        <pt x="480" y="7" on="1"/>
        <pt x="422" y="-4" on="0"/>
        <pt x="298" y="-4" on="0"/>
        <pt x="234" y="4" on="0"/>
        <pt x="172" y="26" on="0"/>
        <pt x="150" y="44" on="1"/>
        <pt x="81" y="104" on="0"/>
        <pt x="81" y="241" on="1"/>
        <pt x="81" y="305" on="0"/>
        <pt x="105" y="458" on="0"/>
        <pt x="141" y="569" on="0"/>
        <pt x="178" y="643" on="0"/>
        <pt x="236" y="694" on="0"/>
        <pt x="283" y="720" on="0"/>
      </contour>
      <contour>
        <pt x="335" y="536" on="0"/>
        <pt x="302" y="452" on="0"/>
        <pt x="276" y="292" on="0"/>
        <pt x="276" y="223" on="0"/>
        <pt x="282" y="208" on="1"/>
        <pt x="295" y="170" on="0"/>
        <pt x="431" y="170" on="0"/>
        <pt x="487" y="246" on="0"/>
        <pt x="506" y="361" on="1"/>
        <pt x="519" y="427" on="0"/>
        <pt x="519" y="454" on="1"/>
        <pt x="519" y="530" on="0"/>
        <pt x="476" y="563" on="0"/>
        <pt x="382" y="563" on="0"/>
      </contour>
    </TTGlyph>
    <TTGlyph name="Ograve" xMin="81" yMin="-4" xMax="713" yMax="940">
      <contour>
        <pt x="321" y="940" on="1"/>
        <pt x="466" y="940" on="1"/>
        <pt x="520" y="797" on="1"/>
        <pt x="411" y="797" on="1"/>
      </contour>
      <contour>
        <pt x="359" y="734" on="0"/>
        <pt x="411" y="737" on="0"/>
        <pt x="496" y="737" on="0"/>
        <pt x="558" y="729" on="0"/>
        <pt x="620" y="706" on="0"/>
        <pt x="642" y="687" on="1"/>
        <pt x="712" y="626" on="0"/>
        <pt x="712" y="479" on="1"/>
        <pt x="712" y="415" on="0"/>
        <pt x="689" y="268" on="0"/>
        <pt x="656" y="163" on="0"/>
        <pt x="620" y="91" on="0"/>
        <pt x="566" y="42" on="0"/>
        <pt x="517" y="14" on="0"/>
        <pt x="480" y="7" on="1"/>
        <pt x="422" y="-4" on="0"/>
        <pt x="298" y="-4" on="0"/>
        <pt x="234" y="4" on="0"/>
        <pt x="172" y="26" on="0"/>
        <pt x="150" y="44" on="1"/>
        <pt x="81" y="104" on="0"/>
        <pt x="81" y="241" on="1"/>
        <pt x="81" y="305" on="0"/>
        <pt x="105" y="458" on="0"/>
        <pt x="141" y="569" on="0"/>
        <pt x="178" y="643" on="0"/>
        <pt x="236" y="694" on="0"/>
        <pt x="283" y="720" on="0"/>
      </contour>
      <contour>
        <pt x="335" y="536" on="0"/>
        <pt x="302" y="452" on="0"/>
        <pt x="276" y="292" on="0"/>
        <pt x="276" y="223" on="0"/>
        <pt x="282" y="208" on="1"/>
        <pt x="295" y="170" on="0"/>
        <pt x="431" y="170" on="0"/>
        <pt x="487" y="246" on="0"/>
        <pt x="506" y="361" on="1"/>
        <pt x="519" y="427" on="0"/>
        <pt x="519" y="454" on="1"/>
        <pt x="519" y="530" on="0"/>
        <pt x="476" y="563" on="0"/>
        <pt x="382" y="563" on="0"/>
      </contour>
    </TTGlyph>
    <TTGlyph name="Ohungarumlaut" xMin="81" yMin="-4" xMax="743" yMax="940">
      <contour>
        <pt x="325" y="797" on="1"/>
        <pt x="425" y="940" on="1"/>
        <pt x="570" y="940" on="1"/>
        <pt x="434" y="797" on="1"/>
      </contour>
      <contour>
        <pt x="498" y="797" on="1"/>
        <pt x="598" y="940" on="1"/>
        <pt x="743" y="940" on="1"/>
        <pt x="607" y="797" on="1"/>
      </contour>
      <contour>
        <pt x="359" y="734" on="0"/>
        <pt x="411" y="737" on="0"/>
        <pt x="496" y="737" on="0"/>
        <pt x="558" y="729" on="0"/>
        <pt x="620" y="706" on="0"/>
        <pt x="642" y="687" on="1"/>
        <pt x="712" y="626" on="0"/>
        <pt x="712" y="479" on="1"/>
        <pt x="712" y="415" on="0"/>
        <pt x="689" y="268" on="0"/>
        <pt x="656" y="163" on="0"/>
        <pt x="620" y="91" on="0"/>
        <pt x="566" y="42" on="0"/>
        <pt x="517" y="14" on="0"/>
        <pt x="480" y="7" on="1"/>
        <pt x="422" y="-4" on="0"/>
        <pt x="298" y="-4" on="0"/>
        <pt x="234" y="4" on="0"/>
        <pt x="172" y="26" on="0"/>
        <pt x="150" y="44" on="1"/>
        <pt x="81" y="104" on="0"/>
        <pt x="81" y="241" on="1"/>
        <pt x="81" y="305" on="0"/>
        <pt x="105" y="458" on="0"/>
        <pt x="141" y="569" on="0"/>
        <pt x="178" y="643" on="0"/>
        <pt x="236" y="694" on="0"/>
        <pt x="283" y="720" on="0"/>
      </contour>
      <contour>
        <pt x="335" y="536" on="0"/>
        <pt x="302" y="452" on="0"/>
        <pt x="276" y="292" on="0"/>
        <pt x="276" y="223" on="0"/>
        <pt x="282" y="208" on="1"/>
        <pt x="295" y="170" on="0"/>
        <pt x="431" y="170" on="0"/>
        <pt x="487" y="246" on="0"/>
        <pt x="506" y="361" on="1"/>
        <pt x="519" y="427" on="0"/>
        <pt x="519" y="454" on="1"/>
        <pt x="519" y="530" on="0"/>
        <pt x="476" y="563" on="0"/>
        <pt x="382" y="563" on="0"/>
      </contour>
    </TTGlyph>
    <TTGlyph name="Omacron" xMin="81" yMin="-4" xMax="713" yMax="890">
      <contour>
        <pt x="320" y="797" on="1"/>
        <pt x="335" y="890" on="1"/>
        <pt x="627" y="890" on="1"/>
        <pt x="612" y="797" on="1"/>
      </contour>
      <contour>
        <pt x="359" y="734" on="0"/>
        <pt x="411" y="737" on="0"/>
        <pt x="496" y="737" on="0"/>
        <pt x="558" y="729" on="0"/>
        <pt x="620" y="706" on="0"/>
        <pt x="642" y="687" on="1"/>
        <pt x="712" y="626" on="0"/>
        <pt x="712" y="479" on="1"/>
        <pt x="712" y="415" on="0"/>
        <pt x="689" y="268" on="0"/>
        <pt x="656" y="163" on="0"/>
        <pt x="620" y="91" on="0"/>
        <pt x="566" y="42" on="0"/>
        <pt x="517" y="14" on="0"/>
        <pt x="480" y="7" on="1"/>
        <pt x="422" y="-4" on="0"/>
        <pt x="298" y="-4" on="0"/>
        <pt x="234" y="4" on="0"/>
        <pt x="172" y="26" on="0"/>
        <pt x="150" y="44" on="1"/>
        <pt x="81" y="104" on="0"/>
        <pt x="81" y="241" on="1"/>
        <pt x="81" y="305" on="0"/>
        <pt x="105" y="458" on="0"/>
        <pt x="141" y="569" on="0"/>
        <pt x="178" y="643" on="0"/>
        <pt x="236" y="694" on="0"/>
        <pt x="283" y="720" on="0"/>
      </contour>
      <contour>
        <pt x="335" y="536" on="0"/>
        <pt x="302" y="452" on="0"/>
        <pt x="276" y="292" on="0"/>
        <pt x="276" y="223" on="0"/>
        <pt x="282" y="208" on="1"/>
        <pt x="295" y="170" on="0"/>
        <pt x="431" y="170" on="0"/>
        <pt x="487" y="246" on="0"/>
        <pt x="506" y="361" on="1"/>
        <pt x="519" y="427" on="0"/>
        <pt x="519" y="454" on="1"/>
        <pt x="519" y="530" on="0"/>
        <pt x="476" y="563" on="0"/>
        <pt x="382" y="563" on="0"/>
      </contour>
    </TTGlyph>
    <TTGlyph name="Omega" xMin="42" yMin="0" xMax="780" yMax="739">
      <contour>
        <pt x="282" y="305" on="1"/>
        <pt x="282" y="224" on="0"/>
        <pt x="329" y="168" on="1"/>
        <pt x="302" y="0" on="1"/>
        <pt x="42" y="0" on="1"/>
        <pt x="67" y="158" on="1"/>
        <pt x="162" y="168" on="1"/>
        <pt x="120" y="200" on="0"/>
        <pt x="104" y="276" on="1"/>
        <pt x="95" y="317" on="0"/>
        <pt x="95" y="399" on="0"/>
        <pt x="109" y="487" on="0"/>
        <pt x="141" y="571" on="0"/>
        <pt x="201" y="650" on="0"/>
        <pt x="242" y="678" on="1"/>
        <pt x="334" y="739" on="0"/>
        <pt x="483" y="739" on="1"/>
        <pt x="573" y="739" on="0"/>
        <pt x="701" y="682" on="0"/>
        <pt x="732" y="634" on="1"/>
        <pt x="780" y="558" on="0"/>
        <pt x="780" y="465" on="1"/>
        <pt x="780" y="430" on="0"/>
        <pt x="772" y="393" on="1"/>
        <pt x="759" y="313" on="0"/>
        <pt x="704" y="220" on="0"/>
        <pt x="653" y="167" on="1"/>
        <pt x="740" y="157" on="1"/>
        <pt x="715" y="0" on="1"/>
        <pt x="447" y="0" on="1"/>
        <pt x="474" y="168" on="1"/>
        <pt x="520" y="207" on="0"/>
        <pt x="565" y="311" on="0"/>
        <pt x="577" y="385" on="1"/>
        <pt x="581" y="402" on="0"/>
        <pt x="581" y="431" on="0"/>
        <pt x="578" y="472" on="0"/>
        <pt x="562" y="527" on="0"/>
        <pt x="507" y="565" on="0"/>
        <pt x="465" y="565" on="1"/>
        <pt x="319" y="565" on="0"/>
        <pt x="290" y="380" on="1"/>
        <pt x="282" y="341" on="0"/>
      </contour>
    </TTGlyph>
    <TTGlyph name="Oslash" xMin="21" yMin="-4" xMax="748" yMax="737">
      <contour>
        <pt x="103" y="93" on="1"/>
        <pt x="80" y="143" on="0"/>
        <pt x="80" y="308" on="0"/>
        <pt x="109" y="491" on="0"/>
        <pt x="165" y="626" on="0"/>
        <pt x="223" y="696" on="0"/>
        <pt x="323" y="731" on="0"/>
        <pt x="391" y="737" on="0"/>
        <pt x="456" y="737" on="1"/>
        <pt x="581" y="737" on="0"/>
        <pt x="635" y="701" on="1"/>
        <pt x="662" y="732" on="1"/>
        <pt x="748" y="732" on="1"/>
        <pt x="680" y="654" on="1"/>
        <pt x="712" y="601" on="0"/>
        <pt x="712" y="485" on="1"/>
        <pt x="712" y="416" on="0"/>
        <pt x="688" y="263" on="0"/>
        <pt x="655" y="159" on="0"/>
        <pt x="619" y="88" on="0"/>
        <pt x="564" y="39" on="0"/>
        <pt x="516" y="13" on="0"/>
        <pt x="478" y="6" on="1"/>
        <pt x="425" y="-4" on="0"/>
        <pt x="338" y="-4" on="1"/>
        <pt x="195" y="-4" on="0"/>
        <pt x="142" y="40" on="1"/>
        <pt x="107" y="0" on="1"/>
        <pt x="21" y="0" on="1"/>
      </contour>
      <contour>
        <pt x="498" y="545" on="1"/>
        <pt x="480" y="563" on="0"/>
        <pt x="381" y="563" on="0"/>
        <pt x="334" y="536" on="0"/>
        <pt x="301" y="452" on="0"/>
        <pt x="278" y="302" on="0"/>
        <pt x="277" y="293" on="1"/>
      </contour>
      <contour>
        <pt x="284" y="202" on="1"/>
        <pt x="300" y="170" on="0"/>
        <pt x="431" y="170" on="0"/>
        <pt x="486" y="245" on="0"/>
        <pt x="517" y="438" on="0"/>
        <pt x="517" y="469" on="1"/>
      </contour>
    </TTGlyph>
    <TTGlyph name="Otilde" xMin="81" yMin="-4" xMax="713" yMax="943">
      <contour>
        <pt x="437" y="938" on="1"/>
        <pt x="460" y="938" on="0"/>
        <pt x="518" y="903" on="0"/>
        <pt x="537" y="903" on="1"/>
        <pt x="540" y="903" on="0"/>
        <pt x="544" y="903" on="1"/>
        <pt x="592" y="903" on="0"/>
        <pt x="637" y="943" on="1"/>
        <pt x="651" y="869" on="1"/>
        <pt x="592" y="797" on="0"/>
        <pt x="527" y="797" on="1"/>
        <pt x="505" y="797" on="0"/>
        <pt x="436" y="832" on="0"/>
        <pt x="417" y="832" on="1"/>
        <pt x="369" y="832" on="0"/>
        <pt x="318" y="797" on="1"/>
        <pt x="302" y="864" on="1"/>
        <pt x="366" y="938" on="0"/>
      </contour>
      <contour>
        <pt x="359" y="734" on="0"/>
        <pt x="411" y="737" on="0"/>
        <pt x="496" y="737" on="0"/>
        <pt x="558" y="729" on="0"/>
        <pt x="620" y="706" on="0"/>
        <pt x="642" y="687" on="1"/>
        <pt x="712" y="626" on="0"/>
        <pt x="712" y="479" on="1"/>
        <pt x="712" y="415" on="0"/>
        <pt x="689" y="268" on="0"/>
        <pt x="656" y="163" on="0"/>
        <pt x="620" y="91" on="0"/>
        <pt x="566" y="42" on="0"/>
        <pt x="517" y="14" on="0"/>
        <pt x="480" y="7" on="1"/>
        <pt x="422" y="-4" on="0"/>
        <pt x="298" y="-4" on="0"/>
        <pt x="234" y="4" on="0"/>
        <pt x="172" y="26" on="0"/>
        <pt x="150" y="44" on="1"/>
        <pt x="81" y="104" on="0"/>
        <pt x="81" y="241" on="1"/>
        <pt x="81" y="305" on="0"/>
        <pt x="105" y="458" on="0"/>
        <pt x="141" y="569" on="0"/>
        <pt x="178" y="643" on="0"/>
        <pt x="236" y="694" on="0"/>
        <pt x="283" y="720" on="0"/>
      </contour>
      <contour>
        <pt x="335" y="536" on="0"/>
        <pt x="302" y="452" on="0"/>
        <pt x="276" y="292" on="0"/>
        <pt x="276" y="223" on="0"/>
        <pt x="282" y="208" on="1"/>
        <pt x="295" y="170" on="0"/>
        <pt x="431" y="170" on="0"/>
        <pt x="487" y="246" on="0"/>
        <pt x="506" y="361" on="1"/>
        <pt x="519" y="427" on="0"/>
        <pt x="519" y="454" on="1"/>
        <pt x="519" y="530" on="0"/>
        <pt x="476" y="563" on="0"/>
        <pt x="382" y="563" on="0"/>
      </contour>
    </TTGlyph>
    <TTGlyph name="P" xMin="44" yMin="0" xMax="660" yMax="732">
      <contour>
        <pt x="466" y="732" on="1"/>
        <pt x="551" y="732" on="0"/>
        <pt x="610" y="678" on="1"/>
        <pt x="660" y="634" on="0"/>
        <pt x="660" y="536" on="1"/>
        <pt x="660" y="452" on="0"/>
        <pt x="632" y="378" on="1"/>
        <pt x="617" y="341" on="0"/>
        <pt x="586" y="294" on="0"/>
        <pt x="538" y="263" on="0"/>
        <pt x="520" y="256" on="1"/>
        <pt x="494" y="245" on="0"/>
        <pt x="438" y="245" on="1"/>
        <pt x="386" y="245" on="0"/>
        <pt x="285" y="265" on="0"/>
        <pt x="280" y="268" on="1"/>
        <pt x="238" y="0" on="1"/>
        <pt x="44" y="0" on="1"/>
        <pt x="160" y="732" on="1"/>
      </contour>
      <contour>
        <pt x="395" y="412" on="1"/>
        <pt x="446" y="412" on="0"/>
        <pt x="459" y="492" on="1"/>
        <pt x="461" y="506" on="0"/>
        <pt x="461" y="518" on="1"/>
        <pt x="461" y="567" on="0"/>
        <pt x="420" y="567" on="1"/>
        <pt x="328" y="567" on="1"/>
        <pt x="303" y="412" on="1"/>
      </contour>
    </TTGlyph>
    <TTGlyph name="Q" xMin="81" yMin="-213" xMax="713" yMax="737">
      <contour>
        <pt x="381" y="736" on="0"/>
        <pt x="420" y="737" on="0"/>
        <pt x="495" y="737" on="0"/>
        <pt x="559" y="728" on="0"/>
        <pt x="620" y="705" on="0"/>
        <pt x="642" y="686" on="1"/>
        <pt x="712" y="623" on="0"/>
        <pt x="712" y="475" on="1"/>
        <pt x="712" y="410" on="0"/>
        <pt x="689" y="263" on="0"/>
        <pt x="656" y="159" on="0"/>
        <pt x="620" y="88" on="0"/>
        <pt x="565" y="40" on="0"/>
        <pt x="518" y="14" on="0"/>
        <pt x="480" y="7" on="1"/>
        <pt x="430" y="-2" on="0"/>
        <pt x="298" y="-4" on="0"/>
        <pt x="233" y="5" on="0"/>
        <pt x="172" y="28" on="0"/>
        <pt x="150" y="47" on="1"/>
        <pt x="81" y="106" on="0"/>
        <pt x="81" y="246" on="1"/>
        <pt x="81" y="367" on="0"/>
        <pt x="116" y="493" on="1"/>
        <pt x="142" y="590" on="0"/>
        <pt x="175" y="633" on="1"/>
        <pt x="195" y="659" on="0"/>
        <pt x="228" y="694" on="0"/>
        <pt x="281" y="717" on="0"/>
        <pt x="317" y="730" on="0"/>
      </contour>
      <contour>
        <pt x="335" y="536" on="0"/>
        <pt x="302" y="452" on="0"/>
        <pt x="276" y="292" on="0"/>
        <pt x="276" y="223" on="0"/>
        <pt x="282" y="208" on="1"/>
        <pt x="295" y="170" on="0"/>
        <pt x="431" y="170" on="0"/>
        <pt x="487" y="246" on="0"/>
        <pt x="506" y="361" on="1"/>
        <pt x="519" y="427" on="0"/>
        <pt x="519" y="454" on="1"/>
        <pt x="519" y="530" on="0"/>
        <pt x="476" y="563" on="0"/>
        <pt x="382" y="563" on="0"/>
      </contour>
      <contour>
        <pt x="382" y="-33" on="1"/>
        <pt x="380" y="-76" on="0"/>
        <pt x="434" y="-78" on="1"/>
        <pt x="442" y="-78" on="0"/>
        <pt x="455" y="-78" on="1"/>
        <pt x="484" y="-78" on="0"/>
        <pt x="535" y="-68" on="1"/>
        <pt x="513" y="-208" on="1"/>
        <pt x="487" y="-213" on="0"/>
        <pt x="440" y="-213" on="0"/>
        <pt x="375" y="-202" on="0"/>
        <pt x="306" y="-166" on="0"/>
        <pt x="277" y="-100" on="0"/>
        <pt x="277" y="-50" on="0"/>
        <pt x="280" y="-33" on="1"/>
      </contour>
    </TTGlyph>
    <TTGlyph name="R" xMin="44" yMin="0" xMax="660" yMax="732">
      <contour>
        <pt x="467" y="732" on="1"/>
        <pt x="570" y="732" on="0"/>
        <pt x="622" y="668" on="1"/>
        <pt x="660" y="621" on="0"/>
        <pt x="660" y="541" on="1"/>
        <pt x="660" y="458" on="0"/>
        <pt x="632" y="386" on="1"/>
        <pt x="618" y="349" on="0"/>
        <pt x="590" y="311" on="0"/>
        <pt x="570" y="298" on="1"/>
        <pt x="543" y="281" on="0"/>
        <pt x="511" y="277" on="1"/>
        <pt x="613" y="0" on="1"/>
        <pt x="392" y="0" on="1"/>
        <pt x="317" y="269" on="1"/>
        <pt x="281" y="273" on="1"/>
        <pt x="238" y="0" on="1"/>
        <pt x="44" y="0" on="1"/>
        <pt x="160" y="732" on="1"/>
      </contour>
      <contour>
        <pt x="392" y="419" on="1"/>
        <pt x="428" y="419" on="0"/>
        <pt x="452" y="453" on="0"/>
        <pt x="461" y="511" on="0"/>
        <pt x="461" y="526" on="1"/>
        <pt x="461" y="567" on="0"/>
        <pt x="416" y="567" on="1"/>
        <pt x="329" y="567" on="1"/>
        <pt x="305" y="419" on="1"/>
      </contour>
    </TTGlyph>
    <TTGlyph name="Racute" xMin="32" yMin="0" xMax="648" yMax="935">
      <contour>
        <pt x="352" y="792" on="1"/>
        <pt x="452" y="935" on="1"/>
        <pt x="597" y="935" on="1"/>
        <pt x="461" y="792" on="1"/>
      </contour>
      <contour>
        <pt x="455" y="732" on="1"/>
        <pt x="558" y="732" on="0"/>
        <pt x="610" y="668" on="1"/>
        <pt x="648" y="621" on="0"/>
        <pt x="648" y="541" on="1"/>
        <pt x="648" y="458" on="0"/>
        <pt x="620" y="386" on="1"/>
        <pt x="606" y="349" on="0"/>
        <pt x="578" y="311" on="0"/>
        <pt x="558" y="298" on="1"/>
        <pt x="531" y="281" on="0"/>
        <pt x="499" y="277" on="1"/>
        <pt x="601" y="0" on="1"/>
        <pt x="380" y="0" on="1"/>
        <pt x="305" y="269" on="1"/>
        <pt x="269" y="273" on="1"/>
        <pt x="226" y="0" on="1"/>
        <pt x="32" y="0" on="1"/>
        <pt x="148" y="732" on="1"/>
      </contour>
      <contour>
        <pt x="380" y="419" on="1"/>
        <pt x="416" y="419" on="0"/>
        <pt x="440" y="453" on="0"/>
        <pt x="449" y="511" on="0"/>
        <pt x="449" y="526" on="1"/>
        <pt x="449" y="567" on="0"/>
        <pt x="404" y="567" on="1"/>
        <pt x="317" y="567" on="1"/>
        <pt x="293" y="419" on="1"/>
      </contour>
    </TTGlyph>
    <TTGlyph name="Rcaron" xMin="44" yMin="0" xMax="660" yMax="937">
      <contour>
        <pt x="287" y="937" on="1"/>
        <pt x="398" y="937" on="1"/>
        <pt x="433" y="886" on="1"/>
        <pt x="487" y="937" on="1"/>
        <pt x="609" y="937" on="1"/>
        <pt x="487" y="797" on="1"/>
        <pt x="361" y="797" on="1"/>
      </contour>
      <contour>
        <pt x="467" y="732" on="1"/>
        <pt x="570" y="732" on="0"/>
        <pt x="622" y="668" on="1"/>
        <pt x="660" y="621" on="0"/>
        <pt x="660" y="541" on="1"/>
        <pt x="660" y="458" on="0"/>
        <pt x="632" y="386" on="1"/>
        <pt x="618" y="349" on="0"/>
        <pt x="590" y="311" on="0"/>
        <pt x="570" y="298" on="1"/>
        <pt x="543" y="281" on="0"/>
        <pt x="511" y="277" on="1"/>
        <pt x="613" y="0" on="1"/>
        <pt x="392" y="0" on="1"/>
        <pt x="317" y="269" on="1"/>
        <pt x="281" y="273" on="1"/>
        <pt x="238" y="0" on="1"/>
        <pt x="44" y="0" on="1"/>
        <pt x="160" y="732" on="1"/>
      </contour>
      <contour>
        <pt x="392" y="419" on="1"/>
        <pt x="428" y="419" on="0"/>
        <pt x="452" y="453" on="0"/>
        <pt x="461" y="511" on="0"/>
        <pt x="461" y="526" on="1"/>
        <pt x="461" y="567" on="0"/>
        <pt x="416" y="567" on="1"/>
        <pt x="329" y="567" on="1"/>
        <pt x="305" y="419" on="1"/>
      </contour>
    </TTGlyph>
    <TTGlyph name="Rcommaaccent" xMin="44" yMin="-292" xMax="660" yMax="732">
      <contour>
        <pt x="236" y="-205" on="1"/>
        <pt x="226" y="-205" on="0"/>
        <pt x="215" y="-193" on="0"/>
        <pt x="217" y="-182" on="1"/>
        <pt x="233" y="-80" on="1"/>
        <pt x="237" y="-56" on="0"/>
        <pt x="259" y="-56" on="1"/>
        <pt x="359" y="-56" on="1"/>
        <pt x="377" y="-56" on="0"/>
        <pt x="377" y="-74" on="1"/>
        <pt x="377" y="-77" on="0"/>
        <pt x="377" y="-80" on="1"/>
        <pt x="355" y="-215" on="1"/>
        <pt x="350" y="-246" on="0"/>
        <pt x="316" y="-283" on="0"/>
        <pt x="274" y="-292" on="0"/>
        <pt x="264" y="-292" on="1"/>
        <pt x="233" y="-292" on="0"/>
        <pt x="219" y="-288" on="1"/>
        <pt x="205" y="-284" on="1"/>
        <pt x="214" y="-228" on="1"/>
        <pt x="233" y="-229" on="0"/>
        <pt x="238" y="-224" on="1"/>
        <pt x="243" y="-218" on="0"/>
        <pt x="246" y="-205" on="1"/>
      </contour>
      <contour>
        <pt x="467" y="732" on="1"/>
        <pt x="570" y="732" on="0"/>
        <pt x="622" y="668" on="1"/>
        <pt x="660" y="621" on="0"/>
        <pt x="660" y="541" on="1"/>
        <pt x="660" y="458" on="0"/>
        <pt x="632" y="386" on="1"/>
        <pt x="618" y="349" on="0"/>
        <pt x="590" y="311" on="0"/>
        <pt x="570" y="298" on="1"/>
        <pt x="543" y="281" on="0"/>
        <pt x="511" y="277" on="1"/>
        <pt x="613" y="0" on="1"/>
        <pt x="392" y="0" on="1"/>
        <pt x="317" y="269" on="1"/>
        <pt x="281" y="273" on="1"/>
        <pt x="238" y="0" on="1"/>
        <pt x="44" y="0" on="1"/>
        <pt x="160" y="732" on="1"/>
      </contour>
      <contour>
        <pt x="392" y="419" on="1"/>
        <pt x="428" y="419" on="0"/>
        <pt x="452" y="453" on="0"/>
        <pt x="461" y="511" on="0"/>
        <pt x="461" y="526" on="1"/>
        <pt x="461" y="567" on="0"/>
        <pt x="416" y="567" on="1"/>
        <pt x="329" y="567" on="1"/>
        <pt x="305" y="419" on="1"/>
      </contour>
    </TTGlyph>
    <TTGlyph name="S" xMin="64" yMin="-8" xMax="647" yMax="739">
      <contour>
        <pt x="335" y="166" on="1"/>
        <pt x="367" y="166" on="0"/>
        <pt x="397" y="185" on="0"/>
        <pt x="401" y="207" on="1"/>
        <pt x="403" y="223" on="1"/>
        <pt x="404" y="230" on="0"/>
        <pt x="404" y="239" on="1"/>
        <pt x="404" y="267" on="0"/>
        <pt x="357" y="267" on="1"/>
        <pt x="287" y="267" on="1"/>
        <pt x="195" y="267" on="0"/>
        <pt x="154" y="314" on="1"/>
        <pt x="115" y="360" on="0"/>
        <pt x="110" y="407" on="1"/>
        <pt x="108" y="434" on="0"/>
        <pt x="108" y="468" on="0"/>
        <pt x="110" y="484" on="1"/>
        <pt x="121" y="568" on="1"/>
        <pt x="138" y="686" on="0"/>
        <pt x="228" y="718" on="1"/>
        <pt x="285" y="739" on="0"/>
        <pt x="396" y="739" on="1"/>
        <pt x="560" y="739" on="0"/>
        <pt x="647" y="705" on="1"/>
        <pt x="623" y="554" on="1"/>
        <pt x="533" y="564" on="0"/>
        <pt x="394" y="564" on="1"/>
        <pt x="350" y="564" on="0"/>
        <pt x="318" y="550" on="0"/>
        <pt x="313" y="520" on="1"/>
        <pt x="311" y="509" on="1"/>
        <pt x="310" y="501" on="0"/>
        <pt x="310" y="480" on="0"/>
        <pt x="326" y="461" on="0"/>
        <pt x="364" y="461" on="1"/>
        <pt x="438" y="461" on="1"/>
        <pt x="492" y="461" on="0"/>
        <pt x="565" y="417" on="0"/>
        <pt x="578" y="385" on="1"/>
        <pt x="602" y="330" on="0"/>
        <pt x="602" y="282" on="1"/>
        <pt x="602" y="265" on="0"/>
        <pt x="598" y="249" on="1"/>
        <pt x="596" y="186" on="1"/>
        <pt x="594" y="132" on="0"/>
        <pt x="558" y="56" on="0"/>
        <pt x="512" y="17" on="0"/>
        <pt x="438" y="-4" on="0"/>
        <pt x="387" y="-8" on="0"/>
        <pt x="228" y="-8" on="0"/>
        <pt x="131" y="2" on="0"/>
        <pt x="64" y="26" on="1"/>
        <pt x="88" y="177" on="1"/>
        <pt x="195" y="166" on="0"/>
      </contour>
    </TTGlyph>
    <TTGlyph name="Sacute" xMin="64" yMin="-8" xMax="647" yMax="942">
      <contour>
        <pt x="355" y="799" on="1"/>
        <pt x="455" y="942" on="1"/>
        <pt x="600" y="942" on="1"/>
        <pt x="464" y="799" on="1"/>
      </contour>
      <contour>
        <pt x="335" y="166" on="1"/>
        <pt x="367" y="166" on="0"/>
        <pt x="397" y="185" on="0"/>
        <pt x="401" y="207" on="1"/>
        <pt x="403" y="223" on="1"/>
        <pt x="404" y="230" on="0"/>
        <pt x="404" y="239" on="1"/>
        <pt x="404" y="267" on="0"/>
        <pt x="357" y="267" on="1"/>
        <pt x="287" y="267" on="1"/>
        <pt x="195" y="267" on="0"/>
        <pt x="154" y="314" on="1"/>
        <pt x="115" y="360" on="0"/>
        <pt x="110" y="407" on="1"/>
        <pt x="108" y="434" on="0"/>
        <pt x="108" y="468" on="0"/>
        <pt x="110" y="484" on="1"/>
        <pt x="121" y="568" on="1"/>
        <pt x="138" y="686" on="0"/>
        <pt x="228" y="718" on="1"/>
        <pt x="285" y="739" on="0"/>
        <pt x="396" y="739" on="1"/>
        <pt x="560" y="739" on="0"/>
        <pt x="647" y="705" on="1"/>
        <pt x="623" y="554" on="1"/>
        <pt x="533" y="564" on="0"/>
        <pt x="394" y="564" on="1"/>
        <pt x="350" y="564" on="0"/>
        <pt x="318" y="550" on="0"/>
        <pt x="313" y="520" on="1"/>
        <pt x="311" y="509" on="1"/>
        <pt x="310" y="501" on="0"/>
        <pt x="310" y="480" on="0"/>
        <pt x="326" y="461" on="0"/>
        <pt x="364" y="461" on="1"/>
        <pt x="438" y="461" on="1"/>
        <pt x="492" y="461" on="0"/>
        <pt x="565" y="417" on="0"/>
        <pt x="578" y="385" on="1"/>
        <pt x="602" y="330" on="0"/>
        <pt x="602" y="282" on="1"/>
        <pt x="602" y="265" on="0"/>
        <pt x="598" y="249" on="1"/>
        <pt x="596" y="186" on="1"/>
        <pt x="594" y="132" on="0"/>
        <pt x="558" y="56" on="0"/>
        <pt x="512" y="17" on="0"/>
        <pt x="438" y="-4" on="0"/>
        <pt x="387" y="-8" on="0"/>
        <pt x="228" y="-8" on="0"/>
        <pt x="131" y="2" on="0"/>
        <pt x="64" y="26" on="1"/>
        <pt x="88" y="177" on="1"/>
        <pt x="195" y="166" on="0"/>
      </contour>
    </TTGlyph>
    <TTGlyph name="Scaron" xMin="64" yMin="-8" xMax="647" yMax="939">
      <contour>
        <pt x="271" y="939" on="1"/>
        <pt x="382" y="939" on="1"/>
        <pt x="417" y="888" on="1"/>
        <pt x="471" y="939" on="1"/>
        <pt x="593" y="939" on="1"/>
        <pt x="471" y="799" on="1"/>
        <pt x="345" y="799" on="1"/>
      </contour>
      <contour>
        <pt x="335" y="166" on="1"/>
        <pt x="367" y="166" on="0"/>
        <pt x="397" y="185" on="0"/>
        <pt x="401" y="207" on="1"/>
        <pt x="403" y="223" on="1"/>
        <pt x="404" y="230" on="0"/>
        <pt x="404" y="239" on="1"/>
        <pt x="404" y="267" on="0"/>
        <pt x="357" y="267" on="1"/>
        <pt x="287" y="267" on="1"/>
        <pt x="195" y="267" on="0"/>
        <pt x="154" y="314" on="1"/>
        <pt x="115" y="360" on="0"/>
        <pt x="110" y="407" on="1"/>
        <pt x="108" y="434" on="0"/>
        <pt x="108" y="468" on="0"/>
        <pt x="110" y="484" on="1"/>
        <pt x="121" y="568" on="1"/>
        <pt x="138" y="686" on="0"/>
        <pt x="228" y="718" on="1"/>
        <pt x="285" y="739" on="0"/>
        <pt x="396" y="739" on="1"/>
        <pt x="560" y="739" on="0"/>
        <pt x="647" y="705" on="1"/>
        <pt x="623" y="554" on="1"/>
        <pt x="533" y="564" on="0"/>
        <pt x="394" y="564" on="1"/>
        <pt x="350" y="564" on="0"/>
        <pt x="318" y="550" on="0"/>
        <pt x="313" y="520" on="1"/>
        <pt x="311" y="509" on="1"/>
        <pt x="310" y="501" on="0"/>
        <pt x="310" y="480" on="0"/>
        <pt x="326" y="461" on="0"/>
        <pt x="364" y="461" on="1"/>
        <pt x="438" y="461" on="1"/>
        <pt x="492" y="461" on="0"/>
        <pt x="565" y="417" on="0"/>
        <pt x="578" y="385" on="1"/>
        <pt x="602" y="330" on="0"/>
        <pt x="602" y="282" on="1"/>
        <pt x="602" y="265" on="0"/>
        <pt x="598" y="249" on="1"/>
        <pt x="596" y="186" on="1"/>
        <pt x="594" y="132" on="0"/>
        <pt x="558" y="56" on="0"/>
        <pt x="512" y="17" on="0"/>
        <pt x="438" y="-4" on="0"/>
        <pt x="387" y="-8" on="0"/>
        <pt x="228" y="-8" on="0"/>
        <pt x="131" y="2" on="0"/>
        <pt x="64" y="26" on="1"/>
        <pt x="88" y="177" on="1"/>
        <pt x="195" y="166" on="0"/>
      </contour>
    </TTGlyph>
    <TTGlyph name="Scedilla" xMin="64" yMin="-191" xMax="647" yMax="739">
      <contour>
        <pt x="249" y="-191" on="1"/>
        <pt x="188" y="-191" on="1"/>
        <pt x="201" y="-112" on="1"/>
        <pt x="240" y="-97" on="1"/>
        <pt x="262" y="-88" on="0"/>
        <pt x="271" y="-74" on="0"/>
        <pt x="276" y="-45" on="1"/>
        <pt x="393" y="-45" on="1"/>
        <pt x="381" y="-123" on="0"/>
        <pt x="317" y="-191" on="0"/>
      </contour>
      <contour>
        <pt x="335" y="166" on="1"/>
        <pt x="367" y="166" on="0"/>
        <pt x="397" y="185" on="0"/>
        <pt x="401" y="207" on="1"/>
        <pt x="403" y="223" on="1"/>
        <pt x="404" y="230" on="0"/>
        <pt x="404" y="239" on="1"/>
        <pt x="404" y="267" on="0"/>
        <pt x="357" y="267" on="1"/>
        <pt x="287" y="267" on="1"/>
        <pt x="195" y="267" on="0"/>
        <pt x="154" y="314" on="1"/>
        <pt x="115" y="360" on="0"/>
        <pt x="110" y="407" on="1"/>
        <pt x="108" y="434" on="0"/>
        <pt x="108" y="468" on="0"/>
        <pt x="110" y="484" on="1"/>
        <pt x="121" y="568" on="1"/>
        <pt x="138" y="686" on="0"/>
        <pt x="228" y="718" on="1"/>
        <pt x="285" y="739" on="0"/>
        <pt x="396" y="739" on="1"/>
        <pt x="560" y="739" on="0"/>
        <pt x="647" y="705" on="1"/>
        <pt x="623" y="554" on="1"/>
        <pt x="533" y="564" on="0"/>
        <pt x="394" y="564" on="1"/>
        <pt x="350" y="564" on="0"/>
        <pt x="318" y="550" on="0"/>
        <pt x="313" y="520" on="1"/>
        <pt x="311" y="509" on="1"/>
        <pt x="310" y="501" on="0"/>
        <pt x="310" y="480" on="0"/>
        <pt x="326" y="461" on="0"/>
        <pt x="364" y="461" on="1"/>
        <pt x="438" y="461" on="1"/>
        <pt x="492" y="461" on="0"/>
        <pt x="565" y="417" on="0"/>
        <pt x="578" y="385" on="1"/>
        <pt x="602" y="330" on="0"/>
        <pt x="602" y="282" on="1"/>
        <pt x="602" y="265" on="0"/>
        <pt x="598" y="249" on="1"/>
        <pt x="596" y="186" on="1"/>
        <pt x="594" y="132" on="0"/>
        <pt x="558" y="56" on="0"/>
        <pt x="512" y="17" on="0"/>
        <pt x="438" y="-4" on="0"/>
        <pt x="387" y="-8" on="0"/>
        <pt x="228" y="-8" on="0"/>
        <pt x="131" y="2" on="0"/>
        <pt x="64" y="26" on="1"/>
        <pt x="88" y="177" on="1"/>
        <pt x="195" y="166" on="0"/>
      </contour>
    </TTGlyph>
    <TTGlyph name="Scircumflex" xMin="64" yMin="-8" xMax="647" yMax="939">
      <contour>
        <pt x="249" y="799" on="1"/>
        <pt x="371" y="939" on="1"/>
        <pt x="502" y="939" on="1"/>
        <pt x="571" y="799" on="1"/>
        <pt x="460" y="799" on="1"/>
        <pt x="429" y="850" on="1"/>
        <pt x="371" y="799" on="1"/>
      </contour>
      <contour>
        <pt x="335" y="166" on="1"/>
        <pt x="367" y="166" on="0"/>
        <pt x="397" y="185" on="0"/>
        <pt x="401" y="207" on="1"/>
        <pt x="403" y="223" on="1"/>
        <pt x="404" y="230" on="0"/>
        <pt x="404" y="239" on="1"/>
        <pt x="404" y="267" on="0"/>
        <pt x="357" y="267" on="1"/>
        <pt x="287" y="267" on="1"/>
        <pt x="195" y="267" on="0"/>
        <pt x="154" y="314" on="1"/>
        <pt x="115" y="360" on="0"/>
        <pt x="110" y="407" on="1"/>
        <pt x="108" y="434" on="0"/>
        <pt x="108" y="468" on="0"/>
        <pt x="110" y="484" on="1"/>
        <pt x="121" y="568" on="1"/>
        <pt x="138" y="686" on="0"/>
        <pt x="228" y="718" on="1"/>
        <pt x="285" y="739" on="0"/>
        <pt x="396" y="739" on="1"/>
        <pt x="560" y="739" on="0"/>
        <pt x="647" y="705" on="1"/>
        <pt x="623" y="554" on="1"/>
        <pt x="533" y="564" on="0"/>
        <pt x="394" y="564" on="1"/>
        <pt x="350" y="564" on="0"/>
        <pt x="318" y="550" on="0"/>
        <pt x="313" y="520" on="1"/>
        <pt x="311" y="509" on="1"/>
        <pt x="310" y="501" on="0"/>
        <pt x="310" y="480" on="0"/>
        <pt x="326" y="461" on="0"/>
        <pt x="364" y="461" on="1"/>
        <pt x="438" y="461" on="1"/>
        <pt x="492" y="461" on="0"/>
        <pt x="565" y="417" on="0"/>
        <pt x="578" y="385" on="1"/>
        <pt x="602" y="330" on="0"/>
        <pt x="602" y="282" on="1"/>
        <pt x="602" y="265" on="0"/>
        <pt x="598" y="249" on="1"/>
        <pt x="596" y="186" on="1"/>
        <pt x="594" y="132" on="0"/>
        <pt x="558" y="56" on="0"/>
        <pt x="512" y="17" on="0"/>
        <pt x="438" y="-4" on="0"/>
        <pt x="387" y="-8" on="0"/>
        <pt x="228" y="-8" on="0"/>
        <pt x="131" y="2" on="0"/>
        <pt x="64" y="26" on="1"/>
        <pt x="88" y="177" on="1"/>
        <pt x="195" y="166" on="0"/>
      </contour>
    </TTGlyph>
    <TTGlyph name="T" xMin="108" yMin="0" xMax="704" yMax="732">
      <contour>
        <pt x="108" y="558" on="1"/>
        <pt x="136" y="732" on="1"/>
        <pt x="704" y="732" on="1"/>
        <pt x="676" y="558" on="1"/>
        <pt x="486" y="558" on="1"/>
        <pt x="398" y="0" on="1"/>
        <pt x="204" y="0" on="1"/>
        <pt x="292" y="558" on="1"/>
      </contour>
    </TTGlyph>
    <TTGlyph name="Tbar" xMin="108" yMin="0" xMax="704" yMax="732">
      <contour>
        <pt x="108" y="558" on="1"/>
        <pt x="136" y="732" on="1"/>
        <pt x="704" y="732" on="1"/>
        <pt x="676" y="558" on="1"/>
        <pt x="486" y="558" on="1"/>
        <pt x="465" y="424" on="1"/>
        <pt x="545" y="424" on="1"/>
        <pt x="533" y="350" on="1"/>
        <pt x="453" y="350" on="1"/>
        <pt x="398" y="0" on="1"/>
        <pt x="204" y="0" on="1"/>
        <pt x="259" y="350" on="1"/>
        <pt x="179" y="350" on="1"/>
        <pt x="191" y="424" on="1"/>
        <pt x="271" y="424" on="1"/>
        <pt x="292" y="558" on="1"/>
      </contour>
    </TTGlyph>
    <TTGlyph name="Tcaron" xMin="108" yMin="0" xMax="704" yMax="937">
      <contour>
        <pt x="291" y="937" on="1"/>
        <pt x="402" y="937" on="1"/>
        <pt x="437" y="886" on="1"/>
        <pt x="491" y="937" on="1"/>
        <pt x="613" y="937" on="1"/>
        <pt x="491" y="797" on="1"/>
        <pt x="365" y="797" on="1"/>
      </contour>
      <contour>
        <pt x="108" y="558" on="1"/>
        <pt x="136" y="732" on="1"/>
        <pt x="704" y="732" on="1"/>
        <pt x="676" y="558" on="1"/>
        <pt x="486" y="558" on="1"/>
        <pt x="398" y="0" on="1"/>
        <pt x="204" y="0" on="1"/>
        <pt x="292" y="558" on="1"/>
      </contour>
    </TTGlyph>
    <TTGlyph name="Tcommaaccent" xMin="85" yMin="-181" xMax="681" yMax="732">
      <contour>
        <pt x="187" y="-181" on="1"/>
        <pt x="126" y="-181" on="1"/>
        <pt x="139" y="-102" on="1"/>
        <pt x="178" y="-87" on="1"/>
        <pt x="200" y="-78" on="0"/>
        <pt x="209" y="-64" on="0"/>
        <pt x="214" y="-35" on="1"/>
        <pt x="331" y="-35" on="1"/>
        <pt x="319" y="-113" on="0"/>
        <pt x="255" y="-181" on="0"/>
      </contour>
      <contour>
        <pt x="85" y="558" on="1"/>
        <pt x="113" y="732" on="1"/>
        <pt x="681" y="732" on="1"/>
        <pt x="653" y="558" on="1"/>
        <pt x="463" y="558" on="1"/>
        <pt x="375" y="0" on="1"/>
        <pt x="181" y="0" on="1"/>
        <pt x="269" y="558" on="1"/>
      </contour>
    </TTGlyph>
    <TTGlyph name="Thorn" xMin="34" yMin="0" xMax="575" yMax="729">
      <contour>
        <pt x="34" y="0" on="1"/>
        <pt x="34" y="0" on="0"/>
        <pt x="149" y="729" on="1"/>
        <pt x="343" y="729" on="1"/>
        <pt x="321" y="588" on="1"/>
        <pt x="428" y="588" on="1"/>
        <pt x="494" y="588" on="0"/>
        <pt x="539" y="542" on="1"/>
        <pt x="574" y="507" on="0"/>
        <pt x="574" y="427" on="1"/>
        <pt x="574" y="398" on="0"/>
        <pt x="561" y="304" on="0"/>
        <pt x="523" y="220" on="0"/>
        <pt x="485" y="179" on="0"/>
        <pt x="425" y="155" on="0"/>
        <pt x="407" y="152" on="1"/>
        <pt x="376" y="148" on="0"/>
        <pt x="313" y="148" on="0"/>
        <pt x="283" y="153" on="0"/>
        <pt x="255" y="168" on="1"/>
        <pt x="228" y="0" on="1"/>
      </contour>
      <contour>
        <pt x="305" y="313" on="1"/>
        <pt x="345" y="313" on="0"/>
        <pt x="368" y="332" on="0"/>
        <pt x="377" y="382" on="0"/>
        <pt x="377" y="402" on="0"/>
        <pt x="367" y="420" on="0"/>
        <pt x="346" y="424" on="0"/>
        <pt x="322" y="424" on="1"/>
        <pt x="295" y="424" on="1"/>
        <pt x="278" y="313" on="1"/>
      </contour>
    </TTGlyph>
    <TTGlyph name="U" xMin="84" yMin="-6" xMax="735" yMax="732">
      <contour>
        <pt x="419" y="-5" on="1"/>
        <pt x="388" y="-5" on="1"/>
        <pt x="374" y="-5" on="0"/>
        <pt x="341" y="-5" on="0"/>
        <pt x="302" y="-5" on="0"/>
        <pt x="258" y="-2" on="0"/>
        <pt x="203" y="9" on="0"/>
        <pt x="164" y="31" on="0"/>
        <pt x="144" y="48" on="1"/>
        <pt x="108" y="76" on="0"/>
        <pt x="92" y="154" on="1"/>
        <pt x="85" y="185" on="0"/>
        <pt x="85" y="233" on="0"/>
        <pt x="86" y="289" on="0"/>
        <pt x="96" y="350" on="1"/>
        <pt x="158" y="732" on="1"/>
        <pt x="352" y="732" on="1"/>
        <pt x="287" y="320" on="1"/>
        <pt x="278" y="258" on="0"/>
        <pt x="278" y="233" on="1"/>
        <pt x="278" y="169" on="0"/>
        <pt x="360" y="169" on="1"/>
        <pt x="392" y="169" on="0"/>
        <pt x="434" y="188" on="0"/>
        <pt x="446" y="212" on="1"/>
        <pt x="465" y="249" on="0"/>
        <pt x="475" y="320" on="1"/>
        <pt x="540" y="732" on="1"/>
        <pt x="735" y="732" on="1"/>
        <pt x="675" y="290" on="1"/>
        <pt x="648" y="120" on="0"/>
        <pt x="568" y="47" on="1"/>
        <pt x="544" y="25" on="0"/>
        <pt x="518" y="16" on="1"/>
        <pt x="462" y="-5" on="0"/>
      </contour>
    </TTGlyph>
    <TTGlyph name="Uacute" xMin="84" yMin="-6" xMax="735" yMax="940">
      <contour>
        <pt x="402" y="797" on="1"/>
        <pt x="502" y="940" on="1"/>
        <pt x="647" y="940" on="1"/>
        <pt x="511" y="797" on="1"/>
      </contour>
      <contour>
        <pt x="419" y="-5" on="1"/>
        <pt x="388" y="-5" on="1"/>
        <pt x="374" y="-5" on="0"/>
        <pt x="341" y="-5" on="0"/>
        <pt x="302" y="-5" on="0"/>
        <pt x="258" y="-2" on="0"/>
        <pt x="203" y="9" on="0"/>
        <pt x="164" y="31" on="0"/>
        <pt x="144" y="48" on="1"/>
        <pt x="108" y="76" on="0"/>
        <pt x="92" y="154" on="1"/>
        <pt x="85" y="185" on="0"/>
        <pt x="85" y="233" on="0"/>
        <pt x="86" y="289" on="0"/>
        <pt x="96" y="350" on="1"/>
        <pt x="158" y="732" on="1"/>
        <pt x="352" y="732" on="1"/>
        <pt x="287" y="320" on="1"/>
        <pt x="278" y="258" on="0"/>
        <pt x="278" y="233" on="1"/>
        <pt x="278" y="169" on="0"/>
        <pt x="360" y="169" on="1"/>
        <pt x="392" y="169" on="0"/>
        <pt x="434" y="188" on="0"/>
        <pt x="446" y="212" on="1"/>
        <pt x="465" y="249" on="0"/>
        <pt x="475" y="320" on="1"/>
        <pt x="540" y="732" on="1"/>
        <pt x="735" y="732" on="1"/>
        <pt x="675" y="290" on="1"/>
        <pt x="648" y="120" on="0"/>
        <pt x="568" y="47" on="1"/>
        <pt x="544" y="25" on="0"/>
        <pt x="518" y="16" on="1"/>
        <pt x="462" y="-5" on="0"/>
      </contour>
    </TTGlyph>
    <TTGlyph name="Ubreve" xMin="84" yMin="-6" xMax="735" yMax="909">
      <contour>
        <pt x="427" y="900" on="1"/>
        <pt x="427" y="862" on="0"/>
        <pt x="520" y="862" on="0"/>
        <pt x="523" y="909" on="1"/>
        <pt x="590" y="909" on="1"/>
        <pt x="585" y="857" on="0"/>
        <pt x="521" y="797" on="0"/>
        <pt x="416" y="797" on="0"/>
        <pt x="360" y="854" on="0"/>
        <pt x="360" y="897" on="1"/>
        <pt x="360" y="903" on="0"/>
        <pt x="360" y="909" on="1"/>
        <pt x="427" y="909" on="1"/>
        <pt x="427" y="904" on="0"/>
      </contour>
      <contour>
        <pt x="419" y="-5" on="1"/>
        <pt x="388" y="-5" on="1"/>
        <pt x="374" y="-5" on="0"/>
        <pt x="341" y="-5" on="0"/>
        <pt x="302" y="-5" on="0"/>
        <pt x="258" y="-2" on="0"/>
        <pt x="203" y="9" on="0"/>
        <pt x="164" y="31" on="0"/>
        <pt x="144" y="48" on="1"/>
        <pt x="108" y="76" on="0"/>
        <pt x="92" y="154" on="1"/>
        <pt x="85" y="185" on="0"/>
        <pt x="85" y="233" on="0"/>
        <pt x="86" y="289" on="0"/>
        <pt x="96" y="350" on="1"/>
        <pt x="158" y="732" on="1"/>
        <pt x="352" y="732" on="1"/>
        <pt x="287" y="320" on="1"/>
        <pt x="278" y="258" on="0"/>
        <pt x="278" y="233" on="1"/>
        <pt x="278" y="169" on="0"/>
        <pt x="360" y="169" on="1"/>
        <pt x="392" y="169" on="0"/>
        <pt x="434" y="188" on="0"/>
        <pt x="446" y="212" on="1"/>
        <pt x="465" y="249" on="0"/>
        <pt x="475" y="320" on="1"/>
        <pt x="540" y="732" on="1"/>
        <pt x="735" y="732" on="1"/>
        <pt x="675" y="290" on="1"/>
        <pt x="648" y="120" on="0"/>
        <pt x="568" y="47" on="1"/>
        <pt x="544" y="25" on="0"/>
        <pt x="518" y="16" on="1"/>
        <pt x="462" y="-5" on="0"/>
      </contour>
    </TTGlyph>
    <TTGlyph name="Ucircumflex" xMin="84" yMin="-6" xMax="735" yMax="937">
      <contour>
        <pt x="296" y="797" on="1"/>
        <pt x="418" y="937" on="1"/>
        <pt x="549" y="937" on="1"/>
        <pt x="618" y="797" on="1"/>
        <pt x="507" y="797" on="1"/>
        <pt x="476" y="848" on="1"/>
        <pt x="418" y="797" on="1"/>
      </contour>
      <contour>
        <pt x="419" y="-5" on="1"/>
        <pt x="388" y="-5" on="1"/>
        <pt x="374" y="-5" on="0"/>
        <pt x="341" y="-5" on="0"/>
        <pt x="302" y="-5" on="0"/>
        <pt x="258" y="-2" on="0"/>
        <pt x="203" y="9" on="0"/>
        <pt x="164" y="31" on="0"/>
        <pt x="144" y="48" on="1"/>
        <pt x="108" y="76" on="0"/>
        <pt x="92" y="154" on="1"/>
        <pt x="85" y="185" on="0"/>
        <pt x="85" y="233" on="0"/>
        <pt x="86" y="289" on="0"/>
        <pt x="96" y="350" on="1"/>
        <pt x="158" y="732" on="1"/>
        <pt x="352" y="732" on="1"/>
        <pt x="287" y="320" on="1"/>
        <pt x="278" y="258" on="0"/>
        <pt x="278" y="233" on="1"/>
        <pt x="278" y="169" on="0"/>
        <pt x="360" y="169" on="1"/>
        <pt x="392" y="169" on="0"/>
        <pt x="434" y="188" on="0"/>
        <pt x="446" y="212" on="1"/>
        <pt x="465" y="249" on="0"/>
        <pt x="475" y="320" on="1"/>
        <pt x="540" y="732" on="1"/>
        <pt x="735" y="732" on="1"/>
        <pt x="675" y="290" on="1"/>
        <pt x="648" y="120" on="0"/>
        <pt x="568" y="47" on="1"/>
        <pt x="544" y="25" on="0"/>
        <pt x="518" y="16" on="1"/>
        <pt x="462" y="-5" on="0"/>
      </contour>
    </TTGlyph>
    <TTGlyph name="Udieresis" xMin="84" yMin="-6" xMax="735" yMax="928">
      <contour>
        <pt x="324" y="928" on="0"/>
        <pt x="378" y="928" on="0"/>
        <pt x="407" y="894" on="0"/>
        <pt x="407" y="881" on="1"/>
        <pt x="407" y="841" on="0"/>
        <pt x="357" y="797" on="0"/>
        <pt x="303" y="797" on="0"/>
        <pt x="274" y="831" on="0"/>
        <pt x="274" y="844" on="1"/>
        <pt x="274" y="886" on="0"/>
      </contour>
      <contour>
        <pt x="579" y="928" on="0"/>
        <pt x="633" y="928" on="0"/>
        <pt x="662" y="894" on="0"/>
        <pt x="662" y="881" on="1"/>
        <pt x="662" y="841" on="0"/>
        <pt x="612" y="797" on="0"/>
        <pt x="558" y="797" on="0"/>
        <pt x="529" y="832" on="0"/>
        <pt x="529" y="845" on="1"/>
        <pt x="529" y="886" on="0"/>
      </contour>
      <contour>
        <pt x="419" y="-5" on="1"/>
        <pt x="388" y="-5" on="1"/>
        <pt x="374" y="-5" on="0"/>
        <pt x="341" y="-5" on="0"/>
        <pt x="302" y="-5" on="0"/>
        <pt x="258" y="-2" on="0"/>
        <pt x="203" y="9" on="0"/>
        <pt x="164" y="31" on="0"/>
        <pt x="144" y="48" on="1"/>
        <pt x="108" y="76" on="0"/>
        <pt x="92" y="154" on="1"/>
        <pt x="85" y="185" on="0"/>
        <pt x="85" y="233" on="0"/>
        <pt x="86" y="289" on="0"/>
        <pt x="96" y="350" on="1"/>
        <pt x="158" y="732" on="1"/>
        <pt x="352" y="732" on="1"/>
        <pt x="287" y="320" on="1"/>
        <pt x="278" y="258" on="0"/>
        <pt x="278" y="233" on="1"/>
        <pt x="278" y="169" on="0"/>
        <pt x="360" y="169" on="1"/>
        <pt x="392" y="169" on="0"/>
        <pt x="434" y="188" on="0"/>
        <pt x="446" y="212" on="1"/>
        <pt x="465" y="249" on="0"/>
        <pt x="475" y="320" on="1"/>
        <pt x="540" y="732" on="1"/>
        <pt x="735" y="732" on="1"/>
        <pt x="675" y="290" on="1"/>
        <pt x="648" y="120" on="0"/>
        <pt x="568" y="47" on="1"/>
        <pt x="544" y="25" on="0"/>
        <pt x="518" y="16" on="1"/>
        <pt x="462" y="-5" on="0"/>
      </contour>
    </TTGlyph>
    <TTGlyph name="Ugrave" xMin="84" yMin="-6" xMax="735" yMax="940">
      <contour>
        <pt x="312" y="940" on="1"/>
        <pt x="457" y="940" on="1"/>
        <pt x="511" y="797" on="1"/>
        <pt x="402" y="797" on="1"/>
      </contour>
      <contour>
        <pt x="419" y="-5" on="1"/>
        <pt x="388" y="-5" on="1"/>
        <pt x="374" y="-5" on="0"/>
        <pt x="341" y="-5" on="0"/>
        <pt x="302" y="-5" on="0"/>
        <pt x="258" y="-2" on="0"/>
        <pt x="203" y="9" on="0"/>
        <pt x="164" y="31" on="0"/>
        <pt x="144" y="48" on="1"/>
        <pt x="108" y="76" on="0"/>
        <pt x="92" y="154" on="1"/>
        <pt x="85" y="185" on="0"/>
        <pt x="85" y="233" on="0"/>
        <pt x="86" y="289" on="0"/>
        <pt x="96" y="350" on="1"/>
        <pt x="158" y="732" on="1"/>
        <pt x="352" y="732" on="1"/>
        <pt x="287" y="320" on="1"/>
        <pt x="278" y="258" on="0"/>
        <pt x="278" y="233" on="1"/>
        <pt x="278" y="169" on="0"/>
        <pt x="360" y="169" on="1"/>
        <pt x="392" y="169" on="0"/>
        <pt x="434" y="188" on="0"/>
        <pt x="446" y="212" on="1"/>
        <pt x="465" y="249" on="0"/>
        <pt x="475" y="320" on="1"/>
        <pt x="540" y="732" on="1"/>
        <pt x="735" y="732" on="1"/>
        <pt x="675" y="290" on="1"/>
        <pt x="648" y="120" on="0"/>
        <pt x="568" y="47" on="1"/>
        <pt x="544" y="25" on="0"/>
        <pt x="518" y="16" on="1"/>
        <pt x="462" y="-5" on="0"/>
      </contour>
    </TTGlyph>
    <TTGlyph name="Uhungarumlaut" xMin="84" yMin="-6" xMax="735" yMax="940">
      <contour>
        <pt x="316" y="797" on="1"/>
        <pt x="416" y="940" on="1"/>
        <pt x="561" y="940" on="1"/>
        <pt x="425" y="797" on="1"/>
      </contour>
      <contour>
        <pt x="489" y="797" on="1"/>
        <pt x="589" y="940" on="1"/>
        <pt x="734" y="940" on="1"/>
        <pt x="598" y="797" on="1"/>
      </contour>
      <contour>
        <pt x="419" y="-5" on="1"/>
        <pt x="388" y="-5" on="1"/>
        <pt x="374" y="-5" on="0"/>
        <pt x="341" y="-5" on="0"/>
        <pt x="302" y="-5" on="0"/>
        <pt x="258" y="-2" on="0"/>
        <pt x="203" y="9" on="0"/>
        <pt x="164" y="31" on="0"/>
        <pt x="144" y="48" on="1"/>
        <pt x="108" y="76" on="0"/>
        <pt x="92" y="154" on="1"/>
        <pt x="85" y="185" on="0"/>
        <pt x="85" y="233" on="0"/>
        <pt x="86" y="289" on="0"/>
        <pt x="96" y="350" on="1"/>
        <pt x="158" y="732" on="1"/>
        <pt x="352" y="732" on="1"/>
        <pt x="287" y="320" on="1"/>
        <pt x="278" y="258" on="0"/>
        <pt x="278" y="233" on="1"/>
        <pt x="278" y="169" on="0"/>
        <pt x="360" y="169" on="1"/>
        <pt x="392" y="169" on="0"/>
        <pt x="434" y="188" on="0"/>
        <pt x="446" y="212" on="1"/>
        <pt x="465" y="249" on="0"/>
        <pt x="475" y="320" on="1"/>
        <pt x="540" y="732" on="1"/>
        <pt x="735" y="732" on="1"/>
        <pt x="675" y="290" on="1"/>
        <pt x="648" y="120" on="0"/>
        <pt x="568" y="47" on="1"/>
        <pt x="544" y="25" on="0"/>
        <pt x="518" y="16" on="1"/>
        <pt x="462" y="-5" on="0"/>
      </contour>
    </TTGlyph>
    <TTGlyph name="Umacron" xMin="84" yMin="-6" xMax="735" yMax="890">
      <contour>
        <pt x="311" y="797" on="1"/>
        <pt x="326" y="890" on="1"/>
        <pt x="618" y="890" on="1"/>
        <pt x="603" y="797" on="1"/>
      </contour>
      <contour>
        <pt x="419" y="-5" on="1"/>
        <pt x="388" y="-5" on="1"/>
        <pt x="374" y="-5" on="0"/>
        <pt x="341" y="-5" on="0"/>
        <pt x="302" y="-5" on="0"/>
        <pt x="258" y="-2" on="0"/>
        <pt x="203" y="9" on="0"/>
        <pt x="164" y="31" on="0"/>
        <pt x="144" y="48" on="1"/>
        <pt x="108" y="76" on="0"/>
        <pt x="92" y="154" on="1"/>
        <pt x="85" y="185" on="0"/>
        <pt x="85" y="233" on="0"/>
        <pt x="86" y="289" on="0"/>
        <pt x="96" y="350" on="1"/>
        <pt x="158" y="732" on="1"/>
        <pt x="352" y="732" on="1"/>
        <pt x="287" y="320" on="1"/>
        <pt x="278" y="258" on="0"/>
        <pt x="278" y="233" on="1"/>
        <pt x="278" y="169" on="0"/>
        <pt x="360" y="169" on="1"/>
        <pt x="392" y="169" on="0"/>
        <pt x="434" y="188" on="0"/>
        <pt x="446" y="212" on="1"/>
        <pt x="465" y="249" on="0"/>
        <pt x="475" y="320" on="1"/>
        <pt x="540" y="732" on="1"/>
        <pt x="735" y="732" on="1"/>
        <pt x="675" y="290" on="1"/>
        <pt x="648" y="120" on="0"/>
        <pt x="568" y="47" on="1"/>
        <pt x="544" y="25" on="0"/>
        <pt x="518" y="16" on="1"/>
        <pt x="462" y="-5" on="0"/>
      </contour>
    </TTGlyph>
    <TTGlyph name="Uogonek" xMin="84" yMin="-196" xMax="735" yMax="732">
      <contour>
        <pt x="233" y="-103" on="1"/>
        <pt x="233" y="-39" on="0"/>
        <pt x="309" y="1" on="1"/>
        <pt x="378" y="1" on="1"/>
        <pt x="329" y="-29" on="0"/>
        <pt x="329" y="-60" on="1"/>
        <pt x="329" y="-67" on="0"/>
        <pt x="332" y="-74" on="1"/>
        <pt x="340" y="-98" on="0"/>
        <pt x="366" y="-100" on="1"/>
        <pt x="371" y="-101" on="0"/>
        <pt x="375" y="-100" on="1"/>
        <pt x="361" y="-190" on="1"/>
        <pt x="343" y="-196" on="0"/>
        <pt x="296" y="-196" on="0"/>
        <pt x="233" y="-147" on="0"/>
      </contour>
      <contour>
        <pt x="419" y="-5" on="1"/>
        <pt x="388" y="-5" on="1"/>
        <pt x="374" y="-5" on="0"/>
        <pt x="341" y="-5" on="0"/>
        <pt x="302" y="-5" on="0"/>
        <pt x="258" y="-2" on="0"/>
        <pt x="203" y="9" on="0"/>
        <pt x="164" y="31" on="0"/>
        <pt x="144" y="48" on="1"/>
        <pt x="108" y="76" on="0"/>
        <pt x="92" y="154" on="1"/>
        <pt x="85" y="185" on="0"/>
        <pt x="85" y="233" on="0"/>
        <pt x="86" y="289" on="0"/>
        <pt x="96" y="350" on="1"/>
        <pt x="158" y="732" on="1"/>
        <pt x="352" y="732" on="1"/>
        <pt x="287" y="320" on="1"/>
        <pt x="278" y="258" on="0"/>
        <pt x="278" y="233" on="1"/>
        <pt x="278" y="169" on="0"/>
        <pt x="360" y="169" on="1"/>
        <pt x="392" y="169" on="0"/>
        <pt x="434" y="188" on="0"/>
        <pt x="446" y="212" on="1"/>
        <pt x="465" y="249" on="0"/>
        <pt x="475" y="320" on="1"/>
        <pt x="540" y="732" on="1"/>
        <pt x="735" y="732" on="1"/>
        <pt x="675" y="290" on="1"/>
        <pt x="648" y="120" on="0"/>
        <pt x="568" y="47" on="1"/>
        <pt x="544" y="25" on="0"/>
        <pt x="518" y="16" on="1"/>
        <pt x="462" y="-5" on="0"/>
      </contour>
    </TTGlyph>
    <TTGlyph name="Uring" xMin="84" yMin="-6" xMax="735" yMax="997">
      <contour>
        <pt x="438" y="997" on="0"/>
        <pt x="522" y="997" on="0"/>
        <pt x="574" y="943" on="0"/>
        <pt x="574" y="907" on="1"/>
        <pt x="574" y="858" on="0"/>
        <pt x="509" y="797" on="0"/>
        <pt x="424" y="797" on="0"/>
        <pt x="371" y="851" on="0"/>
        <pt x="371" y="887" on="1"/>
        <pt x="371" y="936" on="0"/>
      </contour>
      <contour>
        <pt x="456" y="864" on="0"/>
        <pt x="484" y="864" on="0"/>
        <pt x="504" y="883" on="0"/>
        <pt x="508" y="911" on="0"/>
        <pt x="490" y="931" on="0"/>
        <pt x="462" y="931" on="0"/>
        <pt x="441" y="911" on="0"/>
        <pt x="438" y="883" on="0"/>
      </contour>
      <contour>
        <pt x="419" y="-5" on="1"/>
        <pt x="388" y="-5" on="1"/>
        <pt x="374" y="-5" on="0"/>
        <pt x="341" y="-5" on="0"/>
        <pt x="302" y="-5" on="0"/>
        <pt x="258" y="-2" on="0"/>
        <pt x="203" y="9" on="0"/>
        <pt x="164" y="31" on="0"/>
        <pt x="144" y="48" on="1"/>
        <pt x="108" y="76" on="0"/>
        <pt x="92" y="154" on="1"/>
        <pt x="85" y="185" on="0"/>
        <pt x="85" y="233" on="0"/>
        <pt x="86" y="289" on="0"/>
        <pt x="96" y="350" on="1"/>
        <pt x="158" y="732" on="1"/>
        <pt x="352" y="732" on="1"/>
        <pt x="287" y="320" on="1"/>
        <pt x="278" y="258" on="0"/>
        <pt x="278" y="233" on="1"/>
        <pt x="278" y="169" on="0"/>
        <pt x="360" y="169" on="1"/>
        <pt x="392" y="169" on="0"/>
        <pt x="434" y="188" on="0"/>
        <pt x="446" y="212" on="1"/>
        <pt x="465" y="249" on="0"/>
        <pt x="475" y="320" on="1"/>
        <pt x="540" y="732" on="1"/>
        <pt x="735" y="732" on="1"/>
        <pt x="675" y="290" on="1"/>
        <pt x="648" y="120" on="0"/>
        <pt x="568" y="47" on="1"/>
        <pt x="544" y="25" on="0"/>
        <pt x="518" y="16" on="1"/>
        <pt x="462" y="-5" on="0"/>
      </contour>
    </TTGlyph>
    <TTGlyph name="Utilde" xMin="84" yMin="-6" xMax="735" yMax="943">
      <contour>
        <pt x="428" y="938" on="1"/>
        <pt x="450" y="938" on="0"/>
        <pt x="508" y="903" on="0"/>
        <pt x="528" y="903" on="1"/>
        <pt x="531" y="903" on="0"/>
        <pt x="535" y="903" on="1"/>
        <pt x="583" y="903" on="0"/>
        <pt x="628" y="943" on="1"/>
        <pt x="642" y="869" on="1"/>
        <pt x="583" y="797" on="0"/>
        <pt x="518" y="797" on="1"/>
        <pt x="496" y="797" on="0"/>
        <pt x="427" y="832" on="0"/>
        <pt x="408" y="832" on="1"/>
        <pt x="360" y="832" on="0"/>
        <pt x="309" y="797" on="1"/>
        <pt x="293" y="864" on="1"/>
        <pt x="357" y="938" on="0"/>
      </contour>
      <contour>
        <pt x="419" y="-5" on="1"/>
        <pt x="388" y="-5" on="1"/>
        <pt x="374" y="-5" on="0"/>
        <pt x="341" y="-5" on="0"/>
        <pt x="302" y="-5" on="0"/>
        <pt x="258" y="-2" on="0"/>
        <pt x="203" y="9" on="0"/>
        <pt x="164" y="31" on="0"/>
        <pt x="144" y="48" on="1"/>
        <pt x="108" y="76" on="0"/>
        <pt x="92" y="154" on="1"/>
        <pt x="85" y="185" on="0"/>
        <pt x="85" y="233" on="0"/>
        <pt x="86" y="289" on="0"/>
        <pt x="96" y="350" on="1"/>
        <pt x="158" y="732" on="1"/>
        <pt x="352" y="732" on="1"/>
        <pt x="287" y="320" on="1"/>
        <pt x="278" y="258" on="0"/>
        <pt x="278" y="233" on="1"/>
        <pt x="278" y="169" on="0"/>
        <pt x="360" y="169" on="1"/>
        <pt x="392" y="169" on="0"/>
        <pt x="434" y="188" on="0"/>
        <pt x="446" y="212" on="1"/>
        <pt x="465" y="249" on="0"/>
        <pt x="475" y="320" on="1"/>
        <pt x="540" y="732" on="1"/>
        <pt x="735" y="732" on="1"/>
        <pt x="675" y="290" on="1"/>
        <pt x="648" y="120" on="0"/>
        <pt x="568" y="47" on="1"/>
        <pt x="544" y="25" on="0"/>
        <pt x="518" y="16" on="1"/>
        <pt x="462" y="-5" on="0"/>
      </contour>
    </TTGlyph>
    <TTGlyph name="V" xMin="130" yMin="0" xMax="790" yMax="732">
      <contour>
        <pt x="130" y="732" on="1"/>
        <pt x="334" y="732" on="1"/>
        <pt x="373" y="238" on="1"/>
        <pt x="576" y="732" on="1"/>
        <pt x="790" y="732" on="1"/>
        <pt x="455" y="0" on="1"/>
        <pt x="221" y="0" on="1"/>
      </contour>
    </TTGlyph>
    <TTGlyph name="W" xMin="130" yMin="0" xMax="1110" yMax="732">
      <contour>
        <pt x="130" y="732" on="1"/>
        <pt x="334" y="732" on="1"/>
        <pt x="375" y="248" on="1"/>
        <pt x="546" y="732" on="1"/>
        <pt x="750" y="732" on="1"/>
        <pt x="686" y="570" on="1"/>
        <pt x="730" y="248" on="1"/>
        <pt x="906" y="732" on="1"/>
        <pt x="1110" y="732" on="1"/>
        <pt x="815" y="0" on="1"/>
        <pt x="589" y="0" on="1"/>
        <pt x="554" y="241" on="1"/>
        <pt x="462" y="0" on="1"/>
        <pt x="221" y="0" on="1"/>
      </contour>
    </TTGlyph>
    <TTGlyph name="Wacute" xMin="130" yMin="0" xMax="1110" yMax="940">
      <contour>
        <pt x="576" y="797" on="1"/>
        <pt x="676" y="940" on="1"/>
        <pt x="821" y="940" on="1"/>
        <pt x="685" y="797" on="1"/>
      </contour>
      <contour>
        <pt x="130" y="732" on="1"/>
        <pt x="334" y="732" on="1"/>
        <pt x="375" y="248" on="1"/>
        <pt x="546" y="732" on="1"/>
        <pt x="750" y="732" on="1"/>
        <pt x="686" y="570" on="1"/>
        <pt x="730" y="248" on="1"/>
        <pt x="906" y="732" on="1"/>
        <pt x="1110" y="732" on="1"/>
        <pt x="815" y="0" on="1"/>
        <pt x="589" y="0" on="1"/>
        <pt x="554" y="241" on="1"/>
        <pt x="462" y="0" on="1"/>
        <pt x="221" y="0" on="1"/>
      </contour>
    </TTGlyph>
    <TTGlyph name="Wcircumflex" xMin="130" yMin="0" xMax="1110" yMax="937">
      <contour>
        <pt x="427" y="797" on="1"/>
        <pt x="549" y="937" on="1"/>
        <pt x="680" y="937" on="1"/>
        <pt x="749" y="797" on="1"/>
        <pt x="638" y="797" on="1"/>
        <pt x="607" y="848" on="1"/>
        <pt x="549" y="797" on="1"/>
      </contour>
      <contour>
        <pt x="130" y="732" on="1"/>
        <pt x="334" y="732" on="1"/>
        <pt x="375" y="248" on="1"/>
        <pt x="546" y="732" on="1"/>
        <pt x="750" y="732" on="1"/>
        <pt x="686" y="570" on="1"/>
        <pt x="730" y="248" on="1"/>
        <pt x="906" y="732" on="1"/>
        <pt x="1110" y="732" on="1"/>
        <pt x="815" y="0" on="1"/>
        <pt x="589" y="0" on="1"/>
        <pt x="554" y="241" on="1"/>
        <pt x="462" y="0" on="1"/>
        <pt x="221" y="0" on="1"/>
      </contour>
    </TTGlyph>
    <TTGlyph name="Wdieresis" xMin="130" yMin="0" xMax="1110" yMax="928">
      <contour>
        <pt x="507" y="928" on="0"/>
        <pt x="561" y="928" on="0"/>
        <pt x="590" y="894" on="0"/>
        <pt x="590" y="881" on="1"/>
        <pt x="590" y="841" on="0"/>
        <pt x="540" y="797" on="0"/>
        <pt x="486" y="797" on="0"/>
        <pt x="457" y="831" on="0"/>
        <pt x="457" y="844" on="1"/>
        <pt x="457" y="886" on="0"/>
      </contour>
      <contour>
        <pt x="762" y="928" on="0"/>
        <pt x="816" y="928" on="0"/>
        <pt x="845" y="894" on="0"/>
        <pt x="845" y="881" on="1"/>
        <pt x="845" y="841" on="0"/>
        <pt x="795" y="797" on="0"/>
        <pt x="741" y="797" on="0"/>
        <pt x="712" y="831" on="0"/>
        <pt x="712" y="844" on="1"/>
        <pt x="712" y="886" on="0"/>
      </contour>
      <contour>
        <pt x="130" y="732" on="1"/>
        <pt x="334" y="732" on="1"/>
        <pt x="375" y="248" on="1"/>
        <pt x="546" y="732" on="1"/>
        <pt x="750" y="732" on="1"/>
        <pt x="686" y="570" on="1"/>
        <pt x="730" y="248" on="1"/>
        <pt x="906" y="732" on="1"/>
        <pt x="1110" y="732" on="1"/>
        <pt x="815" y="0" on="1"/>
        <pt x="589" y="0" on="1"/>
        <pt x="554" y="241" on="1"/>
        <pt x="462" y="0" on="1"/>
        <pt x="221" y="0" on="1"/>
      </contour>
    </TTGlyph>
    <TTGlyph name="Wgrave" xMin="130" yMin="0" xMax="1110" yMax="940">
      <contour>
        <pt x="486" y="940" on="1"/>
        <pt x="631" y="940" on="1"/>
        <pt x="685" y="797" on="1"/>
        <pt x="576" y="797" on="1"/>
      </contour>
      <contour>
        <pt x="130" y="732" on="1"/>
        <pt x="334" y="732" on="1"/>
        <pt x="375" y="248" on="1"/>
        <pt x="546" y="732" on="1"/>
        <pt x="750" y="732" on="1"/>
        <pt x="686" y="570" on="1"/>
        <pt x="730" y="248" on="1"/>
        <pt x="906" y="732" on="1"/>
        <pt x="1110" y="732" on="1"/>
        <pt x="815" y="0" on="1"/>
        <pt x="589" y="0" on="1"/>
        <pt x="554" y="241" on="1"/>
        <pt x="462" y="0" on="1"/>
        <pt x="221" y="0" on="1"/>
      </contour>
    </TTGlyph>
    <TTGlyph name="X" xMin="28" yMin="0" xMax="781" yMax="732">
      <contour>
        <pt x="28" y="0" on="1"/>
        <pt x="294" y="383" on="1"/>
        <pt x="141" y="732" on="1"/>
        <pt x="356" y="732" on="1"/>
        <pt x="429" y="529" on="1"/>
        <pt x="566" y="732" on="1"/>
        <pt x="781" y="732" on="1"/>
        <pt x="509" y="343" on="1"/>
        <pt x="660" y="0" on="1"/>
        <pt x="445" y="0" on="1"/>
        <pt x="375" y="196" on="1"/>
        <pt x="243" y="0" on="1"/>
      </contour>
    </TTGlyph>
    <TTGlyph name="X.salt" xMin="11" yMin="0" xMax="798" yMax="732">
      <contour>
        <pt x="187" y="315" on="1"/>
        <pt x="215" y="365" on="0"/>
        <pt x="221" y="395" on="0"/>
        <pt x="221" y="426" on="0"/>
        <pt x="211" y="467" on="1"/>
        <pt x="127" y="732" on="1"/>
        <pt x="337" y="732" on="1"/>
        <pt x="408" y="477" on="1"/>
        <pt x="372" y="251" on="1"/>
        <pt x="231" y="0" on="1"/>
        <pt x="11" y="0" on="1"/>
      </contour>
      <contour>
        <pt x="592" y="368" on="1"/>
        <pt x="592" y="362" on="0"/>
        <pt x="592" y="330" on="0"/>
        <pt x="602" y="295" on="1"/>
        <pt x="682" y="0" on="1"/>
        <pt x="472" y="0" on="1"/>
        <pt x="402" y="251" on="1"/>
        <pt x="437" y="475" on="0"/>
        <pt x="438" y="477" on="1"/>
        <pt x="588" y="732" on="1"/>
        <pt x="798" y="732" on="1"/>
        <pt x="626" y="447" on="1"/>
        <pt x="596" y="396" on="0"/>
      </contour>
    </TTGlyph>
    <TTGlyph name="Y" xMin="130" yMin="0" xMax="770" yMax="732">
      <contour>
        <pt x="130" y="732" on="1"/>
        <pt x="341" y="732" on="1"/>
        <pt x="389" y="408" on="1"/>
        <pt x="551" y="732" on="1"/>
        <pt x="770" y="732" on="1"/>
        <pt x="455" y="200" on="1"/>
        <pt x="423" y="0" on="1"/>
        <pt x="229" y="0" on="1"/>
        <pt x="261" y="200" on="1"/>
      </contour>
    </TTGlyph>
    <TTGlyph name="Yacute" xMin="130" yMin="0" xMax="770" yMax="940">
      <contour>
        <pt x="406" y="797" on="1"/>
        <pt x="506" y="940" on="1"/>
        <pt x="651" y="940" on="1"/>
        <pt x="515" y="797" on="1"/>
      </contour>
      <contour>
        <pt x="130" y="732" on="1"/>
        <pt x="341" y="732" on="1"/>
        <pt x="389" y="408" on="1"/>
        <pt x="551" y="732" on="1"/>
        <pt x="770" y="732" on="1"/>
        <pt x="455" y="200" on="1"/>
        <pt x="423" y="0" on="1"/>
        <pt x="229" y="0" on="1"/>
        <pt x="261" y="200" on="1"/>
      </contour>
    </TTGlyph>
    <TTGlyph name="Ycircumflex" xMin="130" yMin="0" xMax="770" yMax="937">
      <contour>
        <pt x="299" y="797" on="1"/>
        <pt x="421" y="937" on="1"/>
        <pt x="552" y="937" on="1"/>
        <pt x="621" y="797" on="1"/>
        <pt x="510" y="797" on="1"/>
        <pt x="479" y="848" on="1"/>
        <pt x="421" y="797" on="1"/>
      </contour>
      <contour>
        <pt x="130" y="732" on="1"/>
        <pt x="341" y="732" on="1"/>
        <pt x="389" y="408" on="1"/>
        <pt x="551" y="732" on="1"/>
        <pt x="770" y="732" on="1"/>
        <pt x="455" y="200" on="1"/>
        <pt x="423" y="0" on="1"/>
        <pt x="229" y="0" on="1"/>
        <pt x="261" y="200" on="1"/>
      </contour>
    </TTGlyph>
    <TTGlyph name="Ydieresis" xMin="130" yMin="0" xMax="770" yMax="928">
      <contour>
        <pt x="327" y="928" on="0"/>
        <pt x="381" y="928" on="0"/>
        <pt x="410" y="894" on="0"/>
        <pt x="410" y="881" on="1"/>
        <pt x="410" y="841" on="0"/>
        <pt x="360" y="797" on="0"/>
        <pt x="306" y="797" on="0"/>
        <pt x="277" y="832" on="0"/>
        <pt x="277" y="845" on="1"/>
        <pt x="277" y="886" on="0"/>
      </contour>
      <contour>
        <pt x="582" y="928" on="0"/>
        <pt x="636" y="928" on="0"/>
        <pt x="665" y="894" on="0"/>
        <pt x="665" y="881" on="1"/>
        <pt x="665" y="841" on="0"/>
        <pt x="615" y="797" on="0"/>
        <pt x="561" y="797" on="0"/>
        <pt x="532" y="831" on="0"/>
        <pt x="532" y="844" on="1"/>
        <pt x="532" y="886" on="0"/>
      </contour>
      <contour>
        <pt x="130" y="732" on="1"/>
        <pt x="341" y="732" on="1"/>
        <pt x="389" y="408" on="1"/>
        <pt x="551" y="732" on="1"/>
        <pt x="770" y="732" on="1"/>
        <pt x="455" y="200" on="1"/>
        <pt x="423" y="0" on="1"/>
        <pt x="229" y="0" on="1"/>
        <pt x="261" y="200" on="1"/>
      </contour>
    </TTGlyph>
    <TTGlyph name="Ygrave" xMin="130" yMin="0" xMax="770" yMax="940">
      <contour>
        <pt x="316" y="940" on="1"/>
        <pt x="461" y="940" on="1"/>
        <pt x="515" y="797" on="1"/>
        <pt x="406" y="797" on="1"/>
      </contour>
      <contour>
        <pt x="130" y="732" on="1"/>
        <pt x="341" y="732" on="1"/>
        <pt x="389" y="408" on="1"/>
        <pt x="551" y="732" on="1"/>
        <pt x="770" y="732" on="1"/>
        <pt x="455" y="200" on="1"/>
        <pt x="423" y="0" on="1"/>
        <pt x="229" y="0" on="1"/>
        <pt x="261" y="200" on="1"/>
      </contour>
    </TTGlyph>
    <TTGlyph name="Z" xMin="20" yMin="0" xMax="649" yMax="732">
      <contour>
        <pt x="20" y="0" on="1"/>
        <pt x="48" y="174" on="1"/>
        <pt x="389" y="558" on="1"/>
        <pt x="108" y="558" on="1"/>
        <pt x="136" y="732" on="1"/>
        <pt x="649" y="732" on="1"/>
        <pt x="621" y="558" on="1"/>
        <pt x="299" y="174" on="1"/>
        <pt x="561" y="174" on="1"/>
        <pt x="533" y="0" on="1"/>
      </contour>
    </TTGlyph>
    <TTGlyph name="Zacute" xMin="20" yMin="0" xMax="649" yMax="940">
      <contour>
        <pt x="348" y="797" on="1"/>
        <pt x="448" y="940" on="1"/>
        <pt x="593" y="940" on="1"/>
        <pt x="457" y="797" on="1"/>
      </contour>
      <contour>
        <pt x="20" y="0" on="1"/>
        <pt x="48" y="174" on="1"/>
        <pt x="389" y="558" on="1"/>
        <pt x="108" y="558" on="1"/>
        <pt x="136" y="732" on="1"/>
        <pt x="649" y="732" on="1"/>
        <pt x="621" y="558" on="1"/>
        <pt x="299" y="174" on="1"/>
        <pt x="561" y="174" on="1"/>
        <pt x="533" y="0" on="1"/>
      </contour>
    </TTGlyph>
    <TTGlyph name="Zcaron" xMin="20" yMin="0" xMax="649" yMax="937">
      <contour>
        <pt x="264" y="937" on="1"/>
        <pt x="375" y="937" on="1"/>
        <pt x="410" y="886" on="1"/>
        <pt x="464" y="937" on="1"/>
        <pt x="586" y="937" on="1"/>
        <pt x="464" y="797" on="1"/>
        <pt x="338" y="797" on="1"/>
      </contour>
      <contour>
        <pt x="20" y="0" on="1"/>
        <pt x="48" y="174" on="1"/>
        <pt x="389" y="558" on="1"/>
        <pt x="108" y="558" on="1"/>
        <pt x="136" y="732" on="1"/>
        <pt x="649" y="732" on="1"/>
        <pt x="621" y="558" on="1"/>
        <pt x="299" y="174" on="1"/>
        <pt x="561" y="174" on="1"/>
        <pt x="533" y="0" on="1"/>
      </contour>
    </TTGlyph>
    <TTGlyph name="Zdotaccent" xMin="20" yMin="0" xMax="649" yMax="939">
      <contour>
        <pt x="381" y="939" on="1"/>
        <pt x="471" y="939" on="1"/>
        <pt x="491" y="939" on="0"/>
        <pt x="491" y="921" on="1"/>
        <pt x="491" y="918" on="0"/>
        <pt x="490" y="914" on="1"/>
        <pt x="475" y="820" on="1"/>
        <pt x="472" y="797" on="0"/>
        <pt x="449" y="797" on="1"/>
        <pt x="359" y="797" on="1"/>
        <pt x="335" y="797" on="0"/>
        <pt x="338" y="820" on="1"/>
        <pt x="353" y="914" on="1"/>
        <pt x="356" y="939" on="0"/>
      </contour>
      <contour>
        <pt x="20" y="0" on="1"/>
        <pt x="48" y="174" on="1"/>
        <pt x="389" y="558" on="1"/>
        <pt x="108" y="558" on="1"/>
        <pt x="136" y="732" on="1"/>
        <pt x="649" y="732" on="1"/>
        <pt x="621" y="558" on="1"/>
        <pt x="299" y="174" on="1"/>
        <pt x="561" y="174" on="1"/>
        <pt x="533" y="0" on="1"/>
      </contour>
    </TTGlyph>
    <TTGlyph name="a" xMin="55" yMin="-5" xMax="590" yMax="541">
      <contour>
        <pt x="338" y="541" on="1"/>
        <pt x="525" y="541" on="0"/>
        <pt x="590" y="479" on="1"/>
        <pt x="520" y="2" on="1"/>
        <pt x="367" y="2" on="1"/>
        <pt x="337" y="52" on="1"/>
        <pt x="306" y="-5" on="0"/>
        <pt x="197" y="-5" on="1"/>
        <pt x="120" y="-5" on="0"/>
        <pt x="79" y="82" on="1"/>
        <pt x="56" y="132" on="0"/>
        <pt x="56" y="250" on="0"/>
        <pt x="79" y="358" on="0"/>
        <pt x="109" y="431" on="0"/>
        <pt x="140" y="478" on="0"/>
        <pt x="184" y="512" on="0"/>
        <pt x="221" y="530" on="0"/>
        <pt x="248" y="534" on="1"/>
        <pt x="286" y="541" on="0"/>
      </contour>
      <contour>
        <pt x="289" y="377" on="0"/>
        <pt x="265" y="329" on="0"/>
        <pt x="252" y="238" on="0"/>
        <pt x="252" y="203" on="0"/>
        <pt x="253" y="171" on="0"/>
        <pt x="272" y="150" on="0"/>
        <pt x="290" y="150" on="1"/>
        <pt x="350" y="150" on="0"/>
        <pt x="355" y="202" on="1"/>
        <pt x="382" y="392" on="1"/>
        <pt x="373" y="400" on="0"/>
        <pt x="345" y="400" on="0"/>
        <pt x="311" y="392" on="0"/>
      </contour>
    </TTGlyph>
    <TTGlyph name="a.salt" xMin="58" yMin="-8" xMax="587" yMax="539">
      <contour>
        <pt x="311" y="539" on="1"/>
        <pt x="497" y="539" on="0"/>
        <pt x="587" y="466" on="1"/>
        <pt x="525" y="28" on="1"/>
        <pt x="499" y="12" on="0"/>
        <pt x="401" y="-5" on="0"/>
        <pt x="326" y="-8" on="0"/>
        <pt x="264" y="-8" on="1"/>
        <pt x="58" y="-8" on="0"/>
        <pt x="58" y="202" on="1"/>
        <pt x="58" y="243" on="0"/>
        <pt x="66" y="292" on="1"/>
        <pt x="88" y="430" on="0"/>
        <pt x="206" y="539" on="0"/>
      </contour>
      <contour>
        <pt x="257" y="254" on="1"/>
        <pt x="249" y="224" on="0"/>
        <pt x="249" y="181" on="0"/>
        <pt x="251" y="168" on="1"/>
        <pt x="257" y="126" on="0"/>
        <pt x="295" y="126" on="1"/>
        <pt x="342" y="126" on="1"/>
        <pt x="384" y="389" on="1"/>
        <pt x="369" y="400" on="0"/>
        <pt x="298" y="400" on="0"/>
        <pt x="271" y="344" on="0"/>
      </contour>
    </TTGlyph>
    <TTGlyph name="a.smcp" xMin="20" yMin="0" xMax="601" yMax="570">
      <contour>
        <pt x="20" y="0" on="1"/>
        <pt x="283" y="570" on="1"/>
        <pt x="527" y="570" on="1"/>
        <pt x="601" y="0" on="1"/>
        <pt x="415" y="0" on="1"/>
        <pt x="403" y="87" on="1"/>
        <pt x="259" y="87" on="1"/>
        <pt x="221" y="0" on="1"/>
      </contour>
      <contour>
        <pt x="322" y="231" on="1"/>
        <pt x="390" y="231" on="1"/>
        <pt x="375" y="344" on="1"/>
      </contour>
    </TTGlyph>
    <TTGlyph name="a.superior" xMin="89" yMin="359" xMax="477" yMax="729">
      <contour>
        <pt x="302" y="729" on="1"/>
        <pt x="429" y="729" on="0"/>
        <pt x="477" y="685" on="1"/>
        <pt x="431" y="364" on="1"/>
        <pt x="316" y="364" on="1"/>
        <pt x="294" y="406" on="1"/>
        <pt x="281" y="380" on="0"/>
        <pt x="238" y="359" on="0"/>
        <pt x="197" y="359" on="1"/>
        <pt x="137" y="359" on="0"/>
        <pt x="107" y="422" on="1"/>
        <pt x="89" y="458" on="0"/>
        <pt x="89" y="541" on="0"/>
        <pt x="107" y="624" on="0"/>
        <pt x="144" y="683" on="0"/>
        <pt x="180" y="712" on="0"/>
        <pt x="239" y="727" on="0"/>
        <pt x="271" y="729" on="0"/>
      </contour>
      <contour>
        <pt x="228" y="518" on="1"/>
        <pt x="228" y="475" on="0"/>
        <pt x="255" y="475" on="1"/>
        <pt x="302" y="475" on="0"/>
        <pt x="305" y="505" on="1"/>
        <pt x="321" y="620" on="1"/>
        <pt x="304" y="624" on="0"/>
        <pt x="285" y="624" on="0"/>
        <pt x="267" y="621" on="0"/>
        <pt x="260" y="616" on="1"/>
        <pt x="238" y="602" on="0"/>
        <pt x="233" y="557" on="1"/>
        <pt x="228" y="536" on="0"/>
      </contour>
    </TTGlyph>
    <TTGlyph name="aacute" xMin="55" yMin="-5" xMax="590" yMax="744">
      <contour>
        <pt x="297" y="601" on="1"/>
        <pt x="397" y="744" on="1"/>
        <pt x="542" y="744" on="1"/>
        <pt x="406" y="601" on="1"/>
      </contour>
      <contour>
        <pt x="338" y="541" on="1"/>
        <pt x="525" y="541" on="0"/>
        <pt x="590" y="479" on="1"/>
        <pt x="520" y="2" on="1"/>
        <pt x="367" y="2" on="1"/>
        <pt x="337" y="52" on="1"/>
        <pt x="306" y="-5" on="0"/>
        <pt x="197" y="-5" on="1"/>
        <pt x="120" y="-5" on="0"/>
        <pt x="79" y="82" on="1"/>
        <pt x="56" y="132" on="0"/>
        <pt x="56" y="250" on="0"/>
        <pt x="79" y="358" on="0"/>
        <pt x="109" y="431" on="0"/>
        <pt x="140" y="478" on="0"/>
        <pt x="184" y="512" on="0"/>
        <pt x="221" y="530" on="0"/>
        <pt x="248" y="534" on="1"/>
        <pt x="286" y="541" on="0"/>
      </contour>
      <contour>
        <pt x="289" y="377" on="0"/>
        <pt x="265" y="329" on="0"/>
        <pt x="252" y="238" on="0"/>
        <pt x="252" y="203" on="0"/>
        <pt x="253" y="171" on="0"/>
        <pt x="272" y="150" on="0"/>
        <pt x="290" y="150" on="1"/>
        <pt x="350" y="150" on="0"/>
        <pt x="355" y="202" on="1"/>
        <pt x="382" y="392" on="1"/>
        <pt x="373" y="400" on="0"/>
        <pt x="345" y="400" on="0"/>
        <pt x="311" y="392" on="0"/>
      </contour>
    </TTGlyph>
    <TTGlyph name="aacute.salt" xMin="58" yMin="-8" xMax="587" yMax="742">
      <contour>
        <pt x="306" y="599" on="1"/>
        <pt x="406" y="742" on="1"/>
        <pt x="551" y="742" on="1"/>
        <pt x="415" y="599" on="1"/>
      </contour>
      <contour>
        <pt x="311" y="539" on="1"/>
        <pt x="497" y="539" on="0"/>
        <pt x="587" y="466" on="1"/>
        <pt x="525" y="28" on="1"/>
        <pt x="499" y="12" on="0"/>
        <pt x="401" y="-5" on="0"/>
        <pt x="326" y="-8" on="0"/>
        <pt x="264" y="-8" on="1"/>
        <pt x="58" y="-8" on="0"/>
        <pt x="58" y="202" on="1"/>
        <pt x="58" y="243" on="0"/>
        <pt x="66" y="292" on="1"/>
        <pt x="88" y="430" on="0"/>
        <pt x="206" y="539" on="0"/>
      </contour>
      <contour>
        <pt x="257" y="254" on="1"/>
        <pt x="249" y="224" on="0"/>
        <pt x="249" y="181" on="0"/>
        <pt x="251" y="168" on="1"/>
        <pt x="257" y="126" on="0"/>
        <pt x="295" y="126" on="1"/>
        <pt x="342" y="126" on="1"/>
        <pt x="384" y="389" on="1"/>
        <pt x="369" y="400" on="0"/>
        <pt x="298" y="400" on="0"/>
        <pt x="271" y="344" on="0"/>
      </contour>
    </TTGlyph>
    <TTGlyph name="aacute.smcp" xMin="20" yMin="0" xMax="605" yMax="773">
      <contour>
        <pt x="360" y="630" on="1"/>
        <pt x="460" y="773" on="1"/>
        <pt x="605" y="773" on="1"/>
        <pt x="469" y="630" on="1"/>
      </contour>
      <contour>
        <pt x="20" y="0" on="1"/>
        <pt x="283" y="570" on="1"/>
        <pt x="527" y="570" on="1"/>
        <pt x="601" y="0" on="1"/>
        <pt x="415" y="0" on="1"/>
        <pt x="403" y="87" on="1"/>
        <pt x="259" y="87" on="1"/>
        <pt x="221" y="0" on="1"/>
      </contour>
      <contour>
        <pt x="322" y="231" on="1"/>
        <pt x="390" y="231" on="1"/>
        <pt x="375" y="344" on="1"/>
      </contour>
    </TTGlyph>
    <TTGlyph name="abreve" xMin="55" yMin="-5" xMax="590" yMax="715">
      <contour>
        <pt x="311" y="706" on="1"/>
        <pt x="311" y="668" on="0"/>
        <pt x="404" y="668" on="0"/>
        <pt x="407" y="715" on="1"/>
        <pt x="474" y="715" on="1"/>
        <pt x="469" y="663" on="0"/>
        <pt x="405" y="603" on="0"/>
        <pt x="300" y="603" on="0"/>
        <pt x="244" y="660" on="0"/>
        <pt x="244" y="703" on="1"/>
        <pt x="244" y="709" on="0"/>
        <pt x="244" y="715" on="1"/>
        <pt x="311" y="715" on="1"/>
        <pt x="311" y="710" on="0"/>
      </contour>
      <contour>
        <pt x="338" y="541" on="1"/>
        <pt x="525" y="541" on="0"/>
        <pt x="590" y="479" on="1"/>
        <pt x="520" y="2" on="1"/>
        <pt x="367" y="2" on="1"/>
        <pt x="337" y="52" on="1"/>
        <pt x="306" y="-5" on="0"/>
        <pt x="197" y="-5" on="1"/>
        <pt x="120" y="-5" on="0"/>
        <pt x="79" y="82" on="1"/>
        <pt x="56" y="132" on="0"/>
        <pt x="56" y="250" on="0"/>
        <pt x="79" y="358" on="0"/>
        <pt x="109" y="431" on="0"/>
        <pt x="140" y="478" on="0"/>
        <pt x="184" y="512" on="0"/>
        <pt x="221" y="530" on="0"/>
        <pt x="248" y="534" on="1"/>
        <pt x="286" y="541" on="0"/>
      </contour>
      <contour>
        <pt x="289" y="377" on="0"/>
        <pt x="265" y="329" on="0"/>
        <pt x="252" y="238" on="0"/>
        <pt x="252" y="203" on="0"/>
        <pt x="253" y="171" on="0"/>
        <pt x="272" y="150" on="0"/>
        <pt x="290" y="150" on="1"/>
        <pt x="350" y="150" on="0"/>
        <pt x="355" y="202" on="1"/>
        <pt x="382" y="392" on="1"/>
        <pt x="373" y="400" on="0"/>
        <pt x="345" y="400" on="0"/>
        <pt x="311" y="392" on="0"/>
      </contour>
    </TTGlyph>
    <TTGlyph name="abreve.salt" xMin="58" yMin="-8" xMax="587" yMax="711">
      <contour>
        <pt x="330" y="702" on="1"/>
        <pt x="330" y="664" on="0"/>
        <pt x="423" y="664" on="0"/>
        <pt x="426" y="711" on="1"/>
        <pt x="493" y="711" on="1"/>
        <pt x="488" y="659" on="0"/>
        <pt x="424" y="599" on="0"/>
        <pt x="319" y="599" on="0"/>
        <pt x="263" y="656" on="0"/>
        <pt x="263" y="699" on="1"/>
        <pt x="263" y="705" on="0"/>
        <pt x="263" y="711" on="1"/>
        <pt x="330" y="711" on="1"/>
        <pt x="330" y="706" on="0"/>
      </contour>
      <contour>
        <pt x="206" y="539" on="0"/>
        <pt x="311" y="539" on="1"/>
        <pt x="497" y="539" on="0"/>
        <pt x="587" y="466" on="1"/>
        <pt x="525" y="28" on="1"/>
        <pt x="499" y="12" on="0"/>
        <pt x="401" y="-5" on="0"/>
        <pt x="326" y="-8" on="0"/>
        <pt x="264" y="-8" on="1"/>
        <pt x="58" y="-8" on="0"/>
        <pt x="58" y="202" on="1"/>
        <pt x="58" y="243" on="0"/>
        <pt x="66" y="292" on="1"/>
        <pt x="88" y="430" on="0"/>
      </contour>
      <contour>
        <pt x="257" y="254" on="1"/>
        <pt x="249" y="224" on="0"/>
        <pt x="249" y="181" on="0"/>
        <pt x="251" y="168" on="1"/>
        <pt x="257" y="126" on="0"/>
        <pt x="295" y="126" on="1"/>
        <pt x="342" y="126" on="1"/>
        <pt x="384" y="389" on="1"/>
        <pt x="369" y="400" on="0"/>
        <pt x="298" y="400" on="0"/>
        <pt x="271" y="344" on="0"/>
      </contour>
    </TTGlyph>
    <TTGlyph name="abreve.smcp" xMin="20" yMin="0" xMax="601" yMax="742">
      <contour>
        <pt x="385" y="733" on="1"/>
        <pt x="385" y="695" on="0"/>
        <pt x="478" y="695" on="0"/>
        <pt x="481" y="742" on="1"/>
        <pt x="548" y="742" on="1"/>
        <pt x="543" y="690" on="0"/>
        <pt x="479" y="630" on="0"/>
        <pt x="374" y="630" on="0"/>
        <pt x="318" y="687" on="0"/>
        <pt x="318" y="730" on="1"/>
        <pt x="318" y="736" on="0"/>
        <pt x="318" y="742" on="1"/>
        <pt x="385" y="742" on="1"/>
        <pt x="385" y="737" on="0"/>
      </contour>
      <contour>
        <pt x="20" y="0" on="1"/>
        <pt x="283" y="570" on="1"/>
        <pt x="527" y="570" on="1"/>
        <pt x="601" y="0" on="1"/>
        <pt x="415" y="0" on="1"/>
        <pt x="403" y="87" on="1"/>
        <pt x="259" y="87" on="1"/>
        <pt x="221" y="0" on="1"/>
      </contour>
      <contour>
        <pt x="322" y="231" on="1"/>
        <pt x="390" y="231" on="1"/>
        <pt x="375" y="344" on="1"/>
      </contour>
    </TTGlyph>
    <TTGlyph name="acircumflex" xMin="55" yMin="-5" xMax="590" yMax="741">
      <contour>
        <pt x="196" y="601" on="1"/>
        <pt x="318" y="741" on="1"/>
        <pt x="449" y="741" on="1"/>
        <pt x="518" y="601" on="1"/>
        <pt x="407" y="601" on="1"/>
        <pt x="376" y="652" on="1"/>
        <pt x="318" y="601" on="1"/>
      </contour>
      <contour>
        <pt x="338" y="541" on="1"/>
        <pt x="525" y="541" on="0"/>
        <pt x="590" y="479" on="1"/>
        <pt x="520" y="2" on="1"/>
        <pt x="367" y="2" on="1"/>
        <pt x="337" y="52" on="1"/>
        <pt x="306" y="-5" on="0"/>
        <pt x="197" y="-5" on="1"/>
        <pt x="120" y="-5" on="0"/>
        <pt x="79" y="82" on="1"/>
        <pt x="56" y="132" on="0"/>
        <pt x="56" y="250" on="0"/>
        <pt x="79" y="358" on="0"/>
        <pt x="109" y="431" on="0"/>
        <pt x="140" y="478" on="0"/>
        <pt x="184" y="512" on="0"/>
        <pt x="221" y="530" on="0"/>
        <pt x="248" y="534" on="1"/>
        <pt x="286" y="541" on="0"/>
      </contour>
      <contour>
        <pt x="289" y="377" on="0"/>
        <pt x="265" y="329" on="0"/>
        <pt x="252" y="238" on="0"/>
        <pt x="252" y="203" on="0"/>
        <pt x="253" y="171" on="0"/>
        <pt x="272" y="150" on="0"/>
        <pt x="290" y="150" on="1"/>
        <pt x="350" y="150" on="0"/>
        <pt x="355" y="202" on="1"/>
        <pt x="382" y="392" on="1"/>
        <pt x="373" y="400" on="0"/>
        <pt x="345" y="400" on="0"/>
        <pt x="311" y="392" on="0"/>
      </contour>
    </TTGlyph>
    <TTGlyph name="acircumflex.salt" xMin="58" yMin="-8" xMax="587" yMax="739">
      <contour>
        <pt x="196" y="599" on="1"/>
        <pt x="318" y="739" on="1"/>
        <pt x="449" y="739" on="1"/>
        <pt x="518" y="599" on="1"/>
        <pt x="407" y="599" on="1"/>
        <pt x="376" y="650" on="1"/>
        <pt x="318" y="599" on="1"/>
      </contour>
      <contour>
        <pt x="311" y="539" on="1"/>
        <pt x="497" y="539" on="0"/>
        <pt x="587" y="466" on="1"/>
        <pt x="525" y="28" on="1"/>
        <pt x="499" y="12" on="0"/>
        <pt x="401" y="-5" on="0"/>
        <pt x="326" y="-8" on="0"/>
        <pt x="264" y="-8" on="1"/>
        <pt x="58" y="-8" on="0"/>
        <pt x="58" y="202" on="1"/>
        <pt x="58" y="243" on="0"/>
        <pt x="66" y="292" on="1"/>
        <pt x="88" y="430" on="0"/>
        <pt x="206" y="539" on="0"/>
      </contour>
      <contour>
        <pt x="257" y="254" on="1"/>
        <pt x="249" y="224" on="0"/>
        <pt x="249" y="181" on="0"/>
        <pt x="251" y="168" on="1"/>
        <pt x="257" y="126" on="0"/>
        <pt x="295" y="126" on="1"/>
        <pt x="342" y="126" on="1"/>
        <pt x="384" y="389" on="1"/>
        <pt x="369" y="400" on="0"/>
        <pt x="298" y="400" on="0"/>
        <pt x="271" y="344" on="0"/>
      </contour>
    </TTGlyph>
    <TTGlyph name="acircumflex.smcp" xMin="20" yMin="0" xMax="601" yMax="770">
      <contour>
        <pt x="254" y="630" on="1"/>
        <pt x="376" y="770" on="1"/>
        <pt x="507" y="770" on="1"/>
        <pt x="576" y="630" on="1"/>
        <pt x="465" y="630" on="1"/>
        <pt x="434" y="681" on="1"/>
        <pt x="376" y="630" on="1"/>
      </contour>
      <contour>
        <pt x="20" y="0" on="1"/>
        <pt x="283" y="570" on="1"/>
        <pt x="527" y="570" on="1"/>
        <pt x="601" y="0" on="1"/>
        <pt x="415" y="0" on="1"/>
        <pt x="403" y="87" on="1"/>
        <pt x="259" y="87" on="1"/>
        <pt x="221" y="0" on="1"/>
      </contour>
      <contour>
        <pt x="322" y="231" on="1"/>
        <pt x="390" y="231" on="1"/>
        <pt x="375" y="344" on="1"/>
      </contour>
    </TTGlyph>
    <TTGlyph name="acute" xMin="95" yMin="531" xMax="340" yMax="674">
      <contour>
        <pt x="95" y="531" on="1"/>
        <pt x="195" y="674" on="1"/>
        <pt x="340" y="674" on="1"/>
        <pt x="204" y="531" on="1"/>
      </contour>
    </TTGlyph>
    <TTGlyph name="acute.smcp" xMin="95" yMin="531" xMax="340" yMax="674">
      <contour>
        <pt x="95" y="531" on="1"/>
        <pt x="195" y="674" on="1"/>
        <pt x="340" y="674" on="1"/>
        <pt x="204" y="531" on="1"/>
      </contour>
    </TTGlyph>
    <TTGlyph name="adieresis" xMin="55" yMin="-5" xMax="590" yMax="732">
      <contour>
        <pt x="221" y="732" on="0"/>
        <pt x="275" y="732" on="0"/>
        <pt x="304" y="698" on="0"/>
        <pt x="304" y="685" on="1"/>
        <pt x="304" y="645" on="0"/>
        <pt x="254" y="601" on="0"/>
        <pt x="200" y="601" on="0"/>
        <pt x="171" y="636" on="0"/>
        <pt x="171" y="649" on="1"/>
        <pt x="171" y="690" on="0"/>
      </contour>
      <contour>
        <pt x="476" y="732" on="0"/>
        <pt x="530" y="732" on="0"/>
        <pt x="559" y="698" on="0"/>
        <pt x="559" y="685" on="1"/>
        <pt x="559" y="645" on="0"/>
        <pt x="509" y="601" on="0"/>
        <pt x="455" y="601" on="0"/>
        <pt x="426" y="635" on="0"/>
        <pt x="426" y="648" on="1"/>
        <pt x="426" y="690" on="0"/>
      </contour>
      <contour>
        <pt x="338" y="541" on="1"/>
        <pt x="525" y="541" on="0"/>
        <pt x="590" y="479" on="1"/>
        <pt x="520" y="2" on="1"/>
        <pt x="367" y="2" on="1"/>
        <pt x="337" y="52" on="1"/>
        <pt x="306" y="-5" on="0"/>
        <pt x="197" y="-5" on="1"/>
        <pt x="120" y="-5" on="0"/>
        <pt x="79" y="82" on="1"/>
        <pt x="56" y="132" on="0"/>
        <pt x="56" y="250" on="0"/>
        <pt x="79" y="358" on="0"/>
        <pt x="109" y="431" on="0"/>
        <pt x="140" y="478" on="0"/>
        <pt x="184" y="512" on="0"/>
        <pt x="221" y="530" on="0"/>
        <pt x="248" y="534" on="1"/>
        <pt x="286" y="541" on="0"/>
      </contour>
      <contour>
        <pt x="289" y="377" on="0"/>
        <pt x="265" y="329" on="0"/>
        <pt x="252" y="238" on="0"/>
        <pt x="252" y="203" on="0"/>
        <pt x="253" y="171" on="0"/>
        <pt x="272" y="150" on="0"/>
        <pt x="290" y="150" on="1"/>
        <pt x="350" y="150" on="0"/>
        <pt x="355" y="202" on="1"/>
        <pt x="382" y="392" on="1"/>
        <pt x="373" y="400" on="0"/>
        <pt x="345" y="400" on="0"/>
        <pt x="311" y="392" on="0"/>
      </contour>
    </TTGlyph>
    <TTGlyph name="adieresis.salt" xMin="58" yMin="-8" xMax="587" yMax="730">
      <contour>
        <pt x="219" y="730" on="0"/>
        <pt x="273" y="730" on="0"/>
        <pt x="302" y="696" on="0"/>
        <pt x="302" y="683" on="1"/>
        <pt x="302" y="643" on="0"/>
        <pt x="252" y="599" on="0"/>
        <pt x="198" y="599" on="0"/>
        <pt x="169" y="633" on="0"/>
        <pt x="169" y="646" on="1"/>
        <pt x="169" y="688" on="0"/>
      </contour>
      <contour>
        <pt x="474" y="730" on="0"/>
        <pt x="528" y="730" on="0"/>
        <pt x="557" y="696" on="0"/>
        <pt x="557" y="683" on="1"/>
        <pt x="557" y="643" on="0"/>
        <pt x="507" y="599" on="0"/>
        <pt x="453" y="599" on="0"/>
        <pt x="424" y="633" on="0"/>
        <pt x="424" y="646" on="1"/>
        <pt x="424" y="688" on="0"/>
      </contour>
      <contour>
        <pt x="311" y="539" on="1"/>
        <pt x="497" y="539" on="0"/>
        <pt x="587" y="466" on="1"/>
        <pt x="525" y="28" on="1"/>
        <pt x="499" y="12" on="0"/>
        <pt x="401" y="-5" on="0"/>
        <pt x="326" y="-8" on="0"/>
        <pt x="264" y="-8" on="1"/>
        <pt x="58" y="-8" on="0"/>
        <pt x="58" y="202" on="1"/>
        <pt x="58" y="243" on="0"/>
        <pt x="66" y="292" on="1"/>
        <pt x="88" y="430" on="0"/>
        <pt x="206" y="539" on="0"/>
      </contour>
      <contour>
        <pt x="257" y="254" on="1"/>
        <pt x="249" y="224" on="0"/>
        <pt x="249" y="181" on="0"/>
        <pt x="251" y="168" on="1"/>
        <pt x="257" y="126" on="0"/>
        <pt x="295" y="126" on="1"/>
        <pt x="342" y="126" on="1"/>
        <pt x="384" y="389" on="1"/>
        <pt x="369" y="400" on="0"/>
        <pt x="298" y="400" on="0"/>
        <pt x="271" y="344" on="0"/>
      </contour>
    </TTGlyph>
    <TTGlyph name="adieresis.smcp" xMin="20" yMin="0" xMax="620" yMax="761">
      <contour>
        <pt x="282" y="761" on="0"/>
        <pt x="336" y="761" on="0"/>
        <pt x="365" y="727" on="0"/>
        <pt x="365" y="714" on="1"/>
        <pt x="365" y="674" on="0"/>
        <pt x="315" y="630" on="0"/>
        <pt x="261" y="630" on="0"/>
        <pt x="232" y="664" on="0"/>
        <pt x="232" y="677" on="1"/>
        <pt x="232" y="719" on="0"/>
      </contour>
      <contour>
        <pt x="537" y="761" on="0"/>
        <pt x="591" y="761" on="0"/>
        <pt x="620" y="727" on="0"/>
        <pt x="620" y="714" on="1"/>
        <pt x="620" y="674" on="0"/>
        <pt x="570" y="630" on="0"/>
        <pt x="516" y="630" on="0"/>
        <pt x="487" y="664" on="0"/>
        <pt x="487" y="677" on="1"/>
        <pt x="487" y="719" on="0"/>
      </contour>
      <contour>
        <pt x="20" y="0" on="1"/>
        <pt x="283" y="570" on="1"/>
        <pt x="527" y="570" on="1"/>
        <pt x="601" y="0" on="1"/>
        <pt x="415" y="0" on="1"/>
        <pt x="403" y="87" on="1"/>
        <pt x="259" y="87" on="1"/>
        <pt x="221" y="0" on="1"/>
      </contour>
      <contour>
        <pt x="322" y="231" on="1"/>
        <pt x="390" y="231" on="1"/>
        <pt x="375" y="344" on="1"/>
      </contour>
    </TTGlyph>
</ttFont>
